<?xml version="1.0" encoding="UTF-8"?>
<!DOCTYPE svg PUBLIC "-//W3C//DTD SVG 1.1//EN" "http://www.w3.org/Graphics/SVG/1.1/DTD/svg11.dtd">
<svg version="1.2" width="250mm" height="150mm" viewBox="0 0 25000 15000" preserveAspectRatio="xMidYMid" fill-rule="evenodd" stroke-width="28.222" stroke-linejoin="round" xmlns="http://www.w3.org/2000/svg" xmlns:ooo="http://xml.openoffice.org/svg/export" xmlns:xlink="http://www.w3.org/1999/xlink" xmlns:presentation="http://sun.com/xmlns/staroffice/presentation" xmlns:smil="http://www.w3.org/2001/SMIL20/" xmlns:anim="urn:oasis:names:tc:opendocument:xmlns:animation:1.0" xml:space="preserve">
 <defs class="ClipPathGroup">
  <clipPath id="presentation_clip_path" clipPathUnits="userSpaceOnUse">
   <rect x="0" y="0" width="25000" height="15000"/>
  </clipPath>
  <clipPath id="presentation_clip_path_shrink" clipPathUnits="userSpaceOnUse">
   <rect x="25" y="15" width="24950" height="14970"/>
  </clipPath>
 </defs>
 <defs class="TextShapeIndex">
  <g ooo:slide="id1" ooo:id-list="id3 id4 id5 id6 id7 id8 id9 id10 id11 id12 id13 id14 id15 id16"/>
 </defs>
 <defs class="EmbeddedBulletChars">
  <g id="bullet-char-template-57356" transform="scale(0.00048828125,-0.00048828125)">
   <path d="M 580,1141 L 1163,571 580,0 -4,571 580,1141 Z"/>
  </g>
  <g id="bullet-char-template-57354" transform="scale(0.00048828125,-0.00048828125)">
   <path d="M 8,1128 L 1137,1128 1137,0 8,0 8,1128 Z"/>
  </g>
  <g id="bullet-char-template-10146" transform="scale(0.00048828125,-0.00048828125)">
   <path d="M 174,0 L 602,739 174,1481 1456,739 174,0 Z M 1358,739 L 309,1346 659,739 1358,739 Z"/>
  </g>
  <g id="bullet-char-template-10132" transform="scale(0.00048828125,-0.00048828125)">
   <path d="M 2015,739 L 1276,0 717,0 1260,543 174,543 174,936 1260,936 717,1481 1274,1481 2015,739 Z"/>
  </g>
  <g id="bullet-char-template-10007" transform="scale(0.00048828125,-0.00048828125)">
   <path d="M 0,-2 C -7,14 -16,27 -25,37 L 356,567 C 262,823 215,952 215,954 215,979 228,992 255,992 264,992 276,990 289,987 310,991 331,999 354,1012 L 381,999 492,748 772,1049 836,1024 860,1049 C 881,1039 901,1025 922,1006 886,937 835,863 770,784 769,783 710,716 594,584 L 774,223 C 774,196 753,168 711,139 L 727,119 C 717,90 699,76 672,76 641,76 570,178 457,381 L 164,-76 C 142,-110 111,-127 72,-127 30,-127 9,-110 8,-76 1,-67 -2,-52 -2,-32 -2,-23 -1,-13 0,-2 Z"/>
  </g>
  <g id="bullet-char-template-10004" transform="scale(0.00048828125,-0.00048828125)">
   <path d="M 285,-33 C 182,-33 111,30 74,156 52,228 41,333 41,471 41,549 55,616 82,672 116,743 169,778 240,778 293,778 328,747 346,684 L 369,508 C 377,444 397,411 428,410 L 1163,1116 C 1174,1127 1196,1133 1229,1133 1271,1133 1292,1118 1292,1087 L 1292,965 C 1292,929 1282,901 1262,881 L 442,47 C 390,-6 338,-33 285,-33 Z"/>
  </g>
  <g id="bullet-char-template-9679" transform="scale(0.00048828125,-0.00048828125)">
   <path d="M 813,0 C 632,0 489,54 383,161 276,268 223,411 223,592 223,773 276,916 383,1023 489,1130 632,1184 813,1184 992,1184 1136,1130 1245,1023 1353,916 1407,772 1407,592 1407,412 1353,268 1245,161 1136,54 992,0 813,0 Z"/>
  </g>
  <g id="bullet-char-template-8226" transform="scale(0.00048828125,-0.00048828125)">
   <path d="M 346,457 C 273,457 209,483 155,535 101,586 74,649 74,723 74,796 101,859 155,911 209,963 273,989 346,989 419,989 480,963 531,910 582,859 608,796 608,723 608,648 583,586 532,535 482,483 420,457 346,457 Z"/>
  </g>
  <g id="bullet-char-template-8211" transform="scale(0.00048828125,-0.00048828125)">
   <path d="M -4,459 L 1135,459 1135,606 -4,606 -4,459 Z"/>
  </g>
  <g id="bullet-char-template-61548" transform="scale(0.00048828125,-0.00048828125)">
   <path d="M 173,740 C 173,903 231,1043 346,1159 462,1274 601,1332 765,1332 928,1332 1067,1274 1183,1159 1299,1043 1357,903 1357,740 1357,577 1299,437 1183,322 1067,206 928,148 765,148 601,148 462,206 346,322 231,437 173,577 173,740 Z"/>
  </g>
 </defs>
 <defs class="TextEmbeddedBitmaps"/>
 <g>
  <g id="id2" class="Master_Slide">
   <g id="bg-id2" class="Background"/>
   <g id="bo-id2" class="BackgroundObjects"/>
  </g>
 </g>
 <g class="SlideGroup">
  <g>
   <g id="container-id1">
    <g id="id1" class="Slide" clip-path="url(#presentation_clip_path)">
     <g class="Page">
      <g class="Graphic">
       <g id="id3">
        <rect class="BoundingBox" stroke="none" fill="none" x="7890" y="10400" width="4611" height="4610"/>
        <defs>
         <clipPath id="clip_path_1" clipPathUnits="userSpaceOnUse">
          <path d="M 11096,15009 L 7891,13605 9294,10400 12500,11804 11096,15009 Z"/>
         </clipPath>
        </defs>
        <g clip-path="url(#clip_path_1)">
         <path fill="rgb(0,0,0)" stroke="none" d="M 8867,12830 C 8775,12805 8674,12807 8578,12845 8342,12937 8225,13203 8318,13439 8410,13674 8675,13791 8911,13698 9007,13661 9083,13595 9134,13513 L 9434,14281 10288,13948 C 10206,13897 10140,13821 10102,13725 10010,13489 10126,13223 10362,13131 10598,13039 10863,13156 10956,13391 10993,13487 10996,13588 10970,13681 L 11824,13347 11524,12579 C 11616,12605 11717,12602 11813,12564 12049,12472 12165,12206 12073,11971 11981,11735 11715,11619 11479,11711 11383,11748 11307,11815 11257,11896 L 10956,11128 10103,11462 C 10184,11512 10251,11588 10288,11684 10380,11920 10264,12186 10028,12278 9793,12370 9527,12254 9435,12018 9397,11922 9394,11821 9420,11729 L 8567,12062 8867,12830 8867,12830 Z"/>
        </g>
       </g>
      </g>
      <g class="Graphic">
       <g id="id4">
        <rect class="BoundingBox" stroke="none" fill="none" x="1626" y="199" width="3475" height="3476"/>
        <defs>
         <clipPath id="clip_path_2" clipPathUnits="userSpaceOnUse">
          <path d="M 1804,200 L 1626,3495 4921,3673 5100,378 1804,200 Z"/>
         </clipPath>
        </defs>
        <g clip-path="url(#clip_path_2)">
         <path fill="rgb(0,0,0)" stroke="none" d="M 3146,3072 C 3149,3001 3168,2935 3198,2876 3210,2853 3209,2826 3196,2803 3183,2781 3160,2767 3134,2765 L 2708,2742 C 2580,2735 2482,2626 2489,2497 L 2514,2022 C 2516,1996 2504,1972 2484,1956 2463,1941 2436,1937 2412,1946 2351,1968 2286,1978 2217,1975 1939,1960 1725,1721 1740,1443 1755,1164 1993,951 2272,966 2340,970 2404,987 2462,1016 2485,1027 2513,1026 2535,1013 2557,1000 2571,977 2572,951 L 2598,476 C 2605,347 2715,249 2843,256 L 4865,366 C 4993,373 5091,482 5084,610 L 5059,1069 C 5058,1094 5045,1116 5024,1129 5004,1142 4978,1145 4955,1136 4908,1118 4858,1106 4805,1103 4526,1088 4288,1302 4273,1580 4258,1859 4471,2097 4750,2112 4803,2115 4855,2109 4903,2095 4927,2089 4952,2094 4971,2110 4990,2125 5001,2149 4999,2173 L 4975,2632 C 4968,2760 4858,2859 4730,2852 L 4199,2823 C 4173,2821 4148,2833 4133,2854 4118,2875 4114,2902 4123,2926 4146,2988 4158,3056 4154,3126 4139,3405 3901,3618 3623,3603 3344,3588 3130,3350 3146,3072 L 3146,3072 Z"/>
        </g>
       </g>
      </g>
      <g class="Graphic">
       <g id="id5">
        <rect class="BoundingBox" stroke="none" fill="none" x="4900" y="10800" width="3301" height="3301"/>
        <defs>
         <clipPath id="clip_path_3" clipPathUnits="userSpaceOnUse">
          <path d="M 4900,10800 L 8200,10800 8200,14100 4900,14100 4900,10800 Z"/>
         </clipPath>
        </defs>
        <g clip-path="url(#clip_path_3)">
         <path fill="rgb(0,0,0)" stroke="none" d="M 7901,13007 L 7736,13008 C 7707,13008 7679,13019 7659,13040 7610,13092 7543,13120 7472,13120 7329,13120 7212,13004 7212,12860 7212,12717 7328,12600 7472,12600 7542,12600 7609,12628 7658,12679 7679,12699 7707,12711 7736,12711 L 7900,12711 C 7928,12711 7956,12700 7976,12679 7996,12659 8007,12632 8007,12604 8007,12604 8007,12604 8007,12603 L 8006,11744 C 8006,11716 7994,11688 7974,11668 7954,11648 7927,11637 7898,11637 L 6956,11639 6758,11639 6758,11537 6758,11537 C 6758,11496 6774,11457 6804,11428 6875,11359 6915,11267 6915,11168 L 6915,11166 C 6914,10964 6751,10801 6550,10800 6349,10801 6186,10964 6185,11166 L 6185,11168 C 6185,11267 6225,11359 6296,11428 6326,11457 6342,11496 6342,11537 L 6342,11537 6342,11639 6144,11639 5202,11637 C 5173,11637 5146,11648 5126,11668 5106,11688 5094,11716 5094,11744 L 5093,12603 C 5093,12604 5093,12604 5093,12604 5093,12632 5104,12659 5124,12679 5144,12700 5172,12711 5200,12711 L 5364,12711 C 5394,12711 5421,12699 5442,12679 5491,12628 5558,12600 5629,12600 5772,12600 5888,12717 5888,12860 5888,13004 5771,13120 5628,13120 5557,13120 5490,13092 5441,13040 5421,13019 5393,13008 5364,13008 L 5199,13007 C 5140,13007 5092,13055 5092,13114 L 5093,13992 C 5093,13992 5093,13992 5093,13992 5093,14051 5141,14099 5200,14099 L 6295,14100 C 6323,14100 6351,14089 6371,14069 6391,14049 6402,14021 6402,13993 L 6402,13902 C 6402,13902 6402,13902 6402,13902 6402,13873 6391,13845 6370,13825 6319,13775 6291,13710 6291,13639 L 6291,13638 C 6291,13495 6407,13379 6550,13378 6693,13379 6809,13495 6809,13638 L 6809,13639 C 6809,13710 6781,13775 6730,13825 6709,13845 6698,13873 6698,13902 6698,13902 6698,13902 6698,13902 L 6698,13993 C 6698,14021 6709,14049 6729,14069 6749,14089 6777,14100 6805,14100 L 7900,14099 C 7959,14099 8007,14051 8007,13992 8007,13992 8007,13992 8007,13992 L 8008,13114 C 8008,13055 7960,13007 7901,13007 L 7901,13007 Z"/>
        </g>
       </g>
      </g>
      <g class="Graphic">
       <g id="id6">
        <rect class="BoundingBox" stroke="none" fill="none" x="7101" y="8201" width="3600" height="3600"/>
        <path fill="rgb(0,0,0)" stroke="none" d="M 7744,10504 C 7924,10324 8217,10324 8397,10504 8577,10684 8577,10977 8397,11157 8374,11181 8348,11201 8322,11218 L 8900,11797 9479,11218 C 9453,11201 9427,11181 9404,11157 9224,10977 9224,10684 9404,10504 9584,10324 9877,10324 10057,10504 10081,10527 10101,10553 10118,10579 L 10697,10000 10118,9422 C 10145,9404 10170,9384 10193,9361 10374,9180 10374,8888 10193,8708 10013,8527 9720,8527 9540,8708 9517,8731 9497,8756 9479,8783 L 8900,8204 8322,8783 C 8304,8756 8284,8731 8261,8708 8080,8527 7788,8527 7608,8708 7427,8888 7427,9180 7608,9361 7631,9384 7656,9404 7683,9422 L 7104,10000 7683,10579 C 7700,10553 7720,10527 7744,10504 L 7744,10504 Z"/>
       </g>
      </g>
      <g class="Group">
       <g class="com.sun.star.drawing.PolyPolygonShape">
        <g id="id7">
         <rect class="BoundingBox" stroke="none" fill="none" x="18049" y="3449" width="3403" height="3403"/>
         <path fill="none" stroke="rgb(0,0,0)" stroke-width="100" stroke-linejoin="miter" d="M 18688,5612 L 18720,5583 18754,5558 18790,5537 18828,5519 18867,5506 18907,5496 18947,5490 18988,5488 19028,5490 19069,5496 19108,5506 19147,5519 19185,5537 19221,5558 19255,5583 19288,5612 19317,5645 19342,5679 19363,5715 19381,5753 19394,5792 19404,5831 19410,5872 19412,5912 19410,5953 19404,5993 19394,6033 19381,6072 19363,6110 19342,6146 19317,6180 19288,6212 19280,6220 19271,6228 19254,6243 19237,6256 19219,6268 19750,6800 20281,6268 20263,6256 20246,6243 20229,6228 20220,6220 20212,6212 20183,6180 20158,6146 20137,6110 20119,6072 20106,6033 20096,5993 20090,5953 20088,5912 20090,5872 20096,5831 20106,5792 20119,5753 20137,5715 20158,5679 20183,5645 20212,5612 20245,5583 20279,5558 20315,5537 20353,5519 20392,5506 20431,5496 20472,5490 20512,5488 20553,5490 20593,5496 20633,5506 20672,5519 20710,5537 20746,5558 20780,5583 20812,5612 20820,5620 20828,5629 20843,5646 20856,5663 20868,5681 21400,5150 20868,4619 20886,4606 20904,4592 20921,4578 20937,4563 20966,4530 20992,4496 21013,4460 21031,4422 21044,4383 21054,4343 21060,4303 21062,4262 21060,4222 21054,4181 21044,4142 21031,4103 21013,4065 20992,4029 20966,3995 20937,3963 20905,3934 20871,3908 20835,3887 20797,3869 20758,3856 20718,3846 20678,3840 20637,3838 20597,3840 20556,3846 20516,3856 20478,3869 20440,3887 20404,3908 20370,3934 20337,3963 20322,3979 20308,3996 20294,4014 20281,4032 19750,3500 19219,4032 19206,4014 19192,3996 19178,3979 19163,3963 19130,3934 19096,3908 19060,3887 19022,3869 18983,3856 18943,3846 18903,3840 18862,3838 18822,3840 18781,3846 18742,3856 18703,3869 18665,3887 18629,3908 18595,3934 18563,3963 18534,3995 18508,4029 18487,4065 18469,4103 18456,4142 18446,4181 18440,4222 18438,4262 18440,4303 18446,4343 18456,4383 18469,4422 18487,4460 18508,4496 18534,4530 18563,4563 18579,4578 18596,4592 18614,4606 18632,4619 18100,5150 18632,5681 18644,5663 18657,5646 18672,5629 18680,5620 18688,5612 Z"/>
        </g>
       </g>
      </g>
      <g class="com.sun.star.drawing.PolyPolygonShape">
       <g id="id8">
        <rect class="BoundingBox" stroke="none" fill="none" x="21849" y="3785" width="2964" height="3166"/>
        <path fill="none" stroke="rgb(0,0,0)" stroke-width="100" stroke-linejoin="miter" d="M 23327,3836 L 23839,4422 23810,4426 23781,4433 23753,4443 23725,4455 23698,4469 23672,4486 23647,4505 23623,4527 23597,4557 23573,4588 23553,4622 23537,4657 23524,4693 23514,4730 23507,4768 23504,4807 23505,4845 23509,4884 23516,4921 23527,4958 23541,4995 23559,5029 23580,5063 23605,5094 23633,5122 23662,5147 23694,5169 23726,5186 23760,5201 23795,5211 23831,5218 23867,5221 23903,5221 23939,5216 23974,5209 24009,5197 24043,5182 24075,5163 24106,5140 24136,5113 24158,5090 24178,5064 24195,5038 24210,5010 24223,4981 24234,4951 24243,4921 24249,4890 24762,5476 24267,5969 24296,5976 24325,5985 24353,5997 24380,6011 24405,6027 24430,6046 24454,6067 24476,6091 24501,6122 24522,6155 24540,6190 24555,6226 24565,6263 24573,6301 24577,6339 24577,6378 24574,6416 24568,6454 24558,6491 24545,6528 24528,6563 24508,6596 24485,6628 24458,6657 24429,6684 24397,6707 24365,6726 24331,6741 24296,6752 24261,6760 24225,6764 24189,6765 24153,6762 24118,6755 24083,6744 24049,6730 24016,6713 23985,6691 23955,6666 23927,6638 23907,6612 23889,6586 23873,6558 23860,6529 23848,6499 23839,6469 23833,6438 23828,6408 23335,6900 23335,6900 22822,6314 22851,6309 22880,6302 22908,6293 22936,6281 22963,6266 22989,6249 23014,6230 23038,6208 23065,6179 23088,6147 23108,6114 23125,6079 23138,6042 23148,6005 23154,5967 23157,5929 23156,5890 23152,5852 23145,5814 23134,5777 23120,5741 23102,5706 23081,5672 23056,5641 23028,5612 22999,5588 22967,5566 22935,5549 22901,5535 22866,5524 22830,5518 22794,5514 22758,5515 22723,5519 22687,5527 22652,5539 22619,5554 22586,5573 22555,5596 22525,5623 22503,5646 22484,5672 22466,5698 22451,5726 22438,5754 22427,5784 22418,5814 22412,5845 21900,5259 22393,4766 22365,4760 22336,4750 22309,4739 22282,4725 22256,4709 22231,4690 22207,4669 22185,4645 22160,4614 22139,4581 22121,4546 22107,4510 22096,4472 22089,4435 22085,4396 22084,4358 22087,4319 22093,4282 22103,4244 22116,4208 22133,4173 22153,4140 22176,4108 22203,4079 22233,4052 22264,4030 22296,4010 22330,3995 22365,3984 22400,3976 22436,3971 22472,3971 22508,3974 22544,3981 22579,3991 22613,4005 22646,4023 22677,4044 22707,4069 22734,4098 22755,4123 22773,4150 22788,4178 22802,4206 22813,4236 22822,4266 22828,4297 22833,4329 23327,3836 23327,3836 Z"/>
       </g>
      </g>
      <g class="Graphic">
       <g id="id9">
        <rect class="BoundingBox" stroke="none" fill="none" x="-301" y="1900" width="4527" height="4527"/>
        <path fill="rgb(0,0,0)" stroke="none" d="M 1328,4966 C 1270,5022 1202,5061 1130,5083 L 1688,5658 2263,5099 C 2285,5172 2324,5240 2381,5298 2570,5492 2881,5497 3075,5308 3270,5119 3274,4808 3085,4613 3029,4555 2962,4514 2890,4490 L 3465,3931 2906,3356 C 2882,3428 2841,3495 2783,3552 2588,3741 2277,3736 2088,3542 1899,3347 1904,3036 2098,2847 2156,2791 2224,2752 2297,2730 L 1738,2155 -39,3882 520,4457 C 544,4385 585,4318 643,4261 838,4072 1149,4077 1338,4271 1527,4466 1523,4777 1328,4966 L 1328,4966 Z"/>
       </g>
      </g>
      <g class="com.sun.star.drawing.PolyPolygonShape">
       <g id="id10">
        <rect class="BoundingBox" stroke="none" fill="none" x="20150" y="6690" width="3430" height="3562"/>
        <path fill="none" stroke="rgb(0,0,0)" stroke-width="100" stroke-linejoin="miter" d="M 22990,8557 L 23017,8571 23042,8587 23066,8604 23089,8622 23111,8642 23131,8662 23149,8684 23167,8706 23529,7991 22813,7629 22836,7612 22858,7593 22878,7573 22897,7552 22916,7529 22933,7505 22948,7480 22963,7454 22983,7408 22999,7361 23009,7313 23015,7265 23016,7218 23012,7170 23004,7124 22991,7079 22974,7035 22954,6992 22928,6952 22900,6914 22867,6879 22830,6847 22790,6819 22746,6794 22701,6774 22654,6758 22606,6748 22559,6742 22511,6741 22464,6745 22417,6753 22372,6765 22328,6782 22286,6803 22246,6828 22208,6857 22173,6890 22141,6926 22112,6966 22087,7010 22074,7037 22063,7065 22054,7093 22046,7121 22041,7149 22037,7178 22034,7206 22034,7234 21319,6872 20956,7588 20985,7588 21013,7590 21042,7594 21070,7600 21098,7608 21127,7617 21154,7628 21182,7641 21225,7666 21265,7695 21302,7727 21335,7762 21363,7799 21388,7840 21409,7882 21426,7926 21439,7971 21447,8018 21451,8065 21450,8113 21444,8160 21434,8208 21418,8255 21398,8301 21373,8344 21344,8384 21312,8421 21277,8454 21239,8483 21199,8508 21157,8529 21113,8545 21067,8558 21021,8566 20974,8570 20926,8569 20878,8563 20831,8553 20784,8537 20738,8517 20712,8502 20686,8487 20662,8469 20640,8451 20618,8431 20598,8411 20579,8389 20562,8367 20200,9081 22410,10200 22772,9486 22743,9485 22715,9483 22686,9478 22658,9473 22630,9465 22602,9456 22574,9445 22547,9432 22503,9408 22463,9379 22427,9347 22394,9312 22365,9274 22340,9234 22319,9191 22302,9147 22290,9102 22282,9056 22278,9008 22279,8961 22285,8913 22295,8866 22310,8819 22331,8773 22356,8729 22384,8689 22416,8652 22452,8620 22489,8591 22530,8566 22572,8545 22616,8528 22661,8515 22708,8507 22755,8504 22803,8505 22850,8510 22898,8521 22944,8536 22990,8557 Z"/>
       </g>
      </g>
      <g class="com.sun.star.drawing.PolyPolygonShape">
       <g id="id11">
        <rect class="BoundingBox" stroke="none" fill="none" x="234" y="6949" width="8118" height="7818"/>
        <path fill="none" stroke="rgb(0,0,0)" stroke-width="100" stroke-linejoin="miter" d="M 2878,7000 L 2860,7046 2851,7070 2843,7095 2823,7163 2806,7233 2794,7304 2787,7375 2787,7444 2790,7478 2795,7511 2801,7544 2810,7576 2821,7606 2835,7635 2840,7646 2845,7653 2850,7661 2855,7669 2888,7644 2927,7618 2971,7593 3020,7571 3075,7551 3104,7543 3135,7537 3167,7532 3200,7528 3235,7526 3272,7527 3303,7528 3333,7532 3362,7538 3390,7545 3418,7554 3444,7565 3470,7578 3495,7591 3518,7606 3541,7622 3563,7640 3583,7658 3602,7677 3620,7697 3637,7718 3653,7739 3680,7783 3704,7829 3724,7877 3741,7925 3754,7975 3765,8026 3771,8077 3775,8128 3777,8179 3775,8230 3771,8281 3763,8331 3752,8381 3738,8429 3721,8476 3700,8522 3674,8567 3645,8609 3628,8629 3610,8649 3591,8667 3571,8685 3550,8701 3527,8716 3504,8730 3480,8742 3454,8752 3427,8761 3400,8768 3371,8773 3324,8778 3279,8779 3236,8777 3194,8772 3154,8764 3116,8754 3080,8743 3046,8730 2983,8701 2927,8670 2841,8616 2836,8613 2831,8611 2823,8607 2817,8605 2814,8603 2811,8601 2804,8611 2803,8614 2801,8618 2798,8623 2795,8629 2794,8631 2794,8633 2792,8640 2790,8659 2789,8686 2789,8720 2791,8761 2796,8808 2804,8859 2816,8914 2838,9000 2850,9045 2865,9091 3122,9092 3247,9098 3368,9108 3485,9123 3596,9143 3700,9168 3796,9200 3882,9233 3921,9251 3956,9270 3988,9291 4003,9302 4018,9314 4031,9327 4044,9340 4057,9355 4069,9370 4079,9386 4088,9403 4095,9420 4101,9437 4105,9455 4108,9473 4110,9490 4111,9508 4111,9525 4110,9542 4105,9574 4098,9603 4089,9629 4018,9795 4005,9837 4001,9859 3997,9882 3995,9906 3995,9932 3995,9960 3998,9989 4002,10010 4004,10020 4007,10028 4009,10036 4012,10043 4016,10049 4020,10055 4024,10061 4029,10066 4034,10070 4039,10075 4045,10079 4051,10083 4065,10091 4073,10095 4082,10098 4101,10105 4122,10110 4144,10114 4169,10116 4194,10117 4221,10115 4249,10112 4276,10108 4304,10101 4330,10094 4356,10084 4381,10073 4405,10061 4427,10048 4449,10034 4468,10019 4486,10003 4502,9986 4516,9968 4528,9950 4537,9932 4544,9913 4548,9895 4554,9847 4555,9828 4556,9811 4554,9796 4552,9783 4549,9772 4545,9762 4540,9753 4534,9744 4527,9736 4520,9728 4482,9687 4459,9656 4453,9646 4446,9635 4440,9622 4434,9608 4432,9600 4429,9591 4427,9582 4426,9573 4425,9552 4426,9532 4428,9511 4433,9491 4435,9481 4439,9472 4443,9463 4447,9454 4456,9438 4466,9424 4476,9411 4486,9399 4497,9388 4508,9377 4520,9368 4532,9359 4558,9343 4586,9327 4651,9293 4679,9280 4707,9268 4736,9259 4765,9251 4795,9246 4825,9241 4886,9237 4948,9237 5012,9242 5145,9259 5241,9276 5340,9296 5546,9343 5491,9125 5468,9018 5450,8914 5440,8846 5432,8780 5429,8714 5429,8651 5435,8589 5440,8559 5447,8529 5456,8499 5467,8470 5479,8442 5494,8413 5537,8346 5557,8317 5568,8304 5579,8291 5590,8278 5602,8266 5615,8253 5630,8241 5638,8236 5647,8230 5656,8225 5666,8221 5676,8216 5687,8212 5699,8209 5712,8206 5725,8204 5738,8203 5751,8203 5764,8204 5776,8205 5789,8208 5801,8211 5813,8214 5824,8219 5834,8223 5854,8233 5863,8238 5870,8244 5877,8249 5884,8254 5895,8264 5904,8274 5913,8283 5920,8292 5926,8301 5932,8309 5942,8324 5962,8351 5980,8374 5988,8384 5996,8392 6004,8400 6008,8403 6012,8405 6019,8410 6027,8415 6031,8417 6035,8419 6040,8421 6045,8422 6050,8423 6056,8424 6063,8425 6071,8425 6088,8424 6110,8422 6117,8420 6125,8419 6133,8416 6141,8413 6148,8410 6156,8406 6163,8401 6171,8396 6178,8390 6186,8384 6201,8369 6215,8351 6229,8330 6243,8307 6256,8282 6267,8255 6277,8226 6285,8197 6292,8166 6296,8135 6299,8103 6300,8073 6298,8042 6295,8013 6290,7985 6284,7959 6276,7935 6266,7913 6261,7903 6256,7894 6245,7878 6234,7864 6229,7858 6223,7852 6217,7847 6210,7842 6203,7838 6196,7835 6188,7832 6179,7829 6169,7827 6159,7825 6136,7823 6106,7822 6080,7823 6058,7825 6040,7828 6024,7833 6012,7837 6002,7842 5993,7847 5986,7851 5980,7856 5974,7861 5969,7867 5964,7874 5959,7881 5948,7899 5931,7926 5924,7935 5914,7945 5900,7956 5883,7969 5877,7972 5871,7975 5857,7981 5842,7987 5825,7991 5807,7994 5790,7996 5781,7996 5772,7996 5763,7995 5755,7994 5738,7990 5723,7984 5710,7979 5698,7972 5688,7965 5679,7959 5672,7952 5665,7945 5643,7922 5625,7900 5610,7878 5596,7855 5538,7734 5516,7686 5497,7638 5481,7590 5468,7542 5450,7446 5440,7350 5439,7257 5445,7167 5456,7081 5471,7000 2878,7000 Z"/>
        <path fill="none" stroke="rgb(0,0,0)" stroke-width="100" stroke-linejoin="miter" d="M 5793,7000 L 5777,7069 5764,7143 5755,7221 5751,7300 5753,7380 5757,7419 5763,7459 5771,7497 5782,7535 5795,7572 5811,7608 5812,7608 5812,7609 5813,7610 5813,7610 5814,7613 5821,7607 5824,7605 5826,7604 5828,7603 5859,7585 5893,7570 5930,7557 5969,7546 6011,7538 6056,7533 6103,7531 6153,7532 6183,7534 6212,7539 6240,7545 6268,7553 6294,7562 6320,7573 6345,7586 6368,7599 6391,7614 6413,7630 6433,7647 6453,7665 6471,7684 6487,7704 6503,7724 6517,7745 6541,7789 6561,7834 6577,7880 6589,7927 6597,7975 6602,8023 6603,8071 6601,8120 6597,8168 6590,8216 6580,8263 6568,8310 6552,8356 6533,8401 6511,8444 6486,8486 6458,8526 6425,8564 6389,8600 6369,8616 6349,8632 6328,8646 6305,8659 6282,8671 6258,8682 6233,8692 6207,8699 6181,8706 6153,8710 6106,8714 6060,8714 6016,8710 5974,8703 5934,8692 5896,8678 5862,8661 5846,8652 5831,8642 5820,8633 5809,8625 5789,8607 5771,8589 5755,8570 5751,8580 5748,8591 5743,8617 5739,8648 5737,8684 5737,8725 5738,8770 5742,8819 5749,8872 5772,8998 5804,9133 5880,9423 5880,9424 5880,9424 5880,9425 5880,9425 5881,9425 5881,9425 5881,9426 5881,9426 5881,9426 5881,9426 5881,9426 5881,9426 5882,9426 5882,9426 5882,9426 5882,9427 5883,9427 6098,9478 6201,9499 6299,9516 6362,9524 6422,9530 6478,9533 6529,9534 6575,9533 6616,9529 6652,9524 6667,9520 6680,9516 6692,9512 6702,9508 6710,9504 6717,9501 6724,9498 6729,9494 6739,9488 6739,9487 6739,9487 6739,9486 6739,9486 6739,9486 6739,9486 6738,9486 6738,9486 6738,9485 6738,9485 6673,9400 6635,9345 6597,9280 6579,9245 6563,9207 6548,9167 6536,9125 6527,9081 6521,9034 6519,8986 6520,8935 6524,8906 6529,8877 6537,8850 6547,8823 6558,8798 6572,8773 6587,8749 6603,8727 6621,8706 6640,8686 6660,8667 6682,8650 6704,8635 6727,8621 6750,8609 6774,8598 6799,8589 6824,8581 6850,8574 6875,8569 6901,8564 6926,8560 6952,8558 6978,8556 7031,8555 7084,8557 7137,8562 7164,8566 7190,8570 7242,8581 7294,8594 7346,8610 7396,8628 7445,8649 7493,8673 7540,8699 7584,8728 7627,8759 7668,8793 7705,8830 7738,8871 7754,8892 7768,8914 7780,8937 7792,8961 7801,8986 7810,9012 7816,9038 7821,9065 7826,9106 7827,9146 7825,9184 7821,9220 7814,9255 7805,9288 7794,9319 7781,9348 7768,9376 7753,9402 7723,9449 7693,9489 7666,9522 7669,9525 7689,9533 7711,9539 7737,9544 7764,9547 7825,9549 7891,9546 7963,9538 8036,9525 8111,9509 8184,9488 8214,9479 8243,9469 8300,9449 8300,7000 5793,7000 Z"/>
        <path fill="none" stroke="rgb(0,0,0)" stroke-width="100" stroke-linejoin="miter" d="M 6890,8867 L 6873,8875 6859,8882 6853,8886 6848,8889 6843,8893 6839,8898 6836,8902 6833,8908 6830,8913 6828,8920 6826,8927 6825,8935 6823,8954 6822,8983 6823,9010 6826,9036 6831,9060 6838,9084 6846,9107 6856,9129 6867,9150 6893,9192 6922,9232 6985,9316 7001,9338 7017,9362 7025,9375 7032,9388 7039,9402 7046,9416 7052,9433 7058,9451 7062,9471 7064,9491 7065,9513 7064,9534 7061,9556 7059,9567 7056,9578 7047,9600 7038,9620 7026,9638 7014,9655 7001,9671 6986,9685 6970,9699 6953,9711 6935,9723 6916,9734 6875,9754 6831,9772 6785,9789 6754,9799 6723,9808 6660,9820 6596,9827 6530,9829 6462,9828 6393,9822 6250,9804 6109,9779 6037,9764 5965,9747 5995,9883 6009,9950 6020,10017 6030,10087 6038,10155 6042,10222 6043,10288 6038,10352 6028,10415 6021,10446 6012,10476 6001,10506 5988,10535 5954,10611 5938,10643 5922,10672 5913,10686 5903,10699 5893,10711 5882,10724 5869,10736 5855,10747 5840,10759 5823,10770 5814,10775 5803,10780 5792,10784 5781,10787 5769,10790 5756,10792 5731,10795 5705,10796 5693,10795 5681,10794 5669,10792 5658,10789 5648,10786 5638,10783 5622,10775 5607,10767 5595,10759 5585,10751 5576,10743 5568,10736 5554,10721 5508,10673 5486,10653 5475,10644 5462,10636 5449,10629 5434,10623 5417,10618 5398,10615 5376,10612 5352,10610 5294,10611 5273,10613 5263,10614 5255,10616 5247,10619 5240,10621 5233,10624 5227,10628 5222,10632 5217,10637 5212,10642 5207,10648 5198,10662 5188,10679 5184,10688 5179,10698 5172,10721 5165,10745 5161,10772 5157,10801 5156,10831 5156,10863 5158,10894 5163,10927 5169,10960 5177,10992 5187,11022 5198,11051 5210,11078 5223,11103 5237,11125 5251,11145 5264,11160 5270,11166 5276,11172 5282,11177 5288,11181 5293,11184 5298,11187 5303,11190 5308,11191 5313,11193 5317,11194 5322,11194 5326,11194 5347,11194 5368,11192 5387,11190 5406,11186 5424,11181 5441,11175 5475,11161 5619,11086 5642,11075 5667,11064 5696,11055 5711,11051 5726,11048 5742,11046 5759,11044 5776,11044 5793,11044 5811,11046 5829,11049 5847,11054 5865,11060 5883,11067 5899,11076 5915,11085 5930,11095 5943,11106 5956,11117 5969,11130 5981,11143 6003,11171 6023,11201 6042,11234 6061,11269 6089,11334 6114,11404 6134,11479 6152,11560 6165,11644 6176,11733 6190,11919 6196,11918 6202,11918 6214,11916 6238,11911 6377,11892 6444,11886 6510,11884 6575,11885 6639,11892 6701,11904 6732,11912 6762,11922 6808,11939 6849,11956 6868,11965 6886,11975 6904,11984 6921,11995 6938,12007 6954,12020 6971,12035 6986,12052 7000,12070 7006,12080 7012,12090 7017,12101 7022,12112 7026,12124 7029,12137 7031,12149 7033,12162 7033,12174 7033,12186 7032,12197 7030,12209 7028,12220 7026,12230 7019,12251 7011,12269 7003,12285 6994,12300 6985,12313 6976,12326 6967,12337 6957,12347 6921,12384 6854,12448 6825,12479 6812,12494 6800,12509 6790,12525 6781,12542 6773,12559 6768,12577 6764,12596 6762,12616 6762,12638 6764,12661 6766,12670 6768,12678 6771,12687 6774,12695 6778,12703 6783,12711 6788,12719 6795,12728 6802,12735 6809,12743 6818,12751 6827,12759 6849,12774 6874,12789 6902,12805 6933,12819 6967,12831 7002,12843 7039,12852 7078,12860 7117,12866 7157,12870 7196,12872 7235,12873 7273,12871 7310,12867 7345,12862 7377,12855 7407,12846 7434,12837 7457,12826 7475,12816 7483,12812 7490,12807 7496,12802 7502,12797 7506,12792 7510,12787 7514,12781 7517,12776 7519,12770 7521,12765 7523,12759 7524,12752 7526,12731 7527,12710 7525,12691 7522,12672 7517,12653 7511,12636 7504,12618 7495,12601 7473,12567 7448,12532 7387,12456 7354,12411 7337,12386 7321,12358 7315,12343 7308,12327 7303,12311 7299,12294 7296,12276 7294,12258 7293,12238 7294,12218 7297,12197 7302,12177 7308,12158 7316,12139 7325,12121 7336,12104 7348,12087 7362,12071 7376,12056 7392,12041 7427,12013 7465,11987 7506,11963 7553,11940 7601,11921 7650,11905 7700,11894 7750,11886 7800,11881 7850,11880 7900,11881 7998,11889 8095,11906 8187,11928 8274,11953 8278,11954 8281,11955 8284,11956 8287,11957 8294,11959 8297,11960 8300,11961 8300,9758 8297,9760 8294,9761 8288,9763 8283,9764 8277,9766 8191,9792 8102,9815 8009,9833 7915,9845 7867,9848 7819,9848 7771,9846 7723,9841 7676,9833 7628,9821 7582,9805 7535,9786 7500,9769 7468,9751 7452,9742 7438,9732 7423,9721 7410,9710 7396,9697 7382,9683 7370,9668 7358,9652 7348,9634 7339,9615 7332,9595 7329,9584 7326,9573 7325,9563 7325,9552 7324,9542 7325,9531 7327,9512 7331,9493 7337,9475 7343,9459 7350,9445 7357,9432 7372,9409 7387,9389 7414,9355 7465,9300 7486,9275 7495,9262 7503,9249 7510,9235 7516,9221 7521,9206 7524,9189 7526,9171 7526,9152 7525,9131 7522,9107 7520,9100 7519,9092 7516,9084 7512,9076 7508,9067 7503,9058 7498,9049 7491,9040 7476,9022 7457,9003 7435,8984 7410,8965 7381,8947 7350,8930 7317,8914 7282,8899 7246,8886 7209,8875 7172,8865 7134,8858 7107,8853 7080,8850 7053,8848 7027,8848 7006,8848 6987,8849 6968,8851 6950,8853 6933,8856 6917,8859 6903,8863 6890,8867 Z"/>
        <path fill="none" stroke="rgb(0,0,0)" stroke-width="100" stroke-linejoin="miter" d="M 2957,9382 L 2979,9449 3070,9742 3109,9887 3141,10028 3153,10097 3162,10164 3167,10231 3168,10296 3163,10360 3158,10391 3152,10422 3144,10452 3133,10482 3121,10512 3107,10541 3086,10581 3064,10616 3053,10632 3042,10648 3018,10678 3004,10692 2989,10706 2972,10719 2953,10732 2942,10737 2932,10742 2920,10747 2909,10751 2896,10754 2883,10757 2870,10759 2856,10760 2842,10760 2829,10759 2817,10758 2804,10755 2793,10752 2781,10749 2770,10745 2760,10740 2741,10730 2724,10718 2709,10707 2696,10695 2676,10675 2660,10656 2645,10638 2632,10619 2605,10584 2579,10553 2566,10538 2554,10526 2541,10514 2528,10504 2515,10495 2503,10487 2496,10484 2489,10481 2482,10478 2474,10475 2466,10473 2457,10472 2448,10470 2438,10470 2416,10470 2390,10472 2380,10473 2371,10475 2362,10478 2353,10481 2344,10485 2335,10489 2327,10494 2319,10500 2311,10506 2302,10513 2294,10521 2286,10529 2271,10549 2255,10572 2240,10599 2227,10629 2215,10661 2205,10695 2196,10730 2188,10767 2183,10805 2179,10843 2178,10881 2180,10919 2183,10956 2188,10992 2195,11026 2203,11057 2213,11087 2225,11113 2237,11136 2249,11155 2255,11164 2261,11171 2267,11178 2273,11183 2279,11189 2285,11193 2292,11197 2299,11200 2305,11203 2312,11205 2320,11206 2327,11208 2352,11210 2375,11211 2398,11210 2419,11207 2440,11203 2460,11197 2479,11190 2498,11181 2536,11161 2573,11138 2655,11082 2700,11052 2726,11037 2754,11023 2769,11017 2785,11011 2801,11006 2819,11002 2837,11000 2856,10998 2876,10997 2897,10998 2918,11001 2938,11005 2958,11011 2977,11018 2995,11027 3013,11037 3030,11048 3047,11061 3063,11075 3078,11090 3107,11122 3132,11157 3156,11194 3170,11222 3182,11250 3192,11278 3200,11307 3206,11336 3211,11365 3215,11425 3213,11486 3207,11549 3188,11680 3160,11816 3125,11958 3045,12251 3035,12283 3251,12266 3352,12253 3448,12237 3535,12220 3614,12200 3683,12179 3712,12168 3739,12156 3739,12156 3740,12156 3740,12156 3740,12156 3740,12156 3740,12156 3740,12156 3740,12156 3740,12156 3740,12156 3740,12156 3740,12156 3740,12156 3740,12156 3740,12155 3740,12155 3740,12154 3723,12125 3707,12094 3694,12060 3684,12023 3676,11984 3671,11942 3669,11898 3670,11851 3672,11822 3676,11794 3682,11767 3689,11740 3699,11714 3709,11689 3721,11665 3735,11642 3749,11619 3765,11598 3782,11578 3800,11559 3819,11540 3839,11523 3859,11508 3880,11493 3923,11467 3968,11445 4014,11426 4062,11412 4110,11400 4159,11392 4208,11386 4257,11383 4306,11383 4355,11384 4403,11389 4451,11396 4498,11407 4543,11420 4587,11437 4629,11457 4651,11469 4671,11481 4691,11495 4711,11511 4729,11527 4747,11544 4763,11563 4779,11582 4793,11602 4806,11624 4817,11646 4827,11669 4834,11693 4840,11718 4844,11744 4846,11770 4844,11830 4837,11886 4826,11937 4811,11983 4795,12023 4778,12059 4761,12088 4747,12112 4761,12122 4778,12134 4799,12147 4825,12160 4832,12163 4840,12167 4851,12170 4863,12172 4893,12177 4928,12179 4969,12180 5015,12179 5066,12175 5121,12167 5241,12146 5372,12117 5654,12045 5887,11986 5873,11795 5862,11707 5850,11626 5836,11553 5821,11490 5805,11438 5796,11416 5788,11397 5783,11387 5778,11378 5774,11371 5770,11365 5766,11359 5762,11355 5756,11347 5692,11383 5648,11406 5597,11430 5539,11452 5507,11462 5474,11471 5438,11478 5401,11483 5362,11486 5322,11487 5294,11485 5267,11482 5241,11476 5215,11469 5191,11460 5167,11450 5145,11438 5123,11425 5102,11410 5082,11395 5063,11378 5045,11361 5012,11324 4982,11286 4957,11245 4935,11203 4915,11159 4898,11114 4884,11068 4872,11021 4863,10973 4857,10925 4853,10877 4851,10828 4853,10779 4858,10731 4867,10683 4880,10636 4897,10590 4918,10544 4931,10522 4946,10501 4962,10480 4979,10461 4998,10442 5018,10424 5039,10407 5061,10391 5085,10377 5110,10364 5136,10352 5162,10342 5190,10334 5218,10327 5248,10322 5278,10320 5314,10319 5348,10320 5381,10322 5413,10327 5444,10333 5473,10340 5527,10358 5576,10379 5620,10402 5658,10427 5692,10451 5694,10446 5697,10441 5699,10437 5702,10433 5708,10425 5711,10419 5714,10413 5718,10402 5722,10389 5729,10358 5734,10321 5736,10278 5737,10230 5734,10177 5729,10120 5720,10060 5704,9968 5684,9871 5633,9666 5349,9597 5218,9569 5098,9548 5041,9540 4988,9536 4940,9534 4898,9535 4862,9537 4832,9540 4820,9543 4810,9545 4802,9547 4796,9550 4791,9553 4787,9555 4780,9560 4773,9564 4766,9569 4784,9599 4803,9634 4820,9674 4835,9718 4846,9767 4850,9793 4853,9820 4854,9847 4854,9876 4852,9906 4848,9937 4838,9987 4822,10035 4803,10079 4778,10121 4751,10160 4719,10196 4685,10230 4647,10260 4607,10288 4566,10313 4522,10334 4477,10354 4431,10370 4384,10383 4337,10394 4290,10402 4244,10407 4196,10409 4149,10407 4102,10403 4055,10395 4009,10383 3964,10367 3920,10347 3899,10335 3879,10322 3859,10307 3840,10291 3821,10274 3804,10256 3787,10236 3772,10216 3758,10195 3745,10172 3733,10149 3723,10125 3714,10100 3706,10074 3700,10048 3696,10021 3693,9975 3692,9930 3694,9888 3698,9847 3712,9771 3731,9704 3752,9645 3773,9596 3792,9556 3804,9527 3799,9524 3791,9519 3782,9513 3770,9507 3754,9499 3736,9491 3688,9472 3626,9452 3553,9435 3471,9420 3381,9407 3285,9397 3182,9389 2967,9382 2957,9382 Z"/>
        <path fill="none" stroke="rgb(0,0,0)" stroke-width="100" stroke-linejoin="miter" d="M 1919,9545 L 1908,9551 1899,9556 1891,9561 1884,9566 1878,9570 1873,9574 1864,9582 1911,9646 1939,9690 1968,9741 1982,9770 1994,9801 2005,9833 2014,9868 2021,9904 2025,9942 2026,9981 2024,10023 2021,10049 2016,10074 2008,10099 1999,10122 1988,10145 1975,10166 1961,10187 1946,10206 1929,10225 1911,10242 1892,10259 1873,10274 1852,10287 1832,10300 1810,10311 1789,10321 1744,10338 1699,10351 1653,10361 1606,10368 1559,10372 1510,10373 1462,10371 1413,10367 1365,10359 1317,10350 1269,10337 1222,10322 1175,10304 1130,10284 1086,10260 1044,10233 1004,10203 966,10169 931,10131 900,10089 886,10067 873,10045 861,10021 851,9997 842,9972 834,9946 828,9919 823,9892 819,9844 819,9798 823,9754 831,9713 841,9674 855,9637 871,9603 890,9572 897,9562 905,9551 921,9533 936,9516 951,9500 950,9500 949,9499 948,9499 946,9497 916,9484 885,9473 853,9464 819,9457 784,9451 749,9448 676,9445 601,9449 526,9458 452,9471 380,9488 355,9495 331,9501 308,9508 285,9516 285,12210 308,12218 331,12225 355,12232 380,12238 452,12255 526,12269 601,12278 675,12282 749,12280 784,12276 819,12271 853,12264 886,12254 918,12243 948,12230 968,12220 983,12211 1008,12195 983,12163 955,12124 927,12078 901,12025 889,11996 879,11965 870,11932 863,11897 859,11861 856,11823 857,11783 860,11741 864,11713 870,11686 877,11660 887,11634 897,11610 910,11586 923,11563 938,11541 954,11520 971,11500 990,11481 1009,11463 1028,11446 1049,11431 1070,11416 1092,11403 1137,11379 1184,11359 1231,11343 1280,11330 1329,11320 1379,11313 1429,11309 1479,11308 1530,11309 1580,11313 1629,11320 1678,11330 1726,11342 1773,11358 1819,11377 1863,11398 1905,11424 1946,11453 1965,11470 1983,11487 2000,11505 2017,11525 2032,11545 2046,11566 2059,11588 2070,11611 2080,11635 2089,11660 2095,11685 2100,11712 2104,11750 2104,11787 2102,11823 2097,11857 2091,11890 2082,11921 2071,11950 2059,11978 2033,12028 2004,12072 1976,12109 1951,12140 1957,12144 1962,12148 1970,12153 1981,12159 2003,12170 2030,12181 2096,12202 2176,12222 2269,12240 2372,12256 2482,12269 2599,12279 2720,12285 2752,12176 2831,11886 2863,11753 2888,11630 2896,11574 2901,11522 2904,11475 2904,11433 2902,11398 2899,11370 2897,11358 2895,11349 2893,11341 2890,11336 2881,11321 2875,11311 2867,11300 2860,11304 2851,11309 2840,11314 2827,11322 2739,11382 2682,11415 2618,11447 2583,11461 2546,11474 2507,11485 2466,11493 2423,11499 2378,11502 2332,11501 2283,11496 2254,11491 2226,11484 2199,11475 2173,11464 2149,11451 2125,11437 2102,11422 2081,11405 2060,11386 2041,11367 2023,11347 2006,11326 1976,11282 1951,11236 1930,11189 1913,11140 1899,11090 1888,11039 1881,10987 1877,10934 1876,10882 1878,10829 1882,10776 1889,10723 1898,10670 1911,10618 1927,10568 1946,10518 1968,10470 1994,10424 2024,10380 2059,10338 2078,10318 2099,10299 2120,10281 2143,10264 2166,10249 2191,10234 2216,10222 2243,10210 2270,10201 2299,10193 2328,10186 2358,10182 2411,10179 2461,10181 2510,10187 2556,10197 2599,10211 2640,10228 2677,10248 2710,10270 2732,10286 2752,10303 2770,10319 2786,10336 2802,10353 2816,10369 2841,10401 2845,10391 2848,10379 2854,10351 2858,10318 2860,10279 2860,10235 2857,10188 2851,10135 2841,10079 2814,9955 2778,9821 2690,9536 2643,9396 2525,9407 2412,9421 2305,9438 2205,9457 2114,9478 2035,9500 1970,9522 1942,9533 1919,9545 Z"/>
        <path fill="none" stroke="rgb(0,0,0)" stroke-width="100" stroke-linejoin="miter" d="M 1248,11652 L 1229,11664 1212,11676 1205,11683 1198,11689 1192,11696 1186,11703 1181,11710 1176,11717 1173,11725 1169,11734 1166,11742 1164,11752 1162,11762 1160,11772 1158,11800 1157,11825 1158,11848 1161,11869 1165,11888 1170,11905 1176,11921 1183,11936 1192,11950 1201,11964 1223,11990 1274,12049 1288,12067 1295,12077 1302,12087 1309,12098 1317,12111 1323,12125 1330,12140 1333,12148 1335,12156 1339,12175 1342,12195 1343,12216 1341,12238 1338,12259 1336,12269 1333,12280 1329,12290 1325,12300 1316,12318 1306,12335 1295,12351 1283,12365 1271,12379 1258,12391 1244,12403 1230,12414 1198,12434 1163,12453 1084,12493 1033,12514 983,12533 931,12547 880,12559 829,12567 777,12572 675,12576 575,12571 478,12559 386,12541 299,12520 297,12520 296,12519 292,12518 289,12517 285,12515 285,14715 2580,14715 2565,14642 2555,14565 2551,14485 2553,14403 2564,14319 2573,14277 2584,14235 2597,14193 2614,14152 2633,14110 2656,14069 2693,14006 2709,13979 2726,13955 2743,13932 2762,13911 2784,13891 2809,13872 2816,13868 2824,13863 2841,13854 2860,13847 2881,13841 2903,13837 2914,13835 2925,13834 2936,13834 2946,13835 2957,13836 2967,13838 2986,13843 3003,13849 3017,13855 3030,13862 3041,13869 3050,13876 3058,13883 3065,13889 3102,13921 3108,13926 3114,13930 3120,13934 3127,13937 3134,13940 3143,13943 3153,13946 3164,13948 3178,13949 3195,13949 3215,13948 3239,13946 3244,13945 3250,13944 3255,13942 3261,13940 3268,13937 3274,13933 3281,13928 3288,13923 3295,13917 3302,13910 3317,13894 3332,13874 3348,13850 3363,13822 3377,13792 3390,13760 3402,13726 3412,13691 3420,13654 3427,13616 3431,13579 3433,13542 3432,13506 3430,13471 3426,13437 3420,13405 3413,13376 3404,13349 3394,13326 3383,13307 3373,13290 3368,13283 3362,13277 3357,13272 3351,13267 3345,13263 3338,13259 3331,13256 3323,13254 3315,13252 3306,13250 3286,13248 3259,13247 3235,13249 3225,13250 3215,13252 3206,13254 3197,13256 3189,13259 3181,13262 3174,13266 3167,13270 3154,13278 3141,13287 3128,13298 3116,13309 3105,13322 3094,13336 3083,13351 3072,13367 3051,13400 3029,13434 3016,13453 3008,13462 2999,13473 2994,13479 2989,13485 2983,13491 2977,13497 2969,13504 2960,13510 2951,13516 2939,13522 2933,13525 2927,13528 2912,13534 2897,13538 2880,13541 2863,13543 2845,13543 2837,13543 2828,13542 2820,13541 2811,13539 2795,13534 2781,13529 2768,13524 2756,13518 2745,13511 2735,13504 2727,13497 2719,13489 2712,13482 2706,13474 2695,13458 2678,13428 2662,13398 2646,13365 2631,13329 2614,13288 2603,13259 2595,13229 2582,13167 2575,13104 2573,13040 2576,12974 2582,12906 2603,12767 2644,12576 2525,12570 2410,12561 2299,12548 2192,12531 2092,12509 1998,12483 1911,12451 1871,12434 1832,12415 1795,12394 1761,12374 1729,12353 1701,12330 1688,12318 1675,12305 1664,12291 1654,12276 1645,12261 1636,12244 1629,12226 1623,12206 1621,12196 1619,12186 1617,12166 1618,12146 1619,12126 1623,12107 1628,12089 1634,12073 1640,12058 1647,12045 1654,12033 1661,12022 1668,12012 1696,11977 1745,11924 1765,11901 1773,11890 1781,11878 1787,11866 1793,11853 1797,11839 1800,11824 1802,11808 1802,11790 1802,11770 1799,11748 1798,11742 1797,11736 1795,11730 1792,11724 1789,11718 1786,11712 1782,11706 1777,11700 1772,11694 1766,11688 1759,11682 1752,11676 1735,11665 1715,11653 1685,11641 1654,11630 1624,11621 1594,11614 1564,11608 1535,11603 1506,11601 1478,11600 1445,11601 1413,11603 1381,11608 1350,11614 1322,11621 1295,11630 1270,11640 1248,11652 Z"/>
        <path fill="none" stroke="rgb(0,0,0)" stroke-width="100" stroke-linejoin="miter" d="M 7855,12177 L 7826,12177 7798,12179 7771,12182 7745,12187 7720,12192 7696,12199 7674,12208 7654,12218 7636,12228 7623,12236 7615,12242 7608,12246 7610,12250 7612,12253 7616,12261 7621,12270 7625,12276 7629,12282 7694,12364 7731,12416 7767,12477 7783,12510 7797,12545 7809,12582 7819,12621 7826,12661 7829,12704 7828,12748 7823,12794 7818,12822 7811,12849 7801,12875 7790,12899 7777,12923 7762,12945 7746,12967 7728,12987 7709,13006 7689,13024 7668,13041 7646,13056 7623,13070 7600,13083 7552,13106 7503,13123 7452,13138 7401,13149 7348,13157 7294,13162 7240,13164 7186,13164 7131,13161 7077,13155 7023,13147 6970,13137 6917,13123 6865,13107 6814,13088 6765,13066 6717,13041 6672,13012 6629,12979 6589,12942 6570,12922 6552,12901 6536,12879 6521,12856 6507,12832 6495,12808 6485,12782 6476,12756 6470,12728 6465,12700 6460,12655 6460,12612 6464,12570 6470,12531 6480,12493 6493,12458 6508,12424 6524,12392 6542,12363 6561,12335 6602,12284 6641,12241 6678,12204 6673,12202 6669,12201 6658,12196 6645,12192 6630,12189 6596,12183 6556,12180 6511,12179 6461,12180 6407,12184 6349,12190 6288,12199 6194,12216 6181,12478 6169,12607 6153,12732 6133,12851 6108,12965 6078,13071 6044,13167 6007,13252 5988,13289 5967,13324 5956,13340 5944,13355 5931,13369 5917,13382 5903,13395 5887,13407 5870,13418 5852,13428 5832,13437 5811,13444 5790,13449 5769,13453 5748,13455 5727,13456 5707,13455 5688,13452 5671,13448 5655,13444 5640,13439 5626,13434 5612,13428 5599,13422 5574,13410 5485,13362 5442,13339 5399,13318 5353,13301 5329,13294 5304,13288 5277,13283 5248,13280 5218,13279 5186,13279 5165,13280 5157,13281 5149,13282 5143,13284 5137,13286 5131,13288 5127,13291 5123,13294 5119,13298 5116,13303 5112,13308 5106,13320 5099,13335 5095,13344 5092,13354 5087,13377 5083,13402 5081,13430 5080,13461 5081,13492 5085,13526 5090,13559 5098,13594 5107,13628 5118,13661 5131,13694 5145,13725 5161,13754 5177,13781 5195,13806 5212,13827 5228,13844 5244,13858 5258,13868 5265,13873 5271,13876 5277,13879 5283,13882 5288,13884 5293,13885 5297,13886 5301,13887 5321,13887 5339,13886 5355,13884 5369,13881 5382,13877 5393,13873 5404,13867 5414,13861 5424,13854 5433,13846 5454,13828 5477,13807 5505,13783 5522,13769 5531,13762 5542,13754 5554,13747 5567,13740 5582,13733 5599,13728 5608,13725 5617,13723 5627,13721 5637,13720 5658,13720 5680,13721 5701,13724 5722,13728 5731,13731 5741,13735 5750,13739 5759,13743 5776,13752 5791,13761 5805,13771 5819,13781 5831,13792 5843,13803 5864,13828 5884,13855 5904,13885 5944,13953 5969,13998 5989,14044 6006,14091 6019,14138 6029,14185 6036,14233 6043,14328 6040,14422 6031,14514 6016,14603 5998,14687 5997,14691 5997,14695 5995,14701 5993,14708 5991,14715 8300,14715 8300,12271 8243,12251 8214,12241 8184,12232 8143,12220 8101,12209 8060,12200 8018,12192 7976,12186 7935,12181 7894,12178 7855,12177 Z"/>
       </g>
      </g>
      <g class="Group">
       <g class="com.sun.star.drawing.PolyPolygonShape">
        <g id="id12">
         <rect class="BoundingBox" stroke="none" fill="none" x="20634" y="50" width="3018" height="3401"/>
         <path fill="none" stroke="rgb(0,0,0)" stroke-width="100" stroke-linejoin="miter" d="M 23493,2306 L 23328,2307 23317,2308 23307,2309 23296,2312 23286,2315 23281,2318 23277,2320 23272,2323 23268,2325 23263,2329 23259,2332 23255,2336 23251,2339 23242,2349 23232,2358 23222,2366 23211,2374 23200,2381 23189,2387 23178,2393 23166,2399 23154,2404 23142,2408 23129,2411 23116,2414 23091,2418 23064,2419 23038,2418 23012,2414 22987,2408 22963,2399 22941,2388 22919,2375 22899,2360 22881,2343 22864,2325 22849,2305 22836,2283 22825,2261 22816,2237 22810,2212 22806,2186 22804,2159 22806,2133 22810,2107 22816,2082 22825,2058 22836,2036 22849,2014 22864,1994 22880,1976 22899,1959 22919,1944 22940,1931 22963,1920 22987,1911 23012,1905 23038,1901 23064,1899 23090,1901 23116,1905 23141,1911 23165,1920 23177,1925 23188,1931 23199,1938 23210,1945 23221,1952 23231,1960 23241,1969 23250,1978 23258,1986 23267,1992 23276,1997 23286,2002 23296,2006 23307,2008 23317,2010 23323,2010 23328,2010 23492,2010 23503,2010 23513,2008 23523,2006 23533,2002 23538,2000 23543,1998 23547,1995 23552,1992 23556,1989 23560,1986 23564,1982 23568,1978 23575,1971 23581,1962 23587,1953 23591,1944 23595,1934 23597,1924 23599,1914 23599,1903 23599,1902 23598,1044 23598,1038 23598,1033 23597,1028 23596,1023 23593,1013 23590,1003 23585,993 23580,984 23573,976 23566,968 23558,961 23550,954 23541,949 23531,945 23522,941 23511,939 23501,937 23490,937 22548,939 22350,939 22350,837 22350,837 22351,822 22353,807 22357,792 22362,778 22365,771 22369,764 22372,758 22377,751 22381,745 22386,739 22391,733 22396,728 22422,701 22444,672 22463,641 22479,609 22485,592 22491,575 22496,558 22500,541 22503,523 22506,505 22507,486 22507,468 22507,466 22505,429 22500,392 22491,357 22478,324 22463,292 22444,262 22423,234 22400,208 22374,184 22346,163 22316,145 22284,129 22251,117 22216,108 22180,102 22143,100 22105,102 22069,108 22034,117 22001,129 21969,145 21939,163 21911,184 21885,208 21862,234 21841,262 21822,292 21807,324 21794,357 21785,392 21780,429 21778,466 21778,468 21778,486 21779,505 21782,523 21785,541 21789,558 21794,575 21800,592 21806,609 21822,641 21841,672 21863,701 21889,728 21894,733 21899,739 21904,745 21908,751 21913,758 21916,764 21920,771 21923,778 21928,792 21932,807 21934,822 21935,837 21935,837 21935,939 21737,939 20795,937 20784,937 20774,939 20763,941 20754,945 20744,949 20735,954 20727,961 20719,968 20712,976 20705,984 20700,993 20695,1003 20692,1013 20689,1023 20688,1028 20687,1033 20687,1038 20687,1044 20686,1902 20686,1903 20686,1914 20688,1924 20690,1934 20694,1944 20698,1953 20704,1962 20710,1971 20717,1978 20721,1982 20725,1986 20729,1989 20733,1992 20738,1995 20742,1998 20747,2000 20752,2002 20762,2006 20772,2008 20782,2010 20793,2010 20957,2010 20968,2010 20979,2008 20989,2006 20999,2002 21009,1997 21018,1992 21027,1986 21035,1978 21044,1969 21054,1960 21064,1952 21075,1945 21086,1938 21097,1931 21108,1925 21120,1920 21144,1911 21170,1905 21195,1901 21222,1899 21248,1901 21274,1905 21299,1911 21323,1920 21345,1931 21367,1944 21386,1959 21405,1976 21422,1994 21436,2014 21449,2036 21460,2058 21469,2082 21475,2107 21479,2133 21481,2159 21479,2186 21475,2212 21469,2237 21460,2261 21449,2283 21436,2305 21421,2325 21404,2343 21386,2360 21366,2375 21344,2388 21322,2399 21298,2408 21273,2414 21247,2418 21221,2419 21194,2418 21169,2414 21156,2411 21143,2408 21131,2404 21119,2399 21107,2393 21096,2387 21085,2381 21074,2374 21063,2366 21053,2358 21043,2349 21034,2339 21030,2336 21026,2332 21022,2329 21017,2325 21013,2323 21008,2320 21004,2318 20999,2315 20989,2312 20978,2309 20968,2308 20957,2307 20792,2306 20781,2307 20770,2309 20760,2311 20750,2315 20741,2319 20732,2325 20724,2331 20716,2338 20709,2345 20703,2354 20698,2362 20693,2372 20690,2382 20687,2392 20685,2402 20685,2413 20686,3291 20686,3291 20686,3302 20688,3313 20691,3323 20694,3333 20699,3342 20704,3351 20710,3359 20717,3367 20725,3374 20733,3380 20742,3385 20751,3390 20761,3393 20771,3396 20782,3397 20793,3398 21888,3399 21898,3398 21908,3397 21919,3394 21929,3391 21938,3387 21947,3381 21952,3378 21956,3375 21960,3372 21964,3368 21967,3364 21971,3360 21974,3356 21977,3352 21982,3343 21987,3333 21990,3323 21993,3313 21994,3303 21995,3292 21995,3201 21995,3201 21994,3190 21992,3180 21990,3169 21986,3159 21984,3154 21982,3150 21979,3145 21976,3140 21973,3136 21970,3132 21966,3128 21963,3124 21945,3105 21929,3084 21915,3062 21909,3051 21904,3039 21899,3027 21895,3015 21892,3003 21889,2990 21886,2977 21885,2964 21884,2938 21884,2937 21885,2911 21889,2885 21895,2860 21904,2836 21915,2814 21928,2792 21943,2772 21959,2754 21978,2737 21998,2722 22019,2709 22042,2698 22066,2689 22090,2683 22116,2679 22143,2677 22169,2679 22195,2683 22219,2689 22243,2698 22266,2709 22287,2722 22307,2737 22326,2754 22342,2772 22357,2792 22370,2814 22381,2836 22390,2860 22396,2885 22400,2911 22401,2937 22401,2938 22400,2964 22399,2977 22396,2990 22393,3003 22390,3015 22386,3027 22381,3039 22376,3051 22370,3062 22356,3084 22340,3105 22322,3124 22319,3128 22315,3132 22312,3136 22309,3140 22306,3145 22303,3150 22301,3154 22299,3159 22295,3169 22293,3180 22291,3190 22290,3201 22290,3201 22290,3292 22291,3303 22292,3313 22295,3323 22298,3333 22303,3343 22308,3352 22311,3356 22314,3360 22318,3364 22321,3368 22325,3372 22329,3375 22333,3378 22338,3381 22347,3387 22356,3391 22366,3394 22377,3397 22387,3398 22397,3399 23492,3398 23503,3397 23514,3396 23524,3393 23534,3390 23543,3385 23552,3380 23560,3374 23568,3367 23575,3359 23581,3351 23586,3342 23591,3333 23594,3323 23597,3313 23599,3302 23599,3291 23599,3291 23600,2413 23600,2402 23598,2392 23595,2382 23592,2372 23587,2362 23582,2354 23576,2345 23569,2338 23561,2331 23553,2325 23544,2319 23535,2315 23525,2311 23515,2309 23504,2307 23493,2306 Z"/>
        </g>
       </g>
      </g>
      <g class="Group">
       <g class="Graphic">
        <g id="id13">
         <rect class="BoundingBox" stroke="none" fill="none" x="4322" y="-200" width="3210" height="3209"/>
         <path fill="rgb(0,0,0)" stroke="none" d="M 6699,1834 C 6738,1852 6772,1879 6797,1914 6822,1949 6863,1968 6905,1965 6948,1962 6985,1938 7004,1900 L 7257,1419 C 7269,1396 7261,1368 7238,1355 L 6756,1102 C 6745,1096 6742,1086 6742,1080 6742,1076 6742,1064 6754,1055 6802,1021 6840,974 6865,920 6937,763 6875,572 6726,485 6644,438 6551,427 6461,453 6371,479 6298,539 6255,621 6230,668 6217,719 6216,773 6216,787 6206,794 6202,796 6197,799 6187,803 6175,797 L 5694,544 C 5671,532 5643,541 5631,564 L 5378,1045 C 5372,1057 5361,1059 5356,1060 5351,1060 5339,1059 5330,1047 5296,1000 5249,961 5195,937 5038,865 4847,926 4760,1076 4714,1157 4702,1251 4728,1340 4754,1430 4814,1503 4896,1547 4944,1572 4995,1585 5048,1586 5062,1586 5069,1595 5072,1599 5074,1604 5078,1614 5072,1626 L 4819,2107 C 4807,2130 4816,2159 4839,2171 L 5320,2424 C 5358,2444 5402,2443 5438,2421 5476,2399 5498,2360 5499,2317 5500,2275 5512,2233 5534,2196 5598,2089 5737,2047 5850,2101 5911,2130 5956,2181 5977,2245 5998,2309 5993,2377 5961,2437 5943,2471 5919,2499 5887,2522 5853,2547 5833,2587 5836,2630 5839,2672 5864,2709 5901,2729 L 6382,2982 C 6405,2994 6434,2985 6446,2962 L 6699,2481 C 6719,2444 6718,2399 6696,2363 6674,2326 6636,2303 6593,2302 6554,2302 6518,2292 6483,2274 6424,2243 6381,2190 6362,2125 6343,2061 6352,1993 6385,1934 6448,1826 6586,1782 6699,1834 L 6699,1834 Z M 6271,2152 C 6297,2241 6357,2314 6440,2358 6487,2383 6538,2396 6591,2397 6605,2397 6612,2407 6615,2411 6618,2416 6622,2426 6615,2437 L 6384,2877 5945,2646 C 5933,2639 5931,2629 5931,2623 5930,2619 5931,2607 5942,2598 5986,2568 6020,2528 6045,2481 6088,2398 6096,2304 6067,2215 6039,2131 5981,2063 5903,2022 5899,2020 5894,2018 5890,2016 5734,1941 5542,1999 5453,2147 5423,2198 5406,2256 5405,2315 5404,2330 5395,2337 5391,2340 5386,2343 5376,2346 5364,2340 L 4925,2109 5156,1670 C 5176,1632 5175,1588 5153,1551 5131,1514 5092,1492 5049,1491 5011,1490 4974,1481 4940,1463 4881,1432 4838,1379 4819,1314 4800,1249 4808,1182 4842,1123 4904,1015 5042,971 5156,1023 5195,1040 5229,1068 5253,1102 5279,1137 5319,1157 5362,1154 5404,1151 5441,1127 5461,1089 L 5692,650 6131,881 C 6169,900 6214,899 6250,878 6287,856 6309,817 6310,774 6311,736 6320,699 6338,665 6370,605 6423,562 6487,544 6552,525 6620,533 6678,567 6787,629 6831,767 6779,881 6761,920 6733,953 6699,978 6664,1003 6645,1044 6648,1087 6651,1129 6675,1166 6713,1186 L 7152,1417 6921,1856 C 6915,1868 6904,1870 6899,1871 6894,1871 6882,1871 6873,1858 6839,1811 6792,1773 6738,1748 6581,1676 6390,1737 6303,1887 6257,1968 6245,2062 6271,2152 L 6271,2152 Z"/>
         <path fill="rgb(0,0,0)" stroke="none" d="M 5934,868 L 5768,781 C 5745,769 5716,778 5704,801 5692,824 5701,853 5724,865 L 5890,952 C 5913,964 5941,955 5954,932 5966,909 5957,880 5934,868 L 5934,868 Z"/>
         <path fill="rgb(0,0,0)" stroke="none" d="M 6136,974 L 6089,950 C 6066,938 6037,947 6025,970 6013,993 6022,1021 6045,1034 L 6092,1058 C 6115,1070 6143,1061 6156,1038 6168,1015 6159,987 6136,974 L 6136,974 Z"/>
        </g>
       </g>
       <g class="Graphic">
        <g id="id14">
         <rect class="BoundingBox" stroke="none" fill="none" x="5862" y="616" width="3209" height="3211"/>
         <path fill="rgb(0,0,0)" stroke="none" d="M 8238,2652 C 8277,2669 8311,2697 8336,2732 8361,2767 8402,2786 8445,2783 8487,2780 8524,2756 8544,2718 L 8797,2237 C 8809,2214 8800,2185 8777,2173 L 8296,1920 C 8284,1914 8282,1904 8281,1898 8281,1893 8281,1881 8293,1872 8341,1838 8379,1791 8404,1737 8476,1580 8415,1389 8265,1302 8184,1255 8090,1244 8000,1270 7911,1296 7837,1356 7794,1438 7769,1485 7756,1536 7755,1589 7755,1604 7745,1611 7741,1613 7736,1616 7726,1620 7715,1614 L 7233,1361 C 7210,1349 7182,1357 7170,1380 L 6917,1862 C 6911,1873 6900,1876 6895,1876 6890,1876 6878,1876 6869,1864 6835,1816 6788,1778 6734,1753 6577,1681 6386,1742 6299,1892 6253,1973 6241,2067 6267,2157 6293,2246 6353,2320 6436,2363 6483,2388 6534,2401 6587,2402 6601,2402 6608,2412 6611,2416 6614,2421 6618,2431 6612,2443 L 6359,2924 C 6347,2947 6355,2975 6379,2988 L 6860,3241 C 6897,3261 6941,3260 6978,3238 7015,3216 7038,3177 7038,3134 7039,3092 7051,3050 7073,3013 7138,2906 7276,2864 7389,2918 7450,2947 7495,2999 7516,3063 7538,3126 7532,3195 7501,3254 7483,3288 7458,3317 7427,3339 7392,3364 7373,3405 7376,3447 7379,3490 7403,3527 7441,3547 L 7922,3800 C 7945,3812 7973,3804 7986,3780 L 8238,3299 C 8258,3262 8257,3217 8235,3181 8214,3144 8175,3121 8132,3120 8094,3120 8057,3110 8023,3092 7963,3061 7920,3008 7901,2943 7883,2878 7891,2810 7925,2752 7987,2644 8125,2600 8238,2652 L 8238,2652 Z M 7811,2969 C 7837,3059 7896,3132 7979,3176 8026,3201 8077,3214 8130,3215 8145,3215 8152,3225 8154,3229 8157,3234 8161,3244 8155,3255 L 7924,3695 7485,3463 C 7473,3457 7470,3447 7470,3441 7470,3436 7470,3424 7482,3416 7525,3385 7560,3345 7584,3298 7628,3216 7636,3121 7606,3033 7578,2949 7520,2880 7442,2839 7438,2837 7434,2835 7430,2833 7273,2758 7081,2816 6992,2965 6962,3015 6945,3073 6944,3132 6944,3147 6934,3154 6930,3157 6925,3160 6915,3163 6904,3157 L 6464,2926 6695,2487 C 6715,2449 6714,2405 6692,2368 6670,2331 6632,2309 6589,2308 6550,2307 6514,2297 6480,2279 6420,2248 6377,2195 6358,2130 6339,2066 6348,1998 6381,1939 6444,1831 6582,1787 6695,1839 6734,1857 6768,1884 6793,1919 6818,1954 6859,1973 6901,1970 6944,1967 6981,1943 7000,1906 L 7231,1466 7671,1698 C 7708,1717 7753,1716 7789,1695 7826,1673 7849,1634 7849,1591 7850,1553 7860,1516 7878,1482 7909,1422 7962,1379 8026,1361 8091,1342 8159,1350 8217,1384 8326,1447 8370,1585 8318,1698 8300,1737 8273,1771 8238,1796 8203,1821 8184,1862 8187,1904 8190,1947 8214,1984 8252,2004 L 8691,2235 8460,2674 C 8454,2686 8444,2688 8438,2689 8433,2689 8421,2688 8413,2676 8378,2629 8332,2590 8278,2566 8120,2494 7929,2555 7843,2705 7796,2786 7785,2880 7811,2969 L 7811,2969 Z"/>
         <path fill="rgb(0,0,0)" stroke="none" d="M 7473,1685 L 7307,1598 C 7284,1586 7256,1595 7243,1618 7231,1641 7240,1669 7263,1681 L 7429,1769 C 7452,1781 7481,1772 7493,1749 7505,1726 7496,1697 7473,1685 L 7473,1685 Z"/>
         <path fill="rgb(0,0,0)" stroke="none" d="M 7675,1791 L 7628,1767 C 7605,1755 7577,1764 7564,1787 7552,1810 7561,1838 7584,1851 L 7631,1875 C 7654,1887 7683,1878 7695,1855 7707,1832 7698,1804 7675,1791 L 7675,1791 Z"/>
        </g>
       </g>
       <g class="Graphic">
        <g id="id15">
         <rect class="BoundingBox" stroke="none" fill="none" x="3500" y="1380" width="3209" height="3208"/>
         <path fill="rgb(0,0,0)" stroke="none" d="M 5876,3413 C 5915,3431 5949,3459 5974,3493 5999,3528 6040,3547 6083,3544 6125,3542 6162,3517 6182,3480 L 6434,2999 C 6447,2976 6438,2947 6415,2935 L 5934,2682 C 5922,2676 5919,2666 5919,2660 5919,2655 5919,2643 5931,2635 5979,2600 6017,2554 6042,2500 6114,2342 6052,2152 5903,2065 5821,2018 5728,2007 5638,2033 5549,2059 5475,2119 5432,2201 5407,2248 5394,2299 5393,2352 5393,2367 5383,2374 5379,2376 5374,2379 5364,2383 5352,2377 L 4871,2124 C 4848,2112 4820,2121 4808,2144 L 4555,2625 C 4549,2636 4538,2639 4533,2639 4528,2639 4516,2639 4507,2627 4473,2579 4426,2541 4372,2516 4215,2444 4024,2506 3938,2655 3891,2736 3879,2830 3905,2920 3931,3009 3991,3083 4074,3126 4121,3151 4172,3164 4225,3165 4239,3165 4247,3175 4249,3179 4252,3184 4256,3194 4250,3205 L 3997,3686 C 3985,3709 3994,3738 4017,3750 L 4498,4003 C 4535,4023 4579,4022 4616,4000 4653,3978 4676,3939 4676,3896 4677,3854 4689,3812 4711,3775 4776,3668 4914,3626 5027,3680 5088,3709 5133,3760 5154,3824 5176,3888 5170,3956 5139,4016 5121,4050 5096,4079 5065,4101 5030,4126 5011,4166 5014,4209 5017,4251 5041,4289 5079,4308 L 5560,4561 C 5583,4573 5611,4565 5624,4541 L 5876,4061 C 5896,4023 5895,3979 5873,3942 5852,3905 5813,3883 5770,3882 5732,3881 5695,3872 5661,3854 5601,3822 5558,3769 5539,3705 5521,3640 5529,3572 5563,3514 5625,3406 5763,3361 5876,3413 L 5876,3413 Z M 5449,3731 C 5475,3821 5534,3894 5617,3937 5664,3962 5715,3975 5768,3976 5783,3976 5790,3986 5792,3990 5795,3995 5799,4005 5793,4017 L 5562,4456 5123,4225 C 5111,4219 5108,4208 5108,4203 5108,4198 5108,4186 5120,4178 5163,4147 5198,4107 5222,4060 5266,3977 5274,3883 5244,3795 5216,3710 5158,3642 5080,3601 5076,3599 5072,3597 5068,3595 4911,3520 4719,3578 4630,3727 4600,3778 4583,3836 4582,3894 4582,3909 4572,3916 4568,3919 4563,3922 4553,3926 4542,3919 L 4102,3688 4333,3249 C 4353,3212 4352,3167 4330,3131 4308,3094 4270,3071 4227,3071 4189,3070 4152,3060 4118,3042 4058,3011 4015,2958 3996,2894 3977,2829 3986,2761 4019,2703 4082,2594 4220,2550 4333,2602 4372,2620 4406,2648 4431,2682 4456,2717 4497,2736 4539,2733 4582,2730 4619,2706 4638,2669 L 4869,2229 5309,2460 C 5346,2480 5391,2479 5427,2457 5464,2436 5487,2397 5487,2354 5488,2316 5498,2279 5515,2245 5547,2185 5600,2142 5664,2124 5729,2105 5797,2113 5855,2147 5964,2209 6008,2347 5956,2461 5938,2500 5911,2533 5876,2558 5841,2583 5822,2624 5825,2667 5828,2709 5852,2746 5890,2766 L 6329,2997 6098,3436 C 6092,3448 6082,3450 6076,3450 6071,3451 6059,3450 6050,3438 6016,3390 5970,3352 5916,3327 5758,3256 5567,3317 5481,3467 5434,3548 5423,3641 5449,3731 L 5449,3731 Z"/>
         <path fill="rgb(0,0,0)" stroke="none" d="M 5111,2448 L 4945,2361 C 4922,2349 4894,2358 4881,2381 4869,2404 4878,2432 4901,2444 L 5067,2532 C 5090,2544 5119,2535 5131,2512 5143,2489 5134,2460 5111,2448 L 5111,2448 Z"/>
         <path fill="rgb(0,0,0)" stroke="none" d="M 5313,2554 L 5266,2530 C 5243,2518 5215,2526 5202,2549 5190,2573 5199,2601 5222,2613 L 5269,2638 C 5292,2650 5321,2641 5333,2618 5345,2595 5336,2566 5313,2554 L 5313,2554 Z"/>
        </g>
       </g>
      </g>
      <g class="Graphic">
       <g id="id16">
        <rect class="BoundingBox" stroke="none" fill="none" x="11400" y="10700" width="4671" height="4672"/>
        <path fill="rgb(35,31,32)" stroke="none" d="M 15018,14012 L 14810,13312 C 14801,13283 14813,13251 14838,13234 14863,13216 14897,13218 14921,13237 15002,13300 15108,13321 15206,13291 15373,13242 15469,13066 15419,12899 15369,12733 15194,12637 15027,12687 14928,12716 14851,12791 14818,12889 14808,12917 14780,12937 14750,12936 14719,12936 14692,12915 14683,12886 L 14475,12186 13776,12394 C 13746,12403 13715,12392 13697,12367 13680,12341 13681,12307 13700,12283 13764,12203 13784,12096 13755,11998 13705,11832 13529,11736 13362,11786 13196,11835 13100,12011 13150,12178 13179,12276 13254,12354 13352,12387 13381,12397 13401,12424 13400,12455 13399,12486 13379,12513 13349,12521 L 12651,12729 12859,13429 C 12868,13458 12857,13490 12831,13507 12806,13525 12772,13523 12748,13504 12667,13441 12561,13420 12463,13449 12297,13499 12201,13675 12251,13842 12300,14008 12476,14104 12643,14054 12741,14025 12819,13950 12852,13852 12861,13823 12889,13804 12920,13805 12951,13805 12977,13826 12986,13855 L 13194,14555 13737,14393 C 13672,14337 13624,14263 13599,14179 13527,13938 13665,13684 13906,13612 14147,13540 14401,13678 14473,13919 14499,14002 14498,14091 14475,14173 L 15018,14012 Z M 14359,14355 C 14330,14363 14298,14352 14280,14327 14263,14301 14264,14267 14283,14244 14347,14163 14367,14057 14338,13958 14289,13792 14113,13696 13946,13746 13779,13795 13684,13971 13733,14138 13763,14237 13838,14314 13935,14347 13964,14357 13984,14385 13983,14415 13982,14446 13962,14473 13932,14482 L 13167,14709 C 13130,14720 13091,14699 13080,14662 L 12898,14051 C 12842,14116 12768,14164 12684,14189 12443,14261 12188,14123 12117,13882 12045,13641 12183,13387 12424,13315 12508,13290 12597,13291 12679,13314 L 12497,12703 C 12486,12666 12507,12627 12544,12616 L 13155,12434 C 13090,12378 13042,12304 13017,12220 12945,11979 13083,11725 13324,11653 13565,11581 13819,11719 13891,11960 13916,12044 13916,12133 13892,12215 L 14503,12033 C 14540,12022 14579,12043 14590,12080 L 14772,12691 C 14828,12627 14902,12578 14986,12553 15227,12481 15482,12619 15553,12860 15625,13101 15487,13355 15246,13427 15162,13452 15073,13452 14991,13428 L 15173,14039 C 15184,14076 15163,14115 15126,14126 L 14359,14355 Z"/>
       </g>
      </g>
     </g>
    </g>
   </g>
  </g>
 </g>
</svg>