<?xml version="1.0" encoding="UTF-8"?>
<!DOCTYPE svg PUBLIC "-//W3C//DTD SVG 1.1//EN" "http://www.w3.org/Graphics/SVG/1.1/DTD/svg11.dtd">
<svg version="1.2" width="150mm" height="207mm" viewBox="0 0 15000 20700" preserveAspectRatio="xMidYMid" fill-rule="evenodd" stroke-width="28.222" stroke-linejoin="round" xmlns="http://www.w3.org/2000/svg" xmlns:ooo="http://xml.openoffice.org/svg/export" xmlns:xlink="http://www.w3.org/1999/xlink" xmlns:presentation="http://sun.com/xmlns/staroffice/presentation" xmlns:smil="http://www.w3.org/2001/SMIL20/" xmlns:anim="urn:oasis:names:tc:opendocument:xmlns:animation:1.0" xml:space="preserve">
 <defs class="ClipPathGroup">
  <clipPath id="presentation_clip_path" clipPathUnits="userSpaceOnUse">
   <rect x="0" y="0" width="15000" height="20700"/>
  </clipPath>
  <clipPath id="presentation_clip_path_shrink" clipPathUnits="userSpaceOnUse">
   <rect x="15" y="20" width="14970" height="20659"/>
  </clipPath>
 </defs>
 <defs class="TextShapeIndex">
  <g ooo:slide="id1" ooo:id-list="id3 id4 id5 id6 id7 id8 id9 id10 id11 id12 id13 id14 id15 id16 id17 id18 id19 id20 id21 id22 id23 id24 id25 id26 id27 id28 id29 id30 id31 id32 id33"/>
 </defs>
 <defs class="EmbeddedBulletChars">
  <g id="bullet-char-template-57356" transform="scale(0.00048828125,-0.00048828125)">
   <path d="M 580,1141 L 1163,571 580,0 -4,571 580,1141 Z"/>
  </g>
  <g id="bullet-char-template-57354" transform="scale(0.00048828125,-0.00048828125)">
   <path d="M 8,1128 L 1137,1128 1137,0 8,0 8,1128 Z"/>
  </g>
  <g id="bullet-char-template-10146" transform="scale(0.00048828125,-0.00048828125)">
   <path d="M 174,0 L 602,739 174,1481 1456,739 174,0 Z M 1358,739 L 309,1346 659,739 1358,739 Z"/>
  </g>
  <g id="bullet-char-template-10132" transform="scale(0.00048828125,-0.00048828125)">
   <path d="M 2015,739 L 1276,0 717,0 1260,543 174,543 174,936 1260,936 717,1481 1274,1481 2015,739 Z"/>
  </g>
  <g id="bullet-char-template-10007" transform="scale(0.00048828125,-0.00048828125)">
   <path d="M 0,-2 C -7,14 -16,27 -25,37 L 356,567 C 262,823 215,952 215,954 215,979 228,992 255,992 264,992 276,990 289,987 310,991 331,999 354,1012 L 381,999 492,748 772,1049 836,1024 860,1049 C 881,1039 901,1025 922,1006 886,937 835,863 770,784 769,783 710,716 594,584 L 774,223 C 774,196 753,168 711,139 L 727,119 C 717,90 699,76 672,76 641,76 570,178 457,381 L 164,-76 C 142,-110 111,-127 72,-127 30,-127 9,-110 8,-76 1,-67 -2,-52 -2,-32 -2,-23 -1,-13 0,-2 Z"/>
  </g>
  <g id="bullet-char-template-10004" transform="scale(0.00048828125,-0.00048828125)">
   <path d="M 285,-33 C 182,-33 111,30 74,156 52,228 41,333 41,471 41,549 55,616 82,672 116,743 169,778 240,778 293,778 328,747 346,684 L 369,508 C 377,444 397,411 428,410 L 1163,1116 C 1174,1127 1196,1133 1229,1133 1271,1133 1292,1118 1292,1087 L 1292,965 C 1292,929 1282,901 1262,881 L 442,47 C 390,-6 338,-33 285,-33 Z"/>
  </g>
  <g id="bullet-char-template-9679" transform="scale(0.00048828125,-0.00048828125)">
   <path d="M 813,0 C 632,0 489,54 383,161 276,268 223,411 223,592 223,773 276,916 383,1023 489,1130 632,1184 813,1184 992,1184 1136,1130 1245,1023 1353,916 1407,772 1407,592 1407,412 1353,268 1245,161 1136,54 992,0 813,0 Z"/>
  </g>
  <g id="bullet-char-template-8226" transform="scale(0.00048828125,-0.00048828125)">
   <path d="M 346,457 C 273,457 209,483 155,535 101,586 74,649 74,723 74,796 101,859 155,911 209,963 273,989 346,989 419,989 480,963 531,910 582,859 608,796 608,723 608,648 583,586 532,535 482,483 420,457 346,457 Z"/>
  </g>
  <g id="bullet-char-template-8211" transform="scale(0.00048828125,-0.00048828125)">
   <path d="M -4,459 L 1135,459 1135,606 -4,606 -4,459 Z"/>
  </g>
  <g id="bullet-char-template-61548" transform="scale(0.00048828125,-0.00048828125)">
   <path d="M 173,740 C 173,903 231,1043 346,1159 462,1274 601,1332 765,1332 928,1332 1067,1274 1183,1159 1299,1043 1357,903 1357,740 1357,577 1299,437 1183,322 1067,206 928,148 765,148 601,148 462,206 346,322 231,437 173,577 173,740 Z"/>
  </g>
 </defs>
 <defs class="TextEmbeddedBitmaps"/>
 <g>
  <g id="id2" class="Master_Slide">
   <g id="bg-id2" class="Background"/>
   <g id="bo-id2" class="BackgroundObjects"/>
  </g>
 </g>
 <g class="SlideGroup">
  <g>
   <g id="container-id1">
    <g id="id1" class="Slide" clip-path="url(#presentation_clip_path)">
     <g class="Page">
      <g class="com.sun.star.drawing.PolyPolygonShape">
       <g id="id3">
        <rect class="BoundingBox" stroke="none" fill="none" x="2523" y="7249" width="2501" height="4003"/>
        <path fill="none" stroke="rgb(0,0,0)" stroke-width="100" stroke-linejoin="miter" d="M 4973,7941 L 4966,8828 4936,8810 4906,8795 4873,8780 4840,8770 4804,8763 4768,8757 4731,8755 4692,8755 4645,8760 4600,8770 4556,8783 4514,8799 4473,8821 4435,8845 4400,8873 4368,8903 4337,8936 4311,8972 4287,9009 4268,9049 4253,9091 4240,9134 4234,9179 4231,9223 4233,9269 4240,9313 4251,9354 4266,9395 4285,9432 4308,9467 4333,9500 4363,9529 4395,9556 4430,9580 4467,9600 4507,9616 4549,9629 4594,9638 4639,9642 4685,9641 4723,9638 4761,9631 4797,9621 4833,9610 4867,9595 4900,9578 4931,9558 4961,9538 4954,10424 4130,10470 4151,10497 4168,10527 4184,10558 4197,10590 4206,10624 4214,10658 4217,10694 4220,10731 4217,10776 4209,10821 4199,10864 4182,10906 4163,10946 4139,10984 4113,11019 4083,11051 4049,11082 4014,11110 3976,11134 3937,11155 3894,11172 3850,11186 3805,11195 3757,11200 3711,11200 3666,11196 3622,11188 3580,11175 3540,11159 3502,11139 3467,11115 3435,11088 3406,11058 3380,11026 3357,10991 3338,10953 3323,10913 3312,10871 3305,10827 3304,10782 3305,10745 3310,10709 3318,10673 3329,10638 3342,10605 3358,10573 3376,10541 3397,10512 2573,10557 2573,10557 2579,9671 2608,9689 2639,9705 2673,9718 2706,9729 2742,9738 2778,9743 2816,9745 2854,9745 2901,9739 2947,9730 2991,9717 3032,9699 3072,9679 3111,9654 3146,9626 3178,9596 3208,9563 3235,9527 3258,9489 3277,9449 3293,9408 3305,9364 3312,9320 3315,9274 3313,9230 3306,9186 3295,9145 3280,9104 3261,9067 3238,9032 3213,8999 3183,8970 3151,8942 3115,8919 3077,8899 3039,8883 2996,8871 2952,8862 2906,8858 2860,8858 2822,8862 2784,8868 2748,8877 2713,8889 2679,8904 2646,8921 2615,8940 2585,8961 2592,8075 3416,8029 3395,8002 3378,7973 3362,7941 3349,7909 3339,7876 3332,7841 3328,7805 3326,7768 3329,7722 3336,7678 3347,7635 3363,7594 3383,7554 3406,7516 3433,7481 3462,7447 3495,7417 3531,7390 3569,7366 3609,7344 3650,7327 3695,7313 3740,7305 3788,7300 3834,7300 3879,7303 3923,7312 3965,7325 4005,7341 4043,7361 4078,7385 4111,7411 4140,7441 4166,7473 4188,7509 4207,7547 4223,7586 4233,7628 4240,7672 4243,7717 4240,7755 4236,7790 4228,7826 4217,7861 4204,7894 4187,7927 4169,7959 4148,7988 4973,7941 Z"/>
       </g>
      </g>
      <g class="com.sun.star.drawing.PolyPolygonShape">
       <g id="id4">
        <rect class="BoundingBox" stroke="none" fill="none" x="-78" y="2649" width="3319" height="2732"/>
        <path fill="none" stroke="rgb(0,0,0)" stroke-width="100" stroke-linejoin="miter" d="M 1748,5057 L 1749,5088 1746,5119 1743,5150 1738,5180 1730,5209 1722,5237 1711,5266 1699,5292 2501,5274 2484,4441 2510,4454 2536,4465 2563,4473 2591,4481 2620,4487 2649,4490 2679,4493 2709,4492 2759,4489 2807,4479 2854,4466 2900,4448 2941,4425 2982,4400 3019,4369 3054,4336 3084,4299 3111,4258 3135,4216 3155,4171 3170,4124 3181,4074 3187,4024 3189,3972 3185,3919 3177,3869 3164,3821 3147,3774 3125,3730 3099,3688 3071,3649 3039,3614 3003,3582 2965,3554 2923,3528 2881,3508 2834,3492 2787,3481 2738,3473 2688,3472 2658,3474 2628,3477 2599,3483 2571,3489 2543,3497 2517,3508 2491,3519 2465,3533 2448,2700 1646,2718 1660,2744 1671,2771 1681,2799 1689,2828 1696,2858 1701,2888 1704,2919 1705,2950 1704,3002 1697,3053 1686,3103 1671,3150 1651,3195 1628,3237 1600,3277 1569,3314 1535,3348 1498,3378 1458,3404 1416,3427 1371,3445 1324,3459 1275,3467 1225,3471 1174,3469 1126,3463 1079,3452 1033,3435 989,3414 949,3390 910,3362 875,3329 843,3294 814,3255 788,3214 766,3170 749,3123 736,3075 727,3024 724,2972 725,2941 726,2910 730,2879 736,2849 743,2820 751,2792 762,2764 773,2737 -27,2755 25,5329 826,5311 814,5285 802,5258 792,5230 784,5201 777,5171 772,5141 769,5110 767,5079 768,5027 775,4976 786,4926 801,4879 821,4834 845,4792 873,4752 904,4715 937,4682 975,4651 1015,4625 1058,4602 1102,4585 1149,4570 1197,4562 1248,4558 1298,4560 1347,4566 1394,4578 1440,4594 1483,4615 1523,4639 1562,4668 1598,4699 1630,4735 1659,4774 1684,4815 1706,4859 1723,4906 1737,4954 1745,5005 1748,5057 Z"/>
       </g>
      </g>
      <g class="com.sun.star.drawing.PolyPolygonShape">
       <g id="id5">
        <rect class="BoundingBox" stroke="none" fill="none" x="2023" y="4650" width="2984" height="3401"/>
        <path fill="rgb(0,0,0)" stroke="none" d="M 3363,7870 L 3363,7820 3368,7772 3377,7726 3390,7680 3407,7637 3427,7596 3450,7558 3477,7522 3506,7490 3538,7460 3572,7436 3608,7413 3647,7396 3687,7382 3729,7373 3773,7368 3816,7370 3858,7375 3899,7386 3939,7401 3976,7420 4012,7443 4046,7470 4076,7499 4105,7533 4130,7569 4152,7609 4172,7650 4187,7695 4199,7741 4207,7788 4211,7838 4211,7850 4211,7864 4210,7890 4208,7915 4204,7939 4956,7911 4930,7052 4909,7057 4888,7061 4865,7064 4853,7065 4842,7065 4799,7065 4757,7059 4716,7048 4676,7034 4639,7014 4603,6991 4570,6965 4538,6934 4510,6901 4485,6864 4463,6825 4443,6784 4428,6739 4416,6694 4408,6646 4404,6596 4405,6546 4410,6498 4420,6451 4432,6405 4450,6363 4469,6322 4493,6283 4519,6248 4548,6216 4580,6187 4614,6161 4650,6139 4690,6121 4730,6108 4771,6099 4814,6095 4825,6094 4837,6095 4860,6095 4881,6098 4903,6102 4879,5242 4127,5271 4130,5246 4132,5220 4134,5195 4134,5170 4129,5120 4122,5071 4110,5026 4095,4981 4075,4939 4053,4900 4028,4863 3999,4830 3969,4800 3935,4773 3899,4751 3862,4731 3822,4717 3781,4706 3739,4701 3696,4700 3653,4704 3610,4712 3570,4726 3531,4744 3495,4766 3461,4792 3429,4820 3399,4853 3373,4888 3350,4927 3330,4968 3313,5010 3301,5056 3291,5103 3287,5151 3286,5202 3287,5227 3290,5252 3293,5277 3298,5302 2546,5330 2572,6190 2550,6187 2527,6184 2505,6183 2483,6183 2440,6188 2397,6196 2357,6209 2318,6227 2282,6249 2248,6275 2216,6304 2186,6336 2160,6371 2137,6410 2117,6451 2100,6494 2087,6539 2078,6586 2074,6635 2073,6684 2077,6733 2084,6782 2096,6827 2111,6872 2131,6914 2152,6952 2178,6989 2206,7022 2237,7053 2271,7079 2307,7102 2344,7122 2384,7136 2425,7147 2467,7152 2511,7153 2533,7152 2555,7149 2578,7144 2599,7140 2623,8000 3375,7970 3370,7946 3366,7922 3364,7896 3363,7882 3363,7870 Z"/>
        <path fill="none" stroke="rgb(0,0,0)" stroke-width="100" stroke-linejoin="miter" d="M 3363,7870 L 3363,7820 3368,7772 3377,7726 3390,7680 3407,7637 3427,7596 3450,7558 3477,7522 3506,7490 3538,7460 3572,7436 3608,7413 3647,7396 3687,7382 3729,7373 3773,7368 3816,7370 3858,7375 3899,7386 3939,7401 3976,7420 4012,7443 4046,7470 4076,7499 4105,7533 4130,7569 4152,7609 4172,7650 4187,7695 4199,7741 4207,7788 4211,7838 4211,7850 4211,7864 4210,7890 4208,7915 4204,7939 4956,7911 4930,7052 4909,7057 4888,7061 4865,7064 4853,7065 4842,7065 4799,7065 4757,7059 4716,7048 4676,7034 4639,7014 4603,6991 4570,6965 4538,6934 4510,6901 4485,6864 4463,6825 4443,6784 4428,6739 4416,6694 4408,6646 4404,6596 4405,6546 4410,6498 4420,6451 4432,6405 4450,6363 4469,6322 4493,6283 4519,6248 4548,6216 4580,6187 4614,6161 4650,6139 4690,6121 4730,6108 4771,6099 4814,6095 4825,6094 4837,6095 4860,6095 4881,6098 4903,6102 4879,5242 4127,5271 4130,5246 4132,5220 4134,5195 4134,5170 4129,5120 4122,5071 4110,5026 4095,4981 4075,4939 4053,4900 4028,4863 3999,4830 3969,4800 3935,4773 3899,4751 3862,4731 3822,4717 3781,4706 3739,4701 3696,4700 3653,4704 3610,4712 3570,4726 3531,4744 3495,4766 3461,4792 3429,4820 3399,4853 3373,4888 3350,4927 3330,4968 3313,5010 3301,5056 3291,5103 3287,5151 3286,5202 3287,5227 3290,5252 3293,5277 3298,5302 2546,5330 2572,6190 2550,6187 2527,6184 2505,6183 2483,6183 2440,6188 2397,6196 2357,6209 2318,6227 2282,6249 2248,6275 2216,6304 2186,6336 2160,6371 2137,6410 2117,6451 2100,6494 2087,6539 2078,6586 2074,6635 2073,6684 2077,6733 2084,6782 2096,6827 2111,6872 2131,6914 2152,6952 2178,6989 2206,7022 2237,7053 2271,7079 2307,7102 2344,7122 2384,7136 2425,7147 2467,7152 2511,7153 2533,7152 2555,7149 2578,7144 2599,7140 2623,8000 3375,7970 3370,7946 3366,7922 3364,7896 3363,7882 3363,7870 Z"/>
       </g>
      </g>
      <g class="Graphic">
       <g id="id6">
        <rect class="BoundingBox" stroke="none" fill="none" x="11299" y="-1001" width="3805" height="3805"/>
        <path fill="rgb(0,0,0)" stroke="none" d="M 12117,902 C 12032,891 11954,860 11888,814 L 11778,1657 12621,1767 C 12575,1833 12544,1911 12533,1996 12496,2281 12697,2542 12982,2579 13267,2617 13528,2416 13566,2131 13577,2046 13567,1963 13539,1887 L 14382,1998 14492,1155 C 14417,1182 14334,1192 14249,1181 13964,1144 13763,882 13800,597 13838,312 14099,111 14384,149 14469,160 14547,191 14612,236 L 14723,-606 12119,-947 12008,-104 C 12084,-131 12167,-141 12252,-130 12537,-93 12738,168 12700,453 12663,739 12402,940 12117,902 L 12117,902 Z"/>
       </g>
      </g>
      <g class="com.sun.star.drawing.PolyPolygonShape">
       <g id="id7">
        <rect class="BoundingBox" stroke="none" fill="none" x="6657" y="5049" width="4004" height="2903"/>
        <path fill="rgb(0,0,0)" stroke="none" d="M 9988,7869 L 9102,7880 9119,7845 9134,7810 9147,7771 9157,7732 9164,7690 9169,7649 9171,7605 9169,7560 9164,7506 9153,7453 9140,7402 9122,7353 9099,7306 9075,7263 9046,7222 9016,7185 8982,7150 8946,7120 8908,7094 8868,7072 8826,7055 8783,7042 8738,7035 8693,7033 8647,7036 8604,7045 8562,7058 8522,7077 8485,7100 8451,7128 8419,7158 8389,7193 8363,7231 8340,7272 8321,7316 8305,7363 8293,7412 8285,7464 8282,7517 8283,7570 8288,7615 8295,7658 8305,7700 8318,7742 8333,7782 8350,7819 8371,7856 8392,7890 7506,7900 7444,6941 7418,6966 7388,6986 7358,7006 7326,7022 7292,7034 7258,7044 7222,7048 7185,7051 7140,7049 7095,7041 7052,7030 7010,7011 6969,6990 6931,6963 6895,6933 6863,6899 6831,6861 6803,6820 6778,6777 6756,6731 6739,6682 6724,6630 6714,6578 6708,6523 6707,6469 6710,6416 6718,6365 6730,6316 6745,6269 6765,6225 6788,6183 6814,6146 6844,6111 6876,6080 6910,6053 6947,6030 6987,6011 7028,5998 7072,5989 7117,5986 7155,5987 7191,5992 7227,6000 7262,6013 7295,6027 7328,6045 7360,6065 7390,6089 7329,5131 7329,5131 8216,5119 8198,5153 8182,5190 8170,5229 8160,5268 8152,5310 8147,5352 8146,5396 8146,5440 8153,5494 8163,5548 8177,5599 8195,5647 8217,5693 8242,5737 8271,5778 8301,5815 8334,5849 8371,5880 8410,5905 8450,5927 8492,5945 8535,5957 8579,5965 8626,5967 8670,5964 8714,5955 8755,5942 8795,5923 8832,5900 8866,5872 8898,5842 8928,5807 8954,5769 8977,5727 8996,5682 9012,5637 9023,5587 9031,5535 9034,5482 9033,5429 9029,5384 9022,5341 9013,5299 8999,5258 8984,5218 8967,5181 8947,5145 8925,5110 9811,5100 9872,6058 9899,6034 9928,6013 9959,5994 9991,5978 10024,5965 10059,5956 10094,5951 10131,5948 10177,5950 10222,5958 10265,5970 10307,5988 10347,6010 10385,6036 10421,6066 10455,6100 10486,6137 10514,6179 10538,6222 10561,6269 10578,6316 10593,6368 10602,6421 10608,6476 10609,6530 10606,6583 10598,6634 10586,6683 10571,6730 10552,6774 10528,6816 10503,6854 10473,6889 10442,6920 10406,6946 10369,6970 10330,6989 10288,7002 10244,7011 10199,7015 10162,7012 10126,7008 10090,7000 10055,6987 10022,6973 9988,6954 9956,6934 9927,6910 9988,7869 Z"/>
        <path fill="none" stroke="rgb(0,0,0)" stroke-width="100" stroke-linejoin="miter" d="M 9988,7869 L 9102,7880 9119,7845 9134,7810 9147,7771 9157,7732 9164,7690 9169,7649 9171,7605 9169,7560 9164,7506 9153,7453 9140,7402 9122,7353 9099,7306 9075,7263 9046,7222 9016,7185 8982,7150 8946,7120 8908,7094 8868,7072 8826,7055 8783,7042 8738,7035 8693,7033 8647,7036 8604,7045 8562,7058 8522,7077 8485,7100 8451,7128 8419,7158 8389,7193 8363,7231 8340,7272 8321,7316 8305,7363 8293,7412 8285,7464 8282,7517 8283,7570 8288,7615 8295,7658 8305,7700 8318,7742 8333,7782 8350,7819 8371,7856 8392,7890 7506,7900 7444,6941 7418,6966 7388,6986 7358,7006 7326,7022 7292,7034 7258,7044 7222,7048 7185,7051 7140,7049 7095,7041 7052,7030 7010,7011 6969,6990 6931,6963 6895,6933 6863,6899 6831,6861 6803,6820 6778,6777 6756,6731 6739,6682 6724,6630 6714,6578 6708,6523 6707,6469 6710,6416 6718,6365 6730,6316 6745,6269 6765,6225 6788,6183 6814,6146 6844,6111 6876,6080 6910,6053 6947,6030 6987,6011 7028,5998 7072,5989 7117,5986 7155,5987 7191,5992 7227,6000 7262,6013 7295,6027 7328,6045 7360,6065 7390,6089 7329,5131 7329,5131 8216,5119 8198,5153 8182,5190 8170,5229 8160,5268 8152,5310 8147,5352 8146,5396 8146,5440 8153,5494 8163,5548 8177,5599 8195,5647 8217,5693 8242,5737 8271,5778 8301,5815 8334,5849 8371,5880 8410,5905 8450,5927 8492,5945 8535,5957 8579,5965 8626,5967 8670,5964 8714,5955 8755,5942 8795,5923 8832,5900 8866,5872 8898,5842 8928,5807 8954,5769 8977,5727 8996,5682 9012,5637 9023,5587 9031,5535 9034,5482 9033,5429 9029,5384 9022,5341 9013,5299 8999,5258 8984,5218 8967,5181 8947,5145 8925,5110 9811,5100 9872,6058 9899,6034 9928,6013 9959,5994 9991,5978 10024,5965 10059,5956 10094,5951 10131,5948 10177,5950 10222,5958 10265,5970 10307,5988 10347,6010 10385,6036 10421,6066 10455,6100 10486,6137 10514,6179 10538,6222 10561,6269 10578,6316 10593,6368 10602,6421 10608,6476 10609,6530 10606,6583 10598,6634 10586,6683 10571,6730 10552,6774 10528,6816 10503,6854 10473,6889 10442,6920 10406,6946 10369,6970 10330,6989 10288,7002 10244,7011 10199,7015 10162,7012 10126,7008 10090,7000 10055,6987 10022,6973 9988,6954 9956,6934 9927,6910 9988,7869 Z"/>
       </g>
      </g>
      <g class="com.sun.star.drawing.PolyPolygonShape">
       <g id="id8">
        <rect class="BoundingBox" stroke="none" fill="none" x="4250" y="1950" width="3174" height="3401"/>
        <path fill="rgb(0,0,0)" stroke="none" d="M 5674,5170 L 5675,5120 5681,5072 5690,5026 5704,4980 5722,4937 5744,4896 5768,4858 5797,4822 5827,4790 5862,4760 5898,4736 5936,4713 5978,4696 6021,4682 6065,4673 6112,4668 6158,4670 6203,4675 6246,4686 6289,4701 6329,4720 6366,4743 6403,4770 6435,4799 6466,4833 6493,4869 6516,4909 6537,4950 6554,4995 6566,5041 6575,5088 6578,5138 6579,5150 6579,5164 6578,5190 6576,5215 6572,5239 7373,5211 7345,4352 7323,4357 7300,4361 7276,4364 7264,4365 7252,4365 7206,4365 7161,4359 7118,4348 7075,4334 7035,4314 6997,4291 6961,4265 6928,4234 6898,4201 6871,4164 6847,4125 6827,4084 6810,4039 6797,3994 6789,3946 6785,3896 6786,3846 6791,3798 6801,3751 6815,3705 6833,3663 6854,3622 6879,3583 6907,3548 6938,3516 6972,3487 7009,3461 7047,3439 7089,3421 7132,3408 7176,3399 7222,3395 7234,3394 7247,3395 7271,3395 7293,3398 7316,3402 7291,2542 6490,2571 6493,2546 6495,2520 6496,2495 6496,2470 6492,2420 6484,2371 6472,2326 6455,2281 6434,2239 6411,2200 6384,2163 6353,2130 6321,2100 6284,2073 6247,2051 6207,2031 6164,2017 6121,2006 6076,2001 6030,2000 5984,2004 5939,2012 5896,2026 5854,2044 5816,2066 5779,2092 5745,2120 5714,2153 5686,2188 5661,2227 5640,2268 5622,2310 5608,2356 5599,2403 5594,2451 5593,2502 5594,2527 5597,2552 5601,2577 5605,2602 4805,2630 4832,3490 4808,3487 4784,3484 4761,3483 4737,3483 4691,3488 4646,3496 4603,3509 4561,3527 4523,3549 4486,3575 4452,3604 4421,3636 4393,3671 4368,3710 4347,3751 4329,3794 4315,3839 4306,3886 4301,3935 4300,3984 4304,4033 4312,4082 4324,4127 4341,4172 4362,4214 4385,4252 4412,4289 4442,4322 4475,4353 4511,4379 4549,4402 4589,4422 4632,4436 4675,4447 4720,4452 4767,4453 4790,4452 4814,4449 4838,4444 4861,4440 4887,5300 5687,5270 5682,5246 5678,5222 5676,5196 5675,5182 5674,5170 Z"/>
        <path fill="none" stroke="rgb(0,0,0)" stroke-width="100" stroke-linejoin="miter" d="M 5674,5170 L 5675,5120 5681,5072 5690,5026 5704,4980 5722,4937 5744,4896 5768,4858 5797,4822 5827,4790 5862,4760 5898,4736 5936,4713 5978,4696 6021,4682 6065,4673 6112,4668 6158,4670 6203,4675 6246,4686 6289,4701 6329,4720 6366,4743 6403,4770 6435,4799 6466,4833 6493,4869 6516,4909 6537,4950 6554,4995 6566,5041 6575,5088 6578,5138 6579,5150 6579,5164 6578,5190 6576,5215 6572,5239 7373,5211 7345,4352 7323,4357 7300,4361 7276,4364 7264,4365 7252,4365 7206,4365 7161,4359 7118,4348 7075,4334 7035,4314 6997,4291 6961,4265 6928,4234 6898,4201 6871,4164 6847,4125 6827,4084 6810,4039 6797,3994 6789,3946 6785,3896 6786,3846 6791,3798 6801,3751 6815,3705 6833,3663 6854,3622 6879,3583 6907,3548 6938,3516 6972,3487 7009,3461 7047,3439 7089,3421 7132,3408 7176,3399 7222,3395 7234,3394 7247,3395 7271,3395 7293,3398 7316,3402 7291,2542 6490,2571 6493,2546 6495,2520 6496,2495 6496,2470 6492,2420 6484,2371 6472,2326 6455,2281 6434,2239 6411,2200 6384,2163 6353,2130 6321,2100 6284,2073 6247,2051 6207,2031 6164,2017 6121,2006 6076,2001 6030,2000 5984,2004 5939,2012 5896,2026 5854,2044 5816,2066 5779,2092 5745,2120 5714,2153 5686,2188 5661,2227 5640,2268 5622,2310 5608,2356 5599,2403 5594,2451 5593,2502 5594,2527 5597,2552 5601,2577 5605,2602 4805,2630 4832,3490 4808,3487 4784,3484 4761,3483 4737,3483 4691,3488 4646,3496 4603,3509 4561,3527 4523,3549 4486,3575 4452,3604 4421,3636 4393,3671 4368,3710 4347,3751 4329,3794 4315,3839 4306,3886 4301,3935 4300,3984 4304,4033 4312,4082 4324,4127 4341,4172 4362,4214 4385,4252 4412,4289 4442,4322 4475,4353 4511,4379 4549,4402 4589,4422 4632,4436 4675,4447 4720,4452 4767,4453 4790,4452 4814,4449 4838,4444 4861,4440 4887,5300 5687,5270 5682,5246 5678,5222 5676,5196 5675,5182 5674,5170 Z"/>
       </g>
      </g>
      <g class="Graphic">
       <g id="id9">
        <rect class="BoundingBox" stroke="none" fill="none" x="-27" y="9900" width="3228" height="3201"/>
        <path fill="rgb(1,0,2)" stroke="none" d="M 2491,13095 L 1399,13095 1518,12826 C 1535,12787 1544,12746 1544,12704 1544,12535 1405,12397 1235,12397 1065,12397 926,12535 926,12704 926,12746 935,12787 952,12826 L 1070,13095 -22,13095 -22,10603 977,10603 C 979,10600 980,10597 980,10594 980,10594 980,10594 980,10593 971,10585 963,10579 953,10569 880,10495 841,10398 841,10296 841,10081 1018,9905 1235,9905 1452,9905 1629,10081 1629,10296 1629,10398 1590,10495 1518,10568 L 1493,10590 C 1492,10592 1492,10593 1492,10594 1492,10597 1493,10600 1495,10603 L 2491,10603 2491,11592 C 2494,11593 2498,11595 2501,11595 2507,11588 2515,11580 2525,11569 2600,11497 2698,11458 2800,11458 3018,11458 3195,11633 3195,11849 3195,12064 3018,12240 2800,12240 2698,12240 2600,12200 2526,12129 L 2504,12105 C 2500,12105 2495,12106 2491,12107 2491,12107 2491,13095 2491,13095 L 2491,13095 Z"/>
       </g>
      </g>
      <g class="Graphic">
       <g id="id10">
        <rect class="BoundingBox" stroke="none" fill="none" x="-164" y="-81" width="3665" height="3664"/>
        <path fill="rgb(0,0,0)" stroke="none" d="M 1761,3069 C 1760,2978 1734,2893 1688,2820 1671,2793 1670,2759 1686,2731 1701,2703 1730,2685 1762,2685 L 2339,2677 C 2427,2676 2498,2601 2496,2512 L 2487,1806 C 2487,1775 2503,1745 2530,1729 2556,1713 2590,1712 2618,1727 2688,1764 2768,1785 2853,1784 3120,1780 3334,1561 3331,1294 3327,1026 3107,813 2840,816 2755,818 2675,840 2606,880 2579,895 2546,895 2518,880 2491,864 2474,835 2474,804 L 2464,98 C 2463,9 2391,-63 2302,-62 L 1740,-55 C 1709,-54 1680,-37 1665,-10 1649,17 1649,50 1664,77 1702,145 1724,223 1725,306 1728,573 1515,793 1247,796 980,800 761,586 757,319 756,236 776,157 812,88 826,61 825,28 809,1 793,-26 763,-42 732,-41 L 137,-33 C 48,-32 -23,42 -22,131 L 10,2545 C 11,2633 84,2707 173,2706 L 783,2698 C 815,2697 844,2714 861,2742 877,2770 877,2804 860,2831 817,2905 792,2990 794,3082 797,3349 1017,3563 1284,3559 1551,3556 1765,3336 1761,3069 L 1761,3069 Z"/>
       </g>
      </g>
      <g class="Graphic">
       <g id="id11">
        <rect class="BoundingBox" stroke="none" fill="none" x="10700" y="2376" width="5401" height="5626"/>
        <defs>
         <clipPath id="clip_path_1" clipPathUnits="userSpaceOnUse">
          <path d="M 10700,3854 L 14478,2376 16100,6523 12322,8000 10700,3854 Z"/>
         </clipPath>
        </defs>
        <g clip-path="url(#clip_path_1)">
         <path fill="rgb(0,0,0)" stroke="none" d="M 14419,4391 L 14104,4514 13699,3478 12859,3806 12724,3461 C 12650,3270 12448,3170 12274,3238 12100,3306 12020,3516 12095,3707 L 12230,4052 11390,4381 11795,5417 12110,5294 C 12284,5226 12486,5326 12560,5517 12635,5707 12554,5917 12381,5985 L 12066,6108 12471,7145 13311,6817 13446,7162 C 13520,7353 13722,7453 13896,7385 14070,7316 14150,7107 14076,6916 L 13940,6570 14780,6242 14375,5205 14690,5082 C 14863,5014 14944,4804 14869,4614 14795,4423 14593,4323 14419,4391 L 14419,4391 Z"/>
        </g>
       </g>
      </g>
      <g class="com.sun.star.drawing.PolyPolygonShape">
       <g id="id12">
        <rect class="BoundingBox" stroke="none" fill="none" x="4823" y="9749" width="2901" height="3903"/>
        <path fill="rgb(0,0,0)" stroke="none" d="M 7673,10425 L 7664,11288 7630,11271 7595,11256 7556,11242 7518,11233 7476,11225 7434,11219 7390,11217 7345,11218 7291,11222 7238,11232 7187,11245 7137,11261 7090,11282 7046,11306 7005,11333 6967,11362 6931,11394 6900,11429 6873,11466 6850,11504 6833,11545 6818,11587 6811,11630 6807,11674 6809,11718 6817,11761 6830,11802 6848,11841 6870,11877 6897,11912 6927,11943 6961,11972 6998,11999 7039,12022 7083,12041 7130,12057 7179,12069 7230,12078 7283,12082 7337,12081 7382,12078 7425,12072 7468,12062 7510,12050 7550,12036 7588,12020 7624,12000 7659,11980 7651,12844 6689,12889 6714,12915 6733,12944 6752,12974 6767,13006 6778,13039 6788,13072 6791,13107 6794,13143 6790,13187 6782,13231 6769,13273 6750,13314 6727,13352 6700,13389 6669,13424 6634,13455 6596,13485 6555,13512 6510,13536 6464,13556 6414,13573 6362,13586 6310,13595 6255,13600 6201,13600 6148,13596 6097,13588 6048,13575 6002,13560 5957,13540 5916,13517 5879,13491 5845,13462 5815,13430 5788,13396 5766,13359 5748,13320 5735,13280 5727,13237 5726,13193 5727,13157 5733,13121 5742,13086 5756,13053 5771,13020 5789,12989 5810,12958 5834,12929 4873,12974 4873,12974 4880,12110 4914,12128 4950,12143 4990,12156 5028,12166 5070,12175 5113,12180 5157,12182 5201,12182 5255,12177 5309,12168 5360,12155 5409,12138 5455,12118 5500,12093 5541,12066 5579,12037 5614,12005 5646,11970 5672,11933 5695,11894 5713,11854 5727,11811 5735,11768 5739,11724 5737,11680 5729,11638 5716,11597 5698,11558 5676,11521 5649,11487 5619,11456 5585,11427 5548,11400 5506,11378 5461,11358 5416,11342 5366,11330 5315,11322 5262,11318 5208,11318 5163,11322 5120,11328 5077,11336 5036,11349 4996,11363 4958,11379 4922,11398 4887,11419 4895,10555 5856,10511 5832,10484 5812,10455 5794,10425 5779,10393 5767,10361 5758,10327 5754,10292 5751,10256 5755,10211 5763,10169 5777,10126 5795,10086 5818,10047 5845,10011 5876,9976 5911,9943 5949,9914 5991,9887 6035,9864 6082,9843 6130,9826 6182,9813 6235,9805 6290,9800 6344,9800 6397,9803 6449,9812 6497,9824 6543,9840 6588,9859 6629,9883 6667,9908 6701,9937 6731,9969 6757,10004 6779,10040 6798,10079 6810,10120 6818,10163 6821,10207 6818,10243 6813,10278 6804,10313 6790,10346 6775,10379 6756,10411 6735,10442 6711,10470 7673,10425 Z"/>
        <path fill="none" stroke="rgb(0,0,0)" stroke-width="100" stroke-linejoin="miter" d="M 7673,10425 L 7664,11288 7630,11271 7595,11256 7556,11242 7518,11233 7476,11225 7434,11219 7390,11217 7345,11218 7291,11222 7238,11232 7187,11245 7137,11261 7090,11282 7046,11306 7005,11333 6967,11362 6931,11394 6900,11429 6873,11466 6850,11504 6833,11545 6818,11587 6811,11630 6807,11674 6809,11718 6817,11761 6830,11802 6848,11841 6870,11877 6897,11912 6927,11943 6961,11972 6998,11999 7039,12022 7083,12041 7130,12057 7179,12069 7230,12078 7283,12082 7337,12081 7382,12078 7425,12072 7468,12062 7510,12050 7550,12036 7588,12020 7624,12000 7659,11980 7651,12844 6689,12889 6714,12915 6733,12944 6752,12974 6767,13006 6778,13039 6788,13072 6791,13107 6794,13143 6790,13187 6782,13231 6769,13273 6750,13314 6727,13352 6700,13389 6669,13424 6634,13455 6596,13485 6555,13512 6510,13536 6464,13556 6414,13573 6362,13586 6310,13595 6255,13600 6201,13600 6148,13596 6097,13588 6048,13575 6002,13560 5957,13540 5916,13517 5879,13491 5845,13462 5815,13430 5788,13396 5766,13359 5748,13320 5735,13280 5727,13237 5726,13193 5727,13157 5733,13121 5742,13086 5756,13053 5771,13020 5789,12989 5810,12958 5834,12929 4873,12974 4873,12974 4880,12110 4914,12128 4950,12143 4990,12156 5028,12166 5070,12175 5113,12180 5157,12182 5201,12182 5255,12177 5309,12168 5360,12155 5409,12138 5455,12118 5500,12093 5541,12066 5579,12037 5614,12005 5646,11970 5672,11933 5695,11894 5713,11854 5727,11811 5735,11768 5739,11724 5737,11680 5729,11638 5716,11597 5698,11558 5676,11521 5649,11487 5619,11456 5585,11427 5548,11400 5506,11378 5461,11358 5416,11342 5366,11330 5315,11322 5262,11318 5208,11318 5163,11322 5120,11328 5077,11336 5036,11349 4996,11363 4958,11379 4922,11398 4887,11419 4895,10555 5856,10511 5832,10484 5812,10455 5794,10425 5779,10393 5767,10361 5758,10327 5754,10292 5751,10256 5755,10211 5763,10169 5777,10126 5795,10086 5818,10047 5845,10011 5876,9976 5911,9943 5949,9914 5991,9887 6035,9864 6082,9843 6130,9826 6182,9813 6235,9805 6290,9800 6344,9800 6397,9803 6449,9812 6497,9824 6543,9840 6588,9859 6629,9883 6667,9908 6701,9937 6731,9969 6757,10004 6779,10040 6798,10079 6810,10120 6818,10163 6821,10207 6818,10243 6813,10278 6804,10313 6790,10346 6775,10379 6756,10411 6735,10442 6711,10470 7673,10425 Z"/>
       </g>
      </g>
      <g class="com.sun.star.drawing.PolyPolygonShape">
       <g id="id13">
        <rect class="BoundingBox" stroke="none" fill="none" x="7550" y="12149" width="3473" height="3672"/>
        <path fill="rgb(0,0,0)" stroke="none" d="M 7779,13822 L 7829,13821 7877,13825 7924,13834 7971,13848 8015,13868 8057,13890 8097,13917 8134,13948 8168,13982 8200,14020 8227,14061 8252,14104 8272,14151 8288,14200 8300,14250 8308,14303 8309,14357 8306,14408 8298,14458 8286,14508 8269,14554 8249,14598 8224,14641 8197,14679 8165,14716 8130,14748 8092,14776 8052,14802 8008,14823 7964,14839 7917,14850 7868,14856 7855,14857 7841,14858 7815,14858 7790,14856 7766,14853 7843,15769 8701,15705 8694,15680 8688,15654 8685,15627 8682,15612 8681,15598 8679,15545 8682,15494 8690,15444 8702,15394 8719,15348 8740,15303 8764,15261 8792,15222 8823,15187 8859,15154 8896,15126 8936,15100 8980,15080 9025,15063 9072,15052 9121,15045 9172,15045 9220,15049 9267,15059 9314,15072 9358,15092 9399,15114 9440,15141 9477,15172 9511,15206 9542,15244 9570,15285 9595,15329 9615,15376 9631,15424 9643,15474 9650,15527 9651,15540 9651,15555 9652,15583 9651,15609 9649,15635 10507,15573 10428,14656 10453,14659 10479,14660 10504,14661 10529,14660 10579,14653 10627,14642 10672,14626 10716,14605 10756,14580 10794,14551 10828,14519 10860,14483 10888,14444 10913,14402 10932,14358 10950,14311 10962,14262 10970,14212 10972,14160 10970,14107 10963,14054 10952,14003 10935,13955 10915,13908 10890,13864 10862,13823 10832,13785 10797,13751 10760,13720 10720,13693 10677,13670 10634,13652 10588,13638 10540,13628 10491,13625 10441,13625 10416,13628 10391,13632 10366,13638 10341,13644 10264,12727 9406,12791 9408,12764 9409,12736 9409,12709 9407,12683 9399,12629 9389,12578 9372,12530 9352,12483 9327,12439 9299,12398 9268,12361 9234,12326 9197,12295 9157,12268 9115,12246 9071,12227 9024,12213 8977,12203 8928,12200 8879,12201 8830,12207 8782,12218 8737,12234 8693,12255 8653,12280 8616,12308 8581,12341 8549,12376 8521,12416 8497,12457 8477,12502 8459,12549 8447,12598 8439,12648 8437,12700 8439,12754 8442,12781 8446,12807 8452,12835 8458,12861 7600,12924 7679,13840 7703,13833 7727,13828 7753,13824 7766,13823 7779,13822 Z"/>
        <path fill="none" stroke="rgb(0,0,0)" stroke-width="100" stroke-linejoin="miter" d="M 7779,13822 L 7829,13821 7877,13825 7924,13834 7971,13848 8015,13868 8057,13890 8097,13917 8134,13948 8168,13982 8200,14020 8227,14061 8252,14104 8272,14151 8288,14200 8300,14250 8308,14303 8309,14357 8306,14408 8298,14458 8286,14508 8269,14554 8249,14598 8224,14641 8197,14679 8165,14716 8130,14748 8092,14776 8052,14802 8008,14823 7964,14839 7917,14850 7868,14856 7855,14857 7841,14858 7815,14858 7790,14856 7766,14853 7843,15769 8701,15705 8694,15680 8688,15654 8685,15627 8682,15612 8681,15598 8679,15545 8682,15494 8690,15444 8702,15394 8719,15348 8740,15303 8764,15261 8792,15222 8823,15187 8859,15154 8896,15126 8936,15100 8980,15080 9025,15063 9072,15052 9121,15045 9172,15045 9220,15049 9267,15059 9314,15072 9358,15092 9399,15114 9440,15141 9477,15172 9511,15206 9542,15244 9570,15285 9595,15329 9615,15376 9631,15424 9643,15474 9650,15527 9651,15540 9651,15555 9652,15583 9651,15609 9649,15635 10507,15573 10428,14656 10453,14659 10479,14660 10504,14661 10529,14660 10579,14653 10627,14642 10672,14626 10716,14605 10756,14580 10794,14551 10828,14519 10860,14483 10888,14444 10913,14402 10932,14358 10950,14311 10962,14262 10970,14212 10972,14160 10970,14107 10963,14054 10952,14003 10935,13955 10915,13908 10890,13864 10862,13823 10832,13785 10797,13751 10760,13720 10720,13693 10677,13670 10634,13652 10588,13638 10540,13628 10491,13625 10441,13625 10416,13628 10391,13632 10366,13638 10341,13644 10264,12727 9406,12791 9408,12764 9409,12736 9409,12709 9407,12683 9399,12629 9389,12578 9372,12530 9352,12483 9327,12439 9299,12398 9268,12361 9234,12326 9197,12295 9157,12268 9115,12246 9071,12227 9024,12213 8977,12203 8928,12200 8879,12201 8830,12207 8782,12218 8737,12234 8693,12255 8653,12280 8616,12308 8581,12341 8549,12376 8521,12416 8497,12457 8477,12502 8459,12549 8447,12598 8439,12648 8437,12700 8439,12754 8442,12781 8446,12807 8452,12835 8458,12861 7600,12924 7679,13840 7703,13833 7727,13828 7753,13824 7766,13823 7779,13822 Z"/>
       </g>
      </g>
      <g class="Graphic">
       <g id="id14">
        <rect class="BoundingBox" stroke="none" fill="none" x="1871" y="17398" width="3203" height="3303"/>
        <path fill="rgb(1,0,2)" stroke="none" d="M 5067,18124 L 5066,19241 4798,19120 C 4759,19102 4718,19093 4675,19093 4507,19093 4369,19235 4369,19409 4369,19583 4506,19725 4675,19725 4718,19725 4759,19716 4797,19699 L 5066,19577 5066,20694 2574,20693 2574,19672 C 2571,19670 2568,19668 2566,19668 2566,19668 2565,19668 2565,19669 2557,19678 2550,19686 2541,19696 2466,19770 2370,19811 2268,19811 2052,19811 1877,19630 1877,19407 1877,19185 2053,19004 2268,19004 2370,19005 2467,19045 2540,19119 L 2562,19144 C 2564,19145 2565,19145 2566,19145 2569,19145 2572,19144 2574,19142 L 2575,18123 3564,18123 C 3566,18121 3567,18117 3567,18113 3561,18107 3552,18100 3541,18089 3469,18012 3430,17913 3430,17808 3430,17585 3606,17404 3821,17405 4037,17405 4212,17586 4212,17808 4212,17913 4173,18013 4101,18088 L 4078,18111 C 4077,18115 4078,18120 4080,18124 4080,18124 5067,18124 5067,18124 L 5067,18124 Z"/>
       </g>
      </g>
      <g class="com.sun.star.drawing.PolyPolygonShape">
       <g id="id15">
        <rect class="BoundingBox" stroke="none" fill="none" x="-67" y="15749" width="3319" height="2432"/>
        <path fill="none" stroke="rgb(0,0,0)" stroke-width="100" stroke-linejoin="miter" d="M 1759,17888 L 1760,17916 1757,17943 1754,17970 1749,17997 1741,18023 1733,18048 1722,18073 1710,18096 2512,18081 2495,17342 2521,17354 2547,17363 2574,17371 2602,17378 2631,17383 2660,17386 2690,17388 2720,17387 2770,17385 2818,17376 2865,17364 2911,17349 2952,17329 2993,17306 3030,17278 3065,17249 3095,17216 3122,17181 3146,17143 3166,17103 3181,17062 3192,17017 3198,16973 3200,16927 3196,16880 3188,16836 3175,16793 3158,16752 3136,16712 3110,16675 3082,16641 3050,16610 3014,16581 2976,16556 2934,16534 2892,16515 2845,16502 2798,16491 2749,16485 2699,16484 2669,16486 2639,16488 2610,16493 2582,16499 2554,16506 2528,16516 2502,16526 2476,16538 2459,15800 1657,15816 1671,15839 1682,15863 1692,15888 1700,15913 1707,15940 1712,15967 1715,15994 1716,16022 1715,16068 1708,16113 1697,16157 1682,16198 1662,16238 1639,16276 1611,16311 1580,16344 1546,16374 1509,16401 1469,16424 1427,16444 1382,16460 1335,16472 1286,16480 1236,16483 1185,16482 1137,16476 1090,16466 1044,16451 1000,16433 960,16411 921,16386 886,16358 854,16326 825,16292 799,16255 777,16216 760,16175 747,16132 738,16087 735,16041 736,16013 737,15986 741,15959 747,15932 754,15906 762,15881 773,15857 784,15833 -16,15848 36,18129 837,18113 825,18090 813,18066 803,18041 795,18016 788,17989 783,17962 780,17935 778,17907 779,17861 786,17816 797,17772 812,17731 832,17691 856,17653 884,17618 915,17585 948,17556 986,17528 1026,17505 1069,17485 1113,17470 1160,17457 1208,17449 1259,17446 1309,17447 1358,17453 1405,17464 1451,17478 1494,17496 1534,17518 1573,17543 1609,17571 1641,17603 1670,17637 1695,17674 1717,17713 1734,17754 1748,17797 1756,17842 1759,17888 Z"/>
       </g>
      </g>
      <g class="Graphic">
       <g id="id16">
        <rect class="BoundingBox" stroke="none" fill="none" x="4136" y="14554" width="4566" height="4163"/>
        <defs>
         <clipPath id="clip_path_2" clipPathUnits="userSpaceOnUse">
          <path d="M 4136,18702 L 4148,14554 8700,14568 8688,18716 4136,18702 Z"/>
         </clipPath>
        </defs>
        <g clip-path="url(#clip_path_2)">
         <path fill="rgb(0,0,0)" stroke="none" d="M 6043,15366 L 6042,15712 4904,15708 4901,16630 4521,16629 C 4312,16629 4142,16783 4141,16974 4141,17165 4310,17320 4519,17320 L 4899,17322 4896,18243 6034,18247 6035,17901 C 6036,17710 6206,17556 6415,17557 6625,17557 6794,17712 6794,17903 L 6793,18249 7931,18252 7933,17331 8313,17332 C 8522,17332 8693,17178 8693,16987 8694,16796 8524,16641 8315,16640 L 7935,16639 7938,15717 6800,15714 6801,15368 C 6802,15178 6632,15022 6423,15022 6213,15021 6043,15175 6043,15366 L 6043,15366 Z"/>
        </g>
       </g>
      </g>
      <g class="com.sun.star.drawing.PolyPolygonShape">
       <g id="id17">
        <rect class="BoundingBox" stroke="none" fill="none" x="7850" y="17450" width="2696" height="3301"/>
        <path fill="rgb(0,0,0)" stroke="none" d="M 10247,18957 L 10278,18957 10310,18959 10340,18963 10370,18969 10399,18977 10427,18986 10455,18997 10482,19009 10475,18207 9642,18213 9655,18186 9666,18160 9675,18133 9683,18105 9689,18077 9693,18048 9696,18018 9696,17988 9694,17938 9685,17889 9672,17842 9655,17796 9633,17755 9608,17714 9577,17676 9545,17641 9508,17610 9468,17583 9426,17558 9382,17537 9335,17521 9285,17510 9235,17503 9183,17500 9130,17504 9080,17511 9031,17523 8985,17540 8940,17561 8898,17586 8858,17614 8823,17646 8790,17681 8761,17719 8736,17760 8714,17802 8698,17848 8686,17895 8678,17945 8676,17995 8678,18025 8680,18054 8685,18083 8692,18111 8699,18139 8710,18166 8720,18192 8734,18218 7900,18223 7907,19025 7934,19012 7961,19001 7989,18992 8018,18984 8048,18977 8078,18973 8109,18970 8140,18970 8192,18972 8243,18979 8292,18991 8339,19007 8384,19027 8426,19051 8465,19080 8502,19111 8536,19145 8565,19183 8590,19223 8612,19266 8630,19311 8643,19358 8651,19407 8654,19457 8652,19508 8645,19556 8633,19603 8615,19649 8594,19692 8569,19732 8540,19770 8507,19806 8471,19837 8432,19865 8391,19890 8346,19912 8299,19928 8251,19940 8200,19949 8148,19951 8117,19950 8085,19948 8055,19943 8025,19938 7996,19930 7968,19921 7941,19910 7914,19898 7920,20699 10495,20683 10488,19882 10461,19895 10435,19906 10407,19915 10377,19923 10347,19929 10317,19934 10286,19937 10255,19938 10203,19936 10152,19928 10103,19917 10056,19901 10011,19880 9969,19856 9930,19828 9893,19796 9861,19762 9830,19724 9805,19684 9783,19641 9766,19596 9752,19549 9744,19501 9741,19450 9743,19400 9750,19351 9763,19304 9780,19259 9801,19216 9826,19175 9856,19137 9888,19102 9924,19070 9963,19042 10004,19017 10049,18996 10096,18980 10144,18966 10195,18959 10247,18957 Z"/>
        <path fill="none" stroke="rgb(0,0,0)" stroke-width="100" stroke-linejoin="miter" d="M 10247,18957 L 10278,18957 10310,18959 10340,18963 10370,18969 10399,18977 10427,18986 10455,18997 10482,19009 10475,18207 9642,18213 9655,18186 9666,18160 9675,18133 9683,18105 9689,18077 9693,18048 9696,18018 9696,17988 9694,17938 9685,17889 9672,17842 9655,17796 9633,17755 9608,17714 9577,17676 9545,17641 9508,17610 9468,17583 9426,17558 9382,17537 9335,17521 9285,17510 9235,17503 9183,17500 9130,17504 9080,17511 9031,17523 8985,17540 8940,17561 8898,17586 8858,17614 8823,17646 8790,17681 8761,17719 8736,17760 8714,17802 8698,17848 8686,17895 8678,17945 8676,17995 8678,18025 8680,18054 8685,18083 8692,18111 8699,18139 8710,18166 8720,18192 8734,18218 7900,18223 7907,19025 7934,19012 7961,19001 7989,18992 8018,18984 8048,18977 8078,18973 8109,18970 8140,18970 8192,18972 8243,18979 8292,18991 8339,19007 8384,19027 8426,19051 8465,19080 8502,19111 8536,19145 8565,19183 8590,19223 8612,19266 8630,19311 8643,19358 8651,19407 8654,19457 8652,19508 8645,19556 8633,19603 8615,19649 8594,19692 8569,19732 8540,19770 8507,19806 8471,19837 8432,19865 8391,19890 8346,19912 8299,19928 8251,19940 8200,19949 8148,19951 8117,19950 8085,19948 8055,19943 8025,19938 7996,19930 7968,19921 7941,19910 7914,19898 7920,20699 10495,20683 10488,19882 10461,19895 10435,19906 10407,19915 10377,19923 10347,19929 10317,19934 10286,19937 10255,19938 10203,19936 10152,19928 10103,19917 10056,19901 10011,19880 9969,19856 9930,19828 9893,19796 9861,19762 9830,19724 9805,19684 9783,19641 9766,19596 9752,19549 9744,19501 9741,19450 9743,19400 9750,19351 9763,19304 9780,19259 9801,19216 9826,19175 9856,19137 9888,19102 9924,19070 9963,19042 10004,19017 10049,18996 10096,18980 10144,18966 10195,18959 10247,18957 Z"/>
       </g>
      </g>
      <g class="Graphic">
       <g id="id18">
        <rect class="BoundingBox" stroke="none" fill="none" x="-418" y="17368" width="3335" height="3333"/>
        <path fill="rgb(0,0,0)" stroke="none" d="M 2304,18897 C 2388,18898 2467,18918 2536,18954 L 2539,18121 1706,18120 C 1742,18050 1762,17971 1763,17887 1763,17605 1535,17376 1253,17375 972,17375 742,17603 742,17884 742,17968 762,18048 797,18118 L -36,18116 -38,18949 C 32,18913 111,18893 195,18893 477,18894 705,19123 704,19405 704,19686 475,19914 193,19914 109,19914 30,19893 -40,19857 L -42,20690 2532,20696 2534,19862 C 2464,19898 2385,19918 2301,19918 2019,19918 1791,19689 1792,19407 1793,19125 2022,18897 2304,18897 L 2304,18897 Z"/>
       </g>
      </g>
      <g class="com.sun.star.drawing.CustomShape">
       <g id="id19">
        <rect class="BoundingBox" stroke="none" fill="none" x="-50" y="18150" width="901" height="2501"/>
        <path fill="rgb(0,0,0)" stroke="none" d="M 400,20600 L 0,20600 0,18200 800,18200 800,20600 400,20600 Z"/>
        <path fill="none" stroke="rgb(0,0,0)" stroke-width="100" stroke-linejoin="round" d="M 400,20600 L 0,20600 0,18200 800,18200 800,20600 400,20600 Z"/>
       </g>
      </g>
      <g class="Graphic">
       <g id="id20">
        <rect class="BoundingBox" stroke="none" fill="none" x="2000" y="12244" width="4001" height="4382"/>
        <defs>
         <clipPath id="clip_path_3" clipPathUnits="userSpaceOnUse">
          <path d="M 2000,12291 L 5948,12245 5999,16579 2051,16625 2000,12291 Z"/>
         </clipPath>
        </defs>
        <g clip-path="url(#clip_path_3)">
         <path fill="rgb(0,0,0)" stroke="none" d="M 5202,14060 L 4873,14063 4860,12980 3982,12990 3978,12629 C 3976,12430 3827,12270 3645,12272 3463,12274 3318,12437 3320,12637 L 3324,12998 2447,13008 2460,14092 2789,14088 C 2971,14086 3120,14246 3122,14445 3125,14644 2979,14808 2798,14810 L 2469,14814 2482,15897 3359,15887 3363,16248 C 3365,16448 3515,16608 3696,16605 3878,16603 4023,16440 4021,16240 L 4017,15879 4894,15869 4881,14786 5210,14782 C 5392,14780 5537,14616 5535,14417 5532,14217 5383,14057 5202,14060 L 5202,14060 Z"/>
        </g>
       </g>
      </g>
      <g class="com.sun.star.drawing.PolyPolygonShape">
       <g id="id21">
        <rect class="BoundingBox" stroke="none" fill="none" x="9350" y="7850" width="3802" height="2501"/>
        <path fill="none" stroke="rgb(0,0,0)" stroke-width="100" stroke-linejoin="miter" d="M 12507,10293 L 11667,10295 11683,10265 11697,10235 11710,10201 11720,10168 11726,10132 11732,10096 11733,10058 11732,10019 11727,9972 11717,9927 11704,9883 11687,9840 11666,9800 11643,9762 11616,9727 11587,9694 11555,9664 11521,9638 11485,9615 11447,9595 11407,9581 11367,9569 11324,9563 11282,9560 11238,9563 11197,9570 11158,9581 11120,9597 11084,9617 11052,9640 11021,9666 10993,9696 10968,9728 10946,9764 10928,9802 10913,9842 10901,9885 10894,9929 10891,9975 10892,10021 10896,10060 10902,10097 10912,10134 10924,10170 10938,10204 10954,10237 10974,10268 10994,10298 10154,10300 10098,9471 10073,9493 10045,9510 10016,9526 9985,9540 9953,9550 9921,9558 9887,9562 9852,9564 9809,9562 9766,9555 9726,9545 9685,9528 9647,9509 9611,9486 9577,9460 9546,9430 9517,9397 9490,9362 9466,9324 9446,9284 9429,9241 9416,9197 9407,9152 9401,9104 9400,9058 9403,9012 9411,8968 9422,8926 9437,8886 9455,8847 9478,8812 9503,8779 9531,8749 9561,8723 9594,8700 9629,8680 9667,8665 9706,8653 9748,8646 9791,8644 9826,8645 9861,8650 9895,8657 9928,8668 9959,8681 9990,8696 10020,8714 10049,8735 9994,7907 9994,7907 10835,7904 10818,7933 10803,7965 10791,7998 10781,8032 10773,8068 10769,8105 10768,8143 10768,8181 10774,8228 10783,8274 10796,8318 10814,8360 10834,8399 10858,8438 10885,8473 10914,8506 10945,8535 10980,8562 11016,8585 11055,8604 11094,8619 11135,8630 11177,8637 11221,8640 11263,8637 11304,8630 11343,8619 11381,8603 11417,8583 11450,8560 11480,8534 11508,8504 11533,8472 11554,8435 11573,8397 11588,8358 11599,8315 11607,8270 11610,8224 11609,8178 11605,8139 11598,8102 11590,8065 11577,8030 11563,7996 11547,7963 11528,7933 11507,7902 12348,7900 12402,8728 12428,8707 12456,8689 12485,8674 12516,8660 12547,8649 12580,8642 12614,8638 12649,8635 12692,8637 12734,8644 12775,8655 12815,8671 12853,8690 12889,8713 12923,8740 12955,8769 12984,8801 13011,8837 13034,8875 13055,8916 13072,8957 13085,9001 13094,9047 13099,9095 13100,9141 13097,9187 13089,9231 13078,9274 13064,9314 13045,9352 13023,9388 12998,9421 12970,9451 12940,9477 12906,9500 12871,9519 12834,9535 12794,9546 12752,9554 12710,9557 12674,9554 12640,9550 12606,9543 12573,9532 12542,9519 12510,9503 12480,9485 12452,9464 12507,10293 Z"/>
       </g>
      </g>
      <g class="com.sun.star.drawing.PolyPolygonShape">
       <g id="id22">
        <rect class="BoundingBox" stroke="none" fill="none" x="10139" y="9550" width="3012" height="3301"/>
        <path fill="rgb(0,0,0)" stroke="none" d="M 10311,11038 L 10354,11038 10397,11043 10438,11053 10478,11067 10516,11085 10552,11107 10586,11132 10618,11161 10646,11193 10672,11228 10694,11265 10714,11305 10730,11348 10743,11392 10751,11438 10756,11486 10755,11535 10750,11581 10741,11626 10729,11671 10712,11712 10693,11751 10669,11789 10643,11823 10614,11855 10582,11884 10548,11909 10512,11931 10472,11948 10432,11962 10391,11971 10347,11975 10336,11976 10324,11976 10301,11975 10280,11973 10258,11969 10290,12800 11045,12763 11040,12740 11036,12716 11034,12691 11033,12678 11032,12666 11032,12618 11037,12572 11046,12527 11059,12482 11075,12441 11095,12401 11118,12363 11144,12329 11173,12297 11205,12268 11239,12244 11276,12222 11315,12205 11355,12191 11396,12182 11440,12177 11485,12178 11527,12183 11568,12192 11608,12206 11646,12225 11682,12246 11716,12271 11747,12300 11776,12332 11802,12367 11824,12405 11845,12444 11860,12488 11873,12532 11881,12577 11885,12625 11886,12637 11885,12651 11885,12676 11883,12699 11880,12723 12635,12688 12602,11857 12624,11860 12647,11862 12669,11863 12691,11863 12735,11858 12778,11850 12818,11836 12857,11818 12893,11796 12928,11771 12959,11743 12989,11711 13014,11677 13038,11639 13057,11600 13074,11558 13086,11514 13095,11469 13099,11422 13100,11374 13096,11327 13088,11280 13076,11236 13060,11193 13040,11153 13017,11115 12991,11080 12962,11048 12931,11020 12897,10994 12860,10972 12823,10955 12783,10941 12742,10931 12699,10927 12655,10926 12633,10928 12611,10931 12588,10935 12566,10940 12535,10110 11779,10147 11782,10122 11784,10097 11785,10073 11785,10049 11780,10000 11773,9954 11760,9910 11744,9867 11724,9827 11701,9789 11676,9754 11647,9722 11616,9694 11581,9668 11546,9647 11508,9628 11467,9615 11427,9605 11384,9601 11340,9600 11297,9605 11255,9613 11214,9627 11175,9644 11139,9666 11105,9691 11073,9720 11044,9751 11018,9786 10995,9823 10975,9863 10958,9904 10946,9949 10937,9994 10933,10041 10932,10090 10934,10114 10937,10138 10941,10163 10945,10187 10190,10222 10223,11052 10244,11047 10265,11043 10288,11040 10300,11039 10311,11038 Z"/>
        <path fill="none" stroke="rgb(0,0,0)" stroke-width="100" stroke-linejoin="miter" d="M 10311,11038 L 10354,11038 10397,11043 10438,11053 10478,11067 10516,11085 10552,11107 10586,11132 10618,11161 10646,11193 10672,11228 10694,11265 10714,11305 10730,11348 10743,11392 10751,11438 10756,11486 10755,11535 10750,11581 10741,11626 10729,11671 10712,11712 10693,11751 10669,11789 10643,11823 10614,11855 10582,11884 10548,11909 10512,11931 10472,11948 10432,11962 10391,11971 10347,11975 10336,11976 10324,11976 10301,11975 10280,11973 10258,11969 10290,12800 11045,12763 11040,12740 11036,12716 11034,12691 11033,12678 11032,12666 11032,12618 11037,12572 11046,12527 11059,12482 11075,12441 11095,12401 11118,12363 11144,12329 11173,12297 11205,12268 11239,12244 11276,12222 11315,12205 11355,12191 11396,12182 11440,12177 11485,12178 11527,12183 11568,12192 11608,12206 11646,12225 11682,12246 11716,12271 11747,12300 11776,12332 11802,12367 11824,12405 11845,12444 11860,12488 11873,12532 11881,12577 11885,12625 11886,12637 11885,12651 11885,12676 11883,12699 11880,12723 12635,12688 12602,11857 12624,11860 12647,11862 12669,11863 12691,11863 12735,11858 12778,11850 12818,11836 12857,11818 12893,11796 12928,11771 12959,11743 12989,11711 13014,11677 13038,11639 13057,11600 13074,11558 13086,11514 13095,11469 13099,11422 13100,11374 13096,11327 13088,11280 13076,11236 13060,11193 13040,11153 13017,11115 12991,11080 12962,11048 12931,11020 12897,10994 12860,10972 12823,10955 12783,10941 12742,10931 12699,10927 12655,10926 12633,10928 12611,10931 12588,10935 12566,10940 12535,10110 11779,10147 11782,10122 11784,10097 11785,10073 11785,10049 11780,10000 11773,9954 11760,9910 11744,9867 11724,9827 11701,9789 11676,9754 11647,9722 11616,9694 11581,9668 11546,9647 11508,9628 11467,9615 11427,9605 11384,9601 11340,9600 11297,9605 11255,9613 11214,9627 11175,9644 11139,9666 11105,9691 11073,9720 11044,9751 11018,9786 10995,9823 10975,9863 10958,9904 10946,9949 10937,9994 10933,10041 10932,10090 10934,10114 10937,10138 10941,10163 10945,10187 10190,10222 10223,11052 10244,11047 10265,11043 10288,11040 10300,11039 10311,11038 Z"/>
       </g>
      </g>
      <g class="Graphic">
       <g id="id23">
        <rect class="BoundingBox" stroke="none" fill="none" x="11847" y="17500" width="3203" height="3301"/>
        <path fill="rgb(1,0,2)" stroke="none" d="M 15043,18226 L 15042,19342 14773,19220 C 14735,19203 14694,19194 14651,19194 14482,19194 14345,19336 14345,19510 14345,19684 14482,19825 14651,19825 14693,19825 14734,19817 14773,19799 L 15042,19678 15041,20794 12549,20793 12550,19772 C 12548,19770 12544,19769 12542,19769 12542,19769 12541,19769 12541,19769 12533,19779 12527,19786 12517,19797 12442,19871 12346,19911 12244,19911 12028,19911 11853,19730 11853,19508 11854,19286 12029,19105 12245,19105 12347,19106 12443,19146 12516,19220 L 12538,19245 C 12540,19246 12542,19246 12542,19246 12545,19246 12548,19245 12551,19243 L 12552,18224 13541,18225 C 13542,18222 13543,18219 13543,18215 13537,18209 13528,18201 13518,18191 13446,18114 13407,18014 13407,17909 13407,17687 13582,17506 13798,17507 14013,17507 14189,17688 14188,17910 14188,18015 14149,18114 14077,18190 L 14054,18212 C 14053,18216 14054,18222 14056,18225 14056,18225 15043,18226 15043,18226 L 15043,18226 Z"/>
       </g>
      </g>
      <g class="com.sun.star.drawing.PolyPolygonShape">
       <g id="id24">
        <rect class="BoundingBox" stroke="none" fill="none" x="12149" y="13050" width="3317" height="3855"/>
        <path fill="none" stroke="rgb(0,0,0)" stroke-width="100" stroke-linejoin="miter" d="M 14870,13410 L 15064,14252 15026,14243 14988,14237 14948,14232 14908,14232 14866,14234 14824,14238 14781,14247 14737,14258 14685,14275 14636,14296 14589,14321 14545,14348 14504,14380 14466,14413 14433,14449 14403,14486 14375,14526 14354,14567 14335,14609 14323,14652 14315,14696 14311,14740 14314,14784 14320,14827 14333,14870 14351,14909 14373,14946 14399,14980 14429,15010 14463,15037 14500,15061 14540,15081 14582,15098 14627,15111 14674,15119 14724,15124 14774,15125 14826,15121 14879,15112 14931,15099 14973,15085 15014,15069 15053,15050 15091,15029 15127,15005 15160,14981 15191,14953 15220,14926 15414,15767 14489,16036 14519,16056 14545,16079 14571,16104 14593,16131 14611,16161 14628,16191 14640,16224 14651,16259 14657,16302 14660,16347 14657,16390 14648,16435 14635,16478 14617,16520 14595,16560 14568,16599 14538,16638 14504,16673 14467,16707 14426,16737 14382,16765 14335,16790 14286,16811 14233,16829 14181,16841 14129,16850 14076,16854 14026,16853 13978,16849 13930,16840 13885,16827 13842,16810 13802,16790 13766,16766 13732,16739 13701,16709 13675,16675 13653,16639 13635,16599 13624,16557 13617,16521 13614,16485 13615,16449 13620,16413 13627,16378 13637,16343 13651,16308 13668,16275 12744,16543 12744,16543 12549,15701 12586,15710 12625,15717 12666,15721 12706,15721 12749,15720 12791,15715 12834,15707 12877,15697 12929,15678 12979,15657 13026,15633 13069,15605 13109,15574 13148,15540 13181,15504 13211,15467 13238,15428 13260,15386 13277,15344 13290,15301 13299,15257 13302,15213 13300,15169 13293,15125 13281,15083 13263,15043 13241,15007 13215,14973 13185,14943 13150,14916 13114,14892 13074,14872 13032,14855 12986,14843 12938,14834 12890,14829 12839,14829 12787,14833 12734,14842 12682,14855 12640,14869 12599,14885 12559,14903 12522,14924 12487,14948 12454,14972 12423,14999 12393,15027 12200,14186 13124,13918 13094,13897 13068,13875 13043,13849 13021,13822 13002,13793 12986,13762 12973,13730 12962,13695 12955,13651 12953,13607 12957,13563 12965,13519 12978,13476 12996,13434 13018,13394 13044,13353 13074,13316 13109,13280 13146,13247 13188,13216 13230,13189 13277,13163 13327,13143 13380,13125 13432,13113 13485,13104 13537,13100 13587,13101 13635,13105 13683,13114 13728,13127 13771,13143 13812,13163 13848,13187 13882,13215 13912,13245 13939,13278 13960,13315 13978,13355 13991,13397 13997,13433 14000,13468 13999,13504 13994,13540 13987,13575 13976,13611 13962,13646 13945,13679 14870,13410 Z"/>
       </g>
      </g>
      <g class="com.sun.star.drawing.PolyPolygonShape">
       <g id="id25">
        <rect class="BoundingBox" stroke="none" fill="none" x="7773" y="157" width="3479" height="3595"/>
        <path fill="none" stroke="rgb(0,0,0)" stroke-width="100" stroke-linejoin="miter" d="M 8644,1034 L 8686,1056 8724,1082 8758,1112 8791,1144 8818,1180 8843,1218 8864,1258 8881,1300 8894,1343 8903,1388 8907,1433 8908,1479 8904,1527 8896,1573 8883,1618 8865,1664 8842,1708 8817,1748 8788,1784 8756,1818 8721,1847 8685,1873 8645,1895 8605,1913 8562,1927 8519,1937 8475,1942 8430,1944 8385,1940 8340,1932 8296,1919 8253,1902 8242,1896 8230,1890 8209,1878 8189,1865 8170,1851 7823,2619 8562,2967 8568,2943 8575,2920 8584,2896 8588,2884 8594,2872 8616,2829 8641,2789 8670,2753 8702,2719 8737,2690 8774,2664 8813,2642 8854,2623 8896,2610 8940,2600 8983,2595 9028,2593 9073,2597 9118,2605 9162,2617 9206,2635 9248,2658 9286,2684 9320,2713 9353,2746 9380,2782 9405,2819 9426,2860 9443,2901 9456,2945 9465,2989 9469,3035 9470,3081 9466,3128 9458,3174 9445,3220 9427,3265 9422,3277 9416,3289 9404,3311 9391,3331 9377,3351 10115,3700 10461,2931 10481,2945 10502,2958 10522,2971 10544,2982 10588,2999 10632,3013 10677,3021 10722,3025 10767,3023 10811,3018 10854,3008 10897,2994 10937,2976 10977,2953 11013,2928 11048,2898 11080,2865 11109,2828 11134,2788 11156,2744 11174,2699 11188,2653 11196,2607 11200,2560 11199,2514 11195,2468 11186,2424 11173,2380 11156,2339 11135,2298 11110,2260 11083,2225 11050,2192 11016,2163 10976,2137 10935,2114 10913,2105 10890,2097 10867,2089 10844,2083 11191,1315 10452,967 10466,946 10479,925 10491,903 10502,881 10519,835 10533,789 10542,743 10546,696 10545,650 10540,604 10532,559 10519,516 10502,474 10481,434 10456,397 10428,361 10396,328 10361,298 10322,273 10281,251 10237,233 10193,219 10149,211 10103,207 10059,209 10015,214 9971,224 9930,238 9889,256 9850,278 9813,305 9778,334 9746,368 9717,404 9692,445 9669,488 9659,511 9651,534 9643,559 9637,583 8899,234 8553,1003 8576,1008 8598,1015 8621,1024 8633,1029 8644,1034 Z"/>
       </g>
      </g>
      <g class="com.sun.star.drawing.LineShape">
       <g id="id26">
        <rect class="BoundingBox" stroke="none" fill="none" x="-50" y="250" width="101" height="20501"/>
        <path fill="none" stroke="rgb(0,0,0)" stroke-width="100" stroke-linejoin="round" d="M 0,300 L 0,20700"/>
       </g>
      </g>
      <g class="com.sun.star.drawing.LineShape">
       <g id="id27">
        <rect class="BoundingBox" stroke="none" fill="none" x="-50" y="20558" width="13001" height="193"/>
        <path fill="none" stroke="rgb(0,0,0)" stroke-width="100" stroke-linejoin="round" d="M 0,20608 L 12900,20700"/>
       </g>
      </g>
      <g class="com.sun.star.drawing.PolyPolygonShape">
       <g id="id28">
        <rect class="BoundingBox" stroke="none" fill="none" x="10399" y="15478" width="815" height="2904"/>
        <path fill="rgb(0,0,0)" stroke="none" d="M 10402,18279 L 10419,18277 10435,17364 10484,17353 10518,17310 10542,17329 10568,17344 10595,17356 10622,17366 10649,17373 10678,17376 10707,17376 10737,17374 10773,17366 10811,17353 10845,17337 10878,17316 10911,17291 10942,17263 10970,17233 10997,17199 11022,17161 11044,17120 11064,17077 11080,17032 11095,16984 11105,16936 11112,16886 11114,16835 11113,16784 11109,16735 11100,16689 11088,16647 11072,16606 11053,16567 11032,16532 11009,16502 10982,16475 10953,16451 10923,16431 10891,16417 10857,16405 10822,16399 10786,16397 10749,16400 10719,16407 10690,16416 10661,16427 10634,16442 10606,16460 10579,16480 10554,16501 10528,16528 10498,16495 10450,16505 10466,15586 10456,15588 10458,15487 10519,15478 10516,15529 10564,15519 10549,16390 10564,16379 10586,16419 10568,16376 10599,16356 10618,16399 10603,16354 10636,16337 10650,16381 10641,16334 10675,16320 10684,16368 10681,16318 10714,16309 10717,16358 10717,16308 10752,16300 10753,16349 10760,16298 10803,16295 10796,16346 10809,16295 10850,16297 10837,16348 10855,16298 10896,16305 10878,16355 10901,16306 10939,16319 10916,16368 10943,16320 10979,16337 10952,16385 10984,16340 11018,16362 10986,16407 11021,16364 11053,16390 11018,16433 11055,16393 11085,16423 11048,16463 11088,16426 11114,16460 11074,16497 11117,16464 11140,16502 11097,16535 11142,16505 11162,16546 11117,16577 11163,16549 11180,16594 11135,16621 11182,16598 11195,16643 11148,16667 11196,16647 11205,16697 11157,16717 11206,16702 11211,16755 11162,16770 11211,16758 11212,16813 11163,16825 11212,16817 11209,16872 11160,16880 11209,16876 11202,16930 11153,16934 11201,16935 11189,16988 11142,16987 11188,16993 11173,17044 11126,17039 11172,17047 11154,17096 11109,17088 11152,17101 11130,17149 11087,17136 11127,17154 11102,17199 11061,17181 11100,17203 11073,17245 11034,17223 11069,17250 11039,17289 11004,17262 11035,17294 11002,17329 10971,17297 10997,17333 10962,17365 10935,17329 10958,17368 10921,17397 10898,17357 10916,17400 10878,17424 10860,17382 10870,17428 10829,17447 10819,17400 10825,17448 10782,17463 10777,17415 10777,17465 10734,17475 10734,17425 10726,17476 10691,17478 10699,17427 10688,17478 10655,17478 10665,17427 10650,17478 10616,17474 10631,17423 10611,17473 10579,17465 10599,17415 10576,17464 10545,17454 10569,17405 10542,17452 10531,17447 10516,18310 10467,18320 10464,18371 10400,18380 10402,18279 Z M 10548,16429 L 10548,16432 10555,16441 10548,16429 Z M 10539,17390 L 10531,17402 10531,17403 10539,17390 Z"/>
       </g>
      </g>
      <g class="com.sun.star.drawing.PolyPolygonShape">
       <g id="id29">
        <rect class="BoundingBox" stroke="none" fill="none" x="7487" y="9601" width="2876" height="904"/>
        <path fill="rgb(0,0,0)" stroke="none" d="M 10262,10317 L 10262,10299 9354,10363 9350,10313 9311,10282 9333,10255 9352,10227 9368,10197 9381,10169 9392,10139 9399,10109 9403,10078 9405,10048 9401,10011 9393,9973 9382,9939 9366,9907 9345,9875 9322,9844 9295,9818 9264,9793 9230,9771 9192,9750 9152,9733 9109,9721 9064,9710 9017,9703 8968,9701 8918,9702 8866,9708 8817,9717 8770,9730 8727,9746 8684,9767 8643,9790 8605,9815 8572,9842 8541,9872 8514,9904 8490,9937 8471,9972 8456,10008 8445,10045 8438,10082 8436,10120 8439,10151 8444,10181 8451,10210 8462,10237 8476,10264 8492,10290 8511,10314 8534,10340 8497,10373 8500,10423 7588,10486 7588,10497 7488,10504 7487,10441 7537,10440 7534,10390 8399,10330 8390,10315 8433,10289 8388,10311 8372,10280 8417,10258 8371,10276 8358,10244 8404,10226 8356,10239 8347,10205 8395,10192 8345,10199 8340,10165 8389,10157 8340,10162 8336,10126 8386,10121 8336,10119 8339,10074 8388,10076 8339,10068 8347,10025 8396,10033 8348,10019 8361,9977 8408,9991 8363,9971 8380,9930 8426,9950 8382,9926 8404,9887 8448,9911 8407,9882 8434,9844 8474,9873 8436,9841 8466,9806 8504,9838 8469,9803 8503,9769 8538,9804 8507,9766 8544,9735 8576,9774 8548,9732 8589,9705 8617,9747 8593,9703 8636,9679 8661,9722 8639,9677 8686,9655 8707,9700 8690,9653 8737,9636 8755,9683 8741,9635 8793,9620 8806,9668 8798,9619 8851,9609 8859,9659 8854,9609 8909,9603 8914,9652 8913,9602 8967,9601 8968,9651 8971,9601 9024,9604 9021,9654 9028,9604 9080,9611 9073,9661 9084,9612 9134,9624 9122,9672 9137,9624 9183,9638 9169,9686 9188,9640 9233,9659 9214,9705 9237,9661 9279,9683 9255,9727 9282,9685 9321,9710 9294,9752 9325,9713 9360,9741 9329,9780 9364,9745 9395,9776 9359,9811 9399,9780 9425,9815 9386,9846 9428,9819 9451,9855 9409,9882 9454,9859 9473,9897 9429,9920 9476,9905 9489,9945 9441,9960 9490,9950 9499,9993 9450,10003 9500,9998 9504,10042 9455,10047 9505,10050 9502,10086 9452,10083 9502,10090 9498,10124 9448,10118 9497,10130 9488,10165 9440,10153 9487,10171 9474,10204 9427,10187 9473,10208 9458,10240 9413,10220 9456,10244 9450,10256 10307,10196 10311,10246 10361,10245 10362,10310 10262,10317 Z M 8438,10327 L 8441,10327 8451,10319 8438,10327 Z M 9394,10253 L 9405,10259 9406,10259 9394,10253 Z"/>
       </g>
      </g>
      <g class="com.sun.star.drawing.PolyPolygonShape">
       <g id="id30">
        <rect class="BoundingBox" stroke="none" fill="none" x="10365" y="17572" width="2260" height="788"/>
        <path fill="rgb(0,0,0)" stroke="none" d="M 12541,18356 L 12542,18339 11830,18322 11832,18275 11804,18243 11823,18219 11840,18194 11855,18168 11867,18142 11878,18116 11886,18088 11891,18060 11895,18031 11896,17996 11892,17960 11887,17927 11877,17896 11863,17864 11847,17834 11829,17806 11807,17780 11782,17757 11754,17734 11724,17715 11692,17700 11658,17686 11622,17676 11584,17669 11545,17666 11504,17668 11465,17671 11428,17680 11392,17691 11357,17707 11324,17725 11292,17745 11264,17768 11238,17794 11214,17821 11192,17851 11175,17881 11160,17914 11148,17947 11140,17982 11136,18017 11135,18046 11136,18075 11140,18102 11147,18129 11155,18156 11165,18182 11178,18206 11194,18231 11162,18259 11161,18307 10445,18289 10444,18299 10366,18297 10370,18237 10409,18241 10411,18194 11090,18211 11084,18196 11119,18175 11083,18192 11073,18162 11109,18144 11072,18158 11064,18127 11102,18113 11063,18121 11059,18089 11098,18081 11058,18084 11057,18051 11096,18048 11057,18048 11057,18014 11096,18014 11058,18007 11063,17965 11102,17972 11064,17960 11074,17920 11111,17932 11075,17915 11088,17876 11125,17894 11091,17871 11108,17834 11142,17857 11109,17831 11130,17796 11162,17822 11132,17791 11156,17759 11186,17789 11159,17756 11185,17725 11212,17759 11187,17723 11216,17694 11241,17730 11220,17691 11251,17666 11272,17705 11254,17663 11289,17641 11307,17683 11291,17640 11327,17621 11343,17663 11330,17619 11368,17602 11381,17647 11371,17601 11410,17589 11419,17634 11413,17588 11454,17579 11461,17625 11458,17578 11500,17574 11503,17621 11502,17574 11546,17572 11546,17619 11549,17572 11591,17576 11588,17622 11594,17576 11635,17583 11629,17629 11639,17584 11678,17595 11669,17641 11682,17596 11719,17611 11706,17655 11721,17612 11756,17629 11741,17672 11760,17631 11794,17652 11775,17694 11797,17655 11827,17679 11805,17718 11830,17681 11858,17708 11833,17745 11861,17711 11886,17740 11858,17774 11889,17744 11910,17776 11879,17806 11913,17780 11931,17815 11898,17840 11933,17818 11948,17854 11913,17876 11949,17858 11961,17896 11925,17913 11963,17903 11970,17942 11931,17952 11970,17947 11974,17988 11935,17993 11974,17993 11974,18034 11935,18035 11973,18042 11968,18076 11930,18068 11968,18079 11962,18111 11923,18101 11960,18116 11951,18148 11914,18133 11949,18153 11937,18184 11902,18164 11936,18187 11922,18216 11888,18193 11920,18220 11914,18230 12586,18246 12585,18293 12624,18297 12619,18358 12541,18356 Z M 11120,18211 L 11122,18211 11131,18205 11120,18211 Z M 11871,18222 L 11878,18229 11879,18229 11871,18222 Z"/>
       </g>
      </g>
      <g class="com.sun.star.drawing.PolyPolygonShape">
       <g id="id31">
        <rect class="BoundingBox" stroke="none" fill="none" x="-1" y="7400" width="2602" height="788"/>
        <path fill="rgb(0,0,0)" stroke="none" d="M 2504,8184 L 2506,8167 1686,8150 1688,8103 1656,8071 1678,8047 1697,8022 1714,7996 1728,7970 1741,7944 1750,7916 1756,7888 1761,7859 1761,7824 1758,7788 1751,7755 1740,7724 1724,7692 1706,7662 1685,7634 1659,7608 1630,7585 1599,7562 1564,7543 1527,7528 1487,7514 1446,7504 1402,7497 1357,7494 1311,7496 1266,7499 1222,7508 1182,7519 1141,7535 1103,7553 1066,7573 1034,7596 1004,7622 976,7649 952,7679 931,7709 914,7742 901,7775 892,7810 886,7845 886,7874 887,7903 891,7930 899,7957 909,7984 921,8010 935,8034 953,8059 917,8087 915,8135 91,8117 90,8127 0,8125 5,8065 50,8069 52,8022 833,8039 827,8024 867,8003 825,8020 814,7990 856,7972 813,7986 804,7955 847,7941 803,7949 798,7917 842,7909 797,7912 796,7879 841,7876 796,7876 796,7842 841,7842 797,7835 803,7793 847,7800 804,7788 815,7748 858,7760 817,7743 832,7704 874,7722 834,7699 854,7662 893,7685 856,7659 879,7624 916,7650 883,7619 910,7587 944,7617 913,7584 943,7553 974,7587 945,7551 979,7522 1007,7558 983,7519 1019,7494 1044,7533 1023,7491 1063,7469 1083,7511 1066,7468 1107,7449 1125,7491 1110,7447 1154,7430 1169,7475 1158,7429 1202,7417 1213,7462 1205,7416 1253,7407 1260,7453 1257,7406 1306,7402 1309,7449 1308,7402 1359,7400 1359,7447 1362,7400 1411,7404 1407,7450 1414,7404 1462,7411 1455,7457 1466,7412 1511,7423 1500,7469 1515,7424 1558,7439 1543,7483 1561,7440 1601,7457 1584,7500 1605,7459 1644,7480 1622,7522 1648,7483 1683,7507 1657,7546 1685,7509 1718,7536 1689,7573 1721,7539 1750,7568 1718,7602 1754,7572 1778,7604 1743,7634 1781,7608 1802,7643 1764,7668 1804,7646 1821,7682 1781,7704 1823,7686 1837,7724 1795,7741 1839,7731 1846,7770 1802,7780 1847,7775 1851,7816 1806,7821 1851,7821 1851,7862 1806,7863 1851,7870 1845,7904 1801,7896 1844,7907 1837,7939 1793,7929 1836,7944 1825,7976 1783,7961 1823,7981 1809,8012 1768,7992 1807,8015 1791,8044 1752,8021 1789,8048 1782,8058 2557,8074 2555,8121 2600,8125 2595,8186 2504,8184 Z M 868,8039 L 871,8039 881,8033 868,8039 Z M 1733,8050 L 1741,8057 1743,8057 1733,8050 Z"/>
       </g>
      </g>
      <g class="com.sun.star.drawing.PolyPolygonShape">
       <g id="id32">
        <rect class="BoundingBox" stroke="none" fill="none" x="4906" y="7800" width="2596" height="822"/>
        <path fill="rgb(0,0,0)" stroke="none" d="M 4998,7920 L 4998,7937 5817,7895 5818,7942 5853,7972 5832,7998 5815,8023 5799,8051 5787,8078 5776,8105 5769,8133 5765,8162 5762,8191 5765,8226 5771,8261 5780,8294 5793,8325 5811,8355 5832,8384 5855,8410 5882,8434 5912,8455 5946,8475 5981,8492 6019,8505 6060,8516 6102,8523 6146,8526 6191,8526 6238,8521 6282,8514 6325,8503 6364,8488 6404,8470 6441,8449 6476,8427 6506,8402 6535,8374 6560,8344 6583,8313 6601,8281 6616,8248 6626,8213 6633,8178 6636,8142 6634,8113 6631,8085 6625,8058 6616,8032 6604,8006 6590,7981 6574,7958 6554,7934 6588,7903 6587,7856 7410,7815 7410,7805 7500,7800 7499,7860 7454,7860 7456,7907 6675,7946 6683,7960 6644,7984 6685,7963 6698,7993 6657,8013 6699,7997 6710,8027 6668,8044 6712,8033 6719,8065 6675,8076 6720,8070 6724,8102 6679,8108 6724,8105 6726,8139 6681,8142 6726,8146 6723,8188 6678,8185 6722,8194 6714,8234 6670,8225 6713,8239 6700,8279 6658,8265 6698,8284 6681,8322 6641,8303 6679,8326 6659,8363 6620,8339 6656,8368 6631,8402 6595,8374 6628,8405 6601,8438 6567,8406 6598,8440 6566,8472 6536,8438 6563,8475 6529,8502 6501,8465 6525,8505 6487,8530 6463,8490 6484,8532 6444,8554 6423,8512 6441,8555 6399,8575 6381,8532 6395,8577 6352,8592 6337,8548 6349,8593 6302,8606 6291,8561 6297,8607 6249,8615 6243,8568 6247,8615 6197,8620 6193,8573 6193,8620 6144,8620 6144,8573 6141,8620 6093,8617 6097,8570 6089,8616 6043,8608 6050,8562 6039,8608 5995,8596 6006,8550 5992,8595 5951,8581 5965,8536 5946,8579 5906,8560 5925,8517 5903,8558 5866,8537 5888,8496 5863,8535 5829,8511 5854,8471 5825,8507 5794,8480 5823,8444 5790,8477 5764,8447 5797,8414 5761,8443 5737,8410 5774,8382 5735,8406 5715,8372 5754,8347 5713,8368 5697,8332 5737,8311 5694,8324 5684,8285 5727,8272 5683,8281 5676,8241 5720,8232 5675,8236 5672,8194 5717,8191 5672,8187 5675,8153 5720,8157 5676,8150 5681,8117 5725,8124 5682,8112 5690,8079 5734,8091 5692,8074 5704,8042 5746,8059 5705,8039 5719,8009 5760,8029 5721,8005 5727,7994 4954,8033 4952,7986 4907,7986 4908,7924 4998,7920 Z M 6640,7947 L 6637,7948 6628,7955 6640,7947 Z M 5777,7998 L 5768,7992 5767,7992 5777,7998 Z"/>
       </g>
      </g>
      <g class="com.sun.star.drawing.PolyPolygonShape">
       <g id="id33">
        <rect class="BoundingBox" stroke="none" fill="none" x="6930" y="7812" width="871" height="2589"/>
        <path fill="rgb(0,0,0)" stroke="none" d="M 7588,7902 L 7571,7903 7643,8720 7596,8723 7567,8758 7541,8739 7515,8723 7487,8708 7459,8697 7431,8687 7403,8681 7374,8678 7345,8676 7311,8680 7275,8687 7243,8697 7213,8712 7183,8731 7155,8753 7130,8777 7107,8805 7086,8836 7068,8870 7053,8906 7041,8945 7032,8986 7026,9028 7024,9072 7026,9117 7033,9164 7041,9208 7055,9250 7070,9289 7090,9328 7112,9364 7136,9398 7162,9428 7191,9455 7222,9479 7253,9501 7286,9518 7320,9531 7355,9541 7390,9546 7426,9548 7455,9545 7483,9540 7510,9533 7536,9523 7561,9511 7586,9496 7608,9479 7631,9458 7664,9491 7710,9488 7782,10309 7792,10309 7800,10399 7740,10400 7739,10355 7692,10358 7624,9579 7610,9588 7585,9550 7607,9590 7578,9604 7556,9564 7574,9606 7544,9618 7526,9576 7539,9619 7507,9628 7494,9584 7502,9629 7469,9634 7462,9590 7467,9634 7433,9638 7428,9593 7426,9638 7383,9636 7385,9591 7378,9635 7337,9629 7345,9585 7332,9628 7292,9617 7304,9574 7286,9615 7248,9600 7266,9558 7244,9598 7207,9579 7229,9539 7202,9576 7166,9552 7193,9515 7163,9550 7130,9523 7160,9489 7127,9521 7094,9490 7127,9458 7091,9487 7062,9454 7098,9425 7059,9450 7033,9413 7072,9388 7031,9410 7008,9371 7049,9349 7006,9368 6985,9326 7027,9307 6983,9323 6966,9280 7010,9264 6965,9277 6950,9231 6995,9218 6949,9226 6940,9179 6986,9170 6939,9176 6933,9126 6979,9121 6932,9122 6930,9074 6977,9072 6930,9071 6932,9023 6979,9024 6932,9018 6939,8972 6985,8978 6939,8968 6949,8924 6995,8934 6950,8921 6963,8879 7008,8892 6964,8875 6981,8834 7025,8851 6983,8830 7004,8793 7046,8814 7006,8790 7028,8755 7068,8779 7031,8751 7057,8719 7095,8747 7061,8715 7090,8687 7123,8719 7094,8684 7126,8659 7155,8695 7129,8657 7163,8636 7189,8674 7167,8634 7202,8616 7224,8656 7210,8613 7248,8601 7263,8644 7252,8600 7292,8592 7303,8635 7297,8591 7339,8587 7344,8631 7346,8586 7381,8588 7378,8633 7383,8588 7416,8592 7411,8637 7421,8593 7455,8600 7444,8644 7460,8602 7492,8613 7477,8655 7495,8614 7526,8626 7507,8668 7530,8628 7541,8634 7473,7862 7520,7859 7519,7814 7580,7813 7588,7902 Z M 7621,9544 L 7621,9542 7613,9533 7621,9544 Z M 7538,8684 L 7545,8675 7544,8673 7538,8684 Z"/>
       </g>
      </g>
     </g>
    </g>
   </g>
  </g>
 </g>
</svg>