<?xml version="1.0" encoding="UTF-8"?>
<!DOCTYPE svg PUBLIC "-//W3C//DTD SVG 1.1//EN" "http://www.w3.org/Graphics/SVG/1.1/DTD/svg11.dtd">
<svg version="1.2" width="200mm" height="150mm" viewBox="0 0 20000 15000" preserveAspectRatio="xMidYMid" fill-rule="evenodd" stroke-width="28.222" stroke-linejoin="round" xmlns="http://www.w3.org/2000/svg" xmlns:ooo="http://xml.openoffice.org/svg/export" xmlns:xlink="http://www.w3.org/1999/xlink" xmlns:presentation="http://sun.com/xmlns/staroffice/presentation" xmlns:smil="http://www.w3.org/2001/SMIL20/" xmlns:anim="urn:oasis:names:tc:opendocument:xmlns:animation:1.0" xml:space="preserve">
 <defs class="ClipPathGroup">
  <clipPath id="presentation_clip_path" clipPathUnits="userSpaceOnUse">
   <rect x="0" y="0" width="20000" height="15000"/>
  </clipPath>
  <clipPath id="presentation_clip_path_shrink" clipPathUnits="userSpaceOnUse">
   <rect x="20" y="15" width="19960" height="14970"/>
  </clipPath>
 </defs>
 <defs class="TextShapeIndex">
  <g ooo:slide="id1" ooo:id-list="id3 id4 id5 id6 id7 id8 id9 id10 id11 id12 id13 id14 id15 id16"/>
 </defs>
 <defs class="EmbeddedBulletChars">
  <g id="bullet-char-template-57356" transform="scale(0.00048828125,-0.00048828125)">
   <path d="M 580,1141 L 1163,571 580,0 -4,571 580,1141 Z"/>
  </g>
  <g id="bullet-char-template-57354" transform="scale(0.00048828125,-0.00048828125)">
   <path d="M 8,1128 L 1137,1128 1137,0 8,0 8,1128 Z"/>
  </g>
  <g id="bullet-char-template-10146" transform="scale(0.00048828125,-0.00048828125)">
   <path d="M 174,0 L 602,739 174,1481 1456,739 174,0 Z M 1358,739 L 309,1346 659,739 1358,739 Z"/>
  </g>
  <g id="bullet-char-template-10132" transform="scale(0.00048828125,-0.00048828125)">
   <path d="M 2015,739 L 1276,0 717,0 1260,543 174,543 174,936 1260,936 717,1481 1274,1481 2015,739 Z"/>
  </g>
  <g id="bullet-char-template-10007" transform="scale(0.00048828125,-0.00048828125)">
   <path d="M 0,-2 C -7,14 -16,27 -25,37 L 356,567 C 262,823 215,952 215,954 215,979 228,992 255,992 264,992 276,990 289,987 310,991 331,999 354,1012 L 381,999 492,748 772,1049 836,1024 860,1049 C 881,1039 901,1025 922,1006 886,937 835,863 770,784 769,783 710,716 594,584 L 774,223 C 774,196 753,168 711,139 L 727,119 C 717,90 699,76 672,76 641,76 570,178 457,381 L 164,-76 C 142,-110 111,-127 72,-127 30,-127 9,-110 8,-76 1,-67 -2,-52 -2,-32 -2,-23 -1,-13 0,-2 Z"/>
  </g>
  <g id="bullet-char-template-10004" transform="scale(0.00048828125,-0.00048828125)">
   <path d="M 285,-33 C 182,-33 111,30 74,156 52,228 41,333 41,471 41,549 55,616 82,672 116,743 169,778 240,778 293,778 328,747 346,684 L 369,508 C 377,444 397,411 428,410 L 1163,1116 C 1174,1127 1196,1133 1229,1133 1271,1133 1292,1118 1292,1087 L 1292,965 C 1292,929 1282,901 1262,881 L 442,47 C 390,-6 338,-33 285,-33 Z"/>
  </g>
  <g id="bullet-char-template-9679" transform="scale(0.00048828125,-0.00048828125)">
   <path d="M 813,0 C 632,0 489,54 383,161 276,268 223,411 223,592 223,773 276,916 383,1023 489,1130 632,1184 813,1184 992,1184 1136,1130 1245,1023 1353,916 1407,772 1407,592 1407,412 1353,268 1245,161 1136,54 992,0 813,0 Z"/>
  </g>
  <g id="bullet-char-template-8226" transform="scale(0.00048828125,-0.00048828125)">
   <path d="M 346,457 C 273,457 209,483 155,535 101,586 74,649 74,723 74,796 101,859 155,911 209,963 273,989 346,989 419,989 480,963 531,910 582,859 608,796 608,723 608,648 583,586 532,535 482,483 420,457 346,457 Z"/>
  </g>
  <g id="bullet-char-template-8211" transform="scale(0.00048828125,-0.00048828125)">
   <path d="M -4,459 L 1135,459 1135,606 -4,606 -4,459 Z"/>
  </g>
  <g id="bullet-char-template-61548" transform="scale(0.00048828125,-0.00048828125)">
   <path d="M 173,740 C 173,903 231,1043 346,1159 462,1274 601,1332 765,1332 928,1332 1067,1274 1183,1159 1299,1043 1357,903 1357,740 1357,577 1299,437 1183,322 1067,206 928,148 765,148 601,148 462,206 346,322 231,437 173,577 173,740 Z"/>
  </g>
 </defs>
 <defs class="TextEmbeddedBitmaps"/>
 <g>
  <g id="id2" class="Master_Slide">
   <g id="bg-id2" class="Background"/>
   <g id="bo-id2" class="BackgroundObjects"/>
  </g>
 </g>
 <g class="SlideGroup">
  <g>
   <g id="container-id1">
    <g id="id1" class="Slide" clip-path="url(#presentation_clip_path)">
     <g class="Page">
      <g class="Graphic">
       <g id="id3">
        <rect class="BoundingBox" stroke="none" fill="none" x="6999" y="10500" width="4611" height="4610"/>
        <defs>
         <clipPath id="clip_path_1" clipPathUnits="userSpaceOnUse">
          <path d="M 10205,15109 L 7000,13705 8403,10500 11609,11904 10205,15109 Z"/>
         </clipPath>
        </defs>
        <g clip-path="url(#clip_path_1)">
         <path fill="rgb(0,0,0)" stroke="none" d="M 7976,12930 C 7884,12905 7783,12907 7687,12945 7451,13037 7334,13303 7427,13539 7519,13774 7784,13891 8020,13798 8116,13761 8192,13695 8243,13613 L 8543,14381 9397,14048 C 9315,13997 9249,13921 9211,13825 9119,13589 9235,13323 9471,13231 9707,13139 9972,13256 10065,13491 10102,13587 10105,13688 10079,13781 L 10933,13447 10633,12679 C 10725,12705 10826,12702 10922,12664 11158,12572 11274,12306 11182,12071 11090,11835 10824,11719 10588,11811 10492,11848 10416,11915 10366,11996 L 10065,11228 9212,11562 C 9293,11612 9360,11688 9397,11784 9489,12020 9373,12286 9137,12378 8902,12470 8636,12354 8544,12118 8506,12022 8503,11921 8529,11829 L 7676,12162 7976,12930 7976,12930 Z"/>
        </g>
       </g>
      </g>
      <g class="Graphic">
       <g id="id4">
        <rect class="BoundingBox" stroke="none" fill="none" x="1626" y="199" width="3475" height="3476"/>
        <defs>
         <clipPath id="clip_path_2" clipPathUnits="userSpaceOnUse">
          <path d="M 1804,200 L 1626,3495 4921,3673 5100,378 1804,200 Z"/>
         </clipPath>
        </defs>
        <g clip-path="url(#clip_path_2)">
         <path fill="rgb(0,0,0)" stroke="none" d="M 3146,3072 C 3149,3001 3168,2935 3198,2876 3210,2853 3209,2826 3196,2803 3183,2781 3160,2767 3134,2765 L 2708,2742 C 2580,2735 2482,2626 2489,2497 L 2514,2022 C 2516,1996 2504,1972 2484,1956 2463,1941 2436,1937 2412,1946 2351,1968 2286,1978 2217,1975 1939,1960 1725,1721 1740,1443 1755,1164 1993,951 2272,966 2340,970 2404,987 2462,1016 2485,1027 2513,1026 2535,1013 2557,1000 2571,977 2572,951 L 2598,476 C 2605,347 2715,249 2843,256 L 4865,366 C 4993,373 5091,482 5084,610 L 5059,1069 C 5058,1094 5045,1116 5024,1129 5004,1142 4978,1145 4955,1136 4908,1118 4858,1106 4805,1103 4526,1088 4288,1302 4273,1580 4258,1859 4471,2097 4750,2112 4803,2115 4855,2109 4903,2095 4927,2089 4952,2094 4971,2110 4990,2125 5001,2149 4999,2173 L 4975,2632 C 4968,2760 4858,2859 4730,2852 L 4199,2823 C 4173,2821 4148,2833 4133,2854 4118,2875 4114,2902 4123,2926 4146,2988 4158,3056 4154,3126 4139,3405 3901,3618 3623,3603 3344,3588 3130,3350 3146,3072 L 3146,3072 Z"/>
        </g>
       </g>
      </g>
      <g class="Graphic">
       <g id="id5">
        <rect class="BoundingBox" stroke="none" fill="none" x="4100" y="10800" width="3301" height="3301"/>
        <defs>
         <clipPath id="clip_path_3" clipPathUnits="userSpaceOnUse">
          <path d="M 4100,10800 L 7400,10800 7400,14100 4100,14100 4100,10800 Z"/>
         </clipPath>
        </defs>
        <g clip-path="url(#clip_path_3)">
         <path fill="rgb(0,0,0)" stroke="none" d="M 7101,13007 L 6936,13008 C 6907,13008 6879,13019 6859,13040 6810,13092 6743,13120 6672,13120 6529,13120 6412,13004 6412,12860 6412,12717 6528,12600 6672,12600 6742,12600 6809,12628 6858,12679 6879,12699 6907,12711 6936,12711 L 7100,12711 C 7128,12711 7156,12700 7176,12679 7196,12659 7207,12632 7207,12604 7207,12604 7207,12604 7207,12603 L 7206,11744 C 7206,11716 7194,11688 7174,11668 7154,11648 7127,11637 7098,11637 L 6156,11639 5958,11639 5958,11537 5958,11537 C 5958,11496 5974,11457 6004,11428 6075,11359 6115,11267 6115,11168 L 6115,11166 C 6114,10964 5951,10801 5750,10800 5549,10801 5386,10964 5385,11166 L 5385,11168 C 5385,11267 5425,11359 5496,11428 5526,11457 5542,11496 5542,11537 L 5542,11537 5542,11639 5344,11639 4402,11637 C 4373,11637 4346,11648 4326,11668 4306,11688 4294,11716 4294,11744 L 4293,12603 C 4293,12604 4293,12604 4293,12604 4293,12632 4304,12659 4324,12679 4344,12700 4372,12711 4400,12711 L 4564,12711 C 4594,12711 4621,12699 4642,12679 4691,12628 4758,12600 4829,12600 4972,12600 5088,12717 5088,12860 5088,13004 4971,13120 4828,13120 4757,13120 4690,13092 4641,13040 4621,13019 4593,13008 4564,13008 L 4399,13007 C 4340,13007 4292,13055 4292,13114 L 4293,13992 C 4293,13992 4293,13992 4293,13992 4293,14051 4341,14099 4400,14099 L 5495,14100 C 5523,14100 5551,14089 5571,14069 5591,14049 5602,14021 5602,13993 L 5602,13902 C 5602,13902 5602,13902 5602,13902 5602,13873 5591,13845 5570,13825 5519,13775 5491,13710 5491,13639 L 5491,13638 C 5491,13495 5607,13379 5750,13378 5893,13379 6009,13495 6009,13638 L 6009,13639 C 6009,13710 5981,13775 5930,13825 5909,13845 5898,13873 5898,13902 5898,13902 5898,13902 5898,13902 L 5898,13993 C 5898,14021 5909,14049 5929,14069 5949,14089 5977,14100 6005,14100 L 7100,14099 C 7159,14099 7207,14051 7207,13992 7207,13992 7207,13992 7207,13992 L 7208,13114 C 7208,13055 7160,13007 7101,13007 L 7101,13007 Z"/>
        </g>
       </g>
      </g>
      <g class="Graphic">
       <g id="id6">
        <rect class="BoundingBox" stroke="none" fill="none" x="6000" y="8201" width="3600" height="3600"/>
        <path fill="rgb(0,0,0)" stroke="none" d="M 6643,10504 C 6823,10324 7116,10324 7296,10504 7476,10684 7476,10977 7296,11157 7273,11181 7247,11201 7221,11218 L 7799,11797 8378,11218 C 8352,11201 8326,11181 8303,11157 8123,10977 8123,10684 8303,10504 8483,10324 8776,10324 8956,10504 8980,10527 9000,10553 9017,10579 L 9596,10000 9017,9422 C 9044,9404 9069,9384 9092,9361 9273,9180 9273,8888 9092,8708 8912,8527 8619,8527 8439,8708 8416,8731 8396,8756 8378,8783 L 7799,8204 7221,8783 C 7203,8756 7183,8731 7160,8708 6979,8527 6687,8527 6507,8708 6326,8888 6326,9180 6507,9361 6530,9384 6555,9404 6582,9422 L 6003,10000 6582,10579 C 6599,10553 6619,10527 6643,10504 L 6643,10504 Z"/>
       </g>
      </g>
      <g class="Group">
       <g class="com.sun.star.drawing.PolyPolygonShape">
        <g id="id7">
         <rect class="BoundingBox" stroke="none" fill="none" x="13049" y="3749" width="3403" height="3403"/>
         <path fill="none" stroke="rgb(0,0,0)" stroke-width="100" stroke-linejoin="miter" d="M 13688,5912 L 13720,5883 13754,5858 13790,5837 13828,5819 13867,5806 13907,5796 13947,5790 13988,5788 14028,5790 14069,5796 14108,5806 14147,5819 14185,5837 14221,5858 14255,5883 14288,5912 14317,5945 14342,5979 14363,6015 14381,6053 14394,6092 14404,6131 14410,6172 14412,6212 14410,6253 14404,6293 14394,6333 14381,6372 14363,6410 14342,6446 14317,6480 14288,6512 14280,6520 14271,6528 14254,6543 14237,6556 14219,6568 14750,7100 15281,6568 15263,6556 15246,6543 15229,6528 15220,6520 15212,6512 15183,6480 15158,6446 15137,6410 15119,6372 15106,6333 15096,6293 15090,6253 15088,6212 15090,6172 15096,6131 15106,6092 15119,6053 15137,6015 15158,5979 15183,5945 15212,5912 15245,5883 15279,5858 15315,5837 15353,5819 15392,5806 15431,5796 15472,5790 15512,5788 15553,5790 15593,5796 15633,5806 15672,5819 15710,5837 15746,5858 15780,5883 15812,5912 15820,5920 15828,5929 15843,5946 15856,5963 15868,5981 16400,5450 15868,4919 15886,4906 15904,4892 15921,4878 15937,4863 15966,4830 15992,4796 16013,4760 16031,4722 16044,4683 16054,4643 16060,4603 16062,4562 16060,4522 16054,4481 16044,4442 16031,4403 16013,4365 15992,4329 15966,4295 15937,4263 15905,4234 15871,4208 15835,4187 15797,4169 15758,4156 15718,4146 15678,4140 15637,4138 15597,4140 15556,4146 15516,4156 15478,4169 15440,4187 15404,4208 15370,4234 15337,4263 15322,4279 15308,4296 15294,4314 15281,4332 14750,3800 14219,4332 14206,4314 14192,4296 14178,4279 14163,4263 14130,4234 14096,4208 14060,4187 14022,4169 13983,4156 13943,4146 13903,4140 13862,4138 13822,4140 13781,4146 13742,4156 13703,4169 13665,4187 13629,4208 13595,4234 13563,4263 13534,4295 13508,4329 13487,4365 13469,4403 13456,4442 13446,4481 13440,4522 13438,4562 13440,4603 13446,4643 13456,4683 13469,4722 13487,4760 13508,4796 13534,4830 13563,4863 13579,4878 13596,4892 13614,4906 13632,4919 13100,5450 13632,5981 13644,5963 13657,5946 13672,5929 13680,5920 13688,5912 Z"/>
        </g>
       </g>
      </g>
      <g class="com.sun.star.drawing.PolyPolygonShape">
       <g id="id8">
        <rect class="BoundingBox" stroke="none" fill="none" x="16849" y="4085" width="2964" height="3166"/>
        <path fill="none" stroke="rgb(0,0,0)" stroke-width="100" stroke-linejoin="miter" d="M 18327,4136 L 18839,4722 18810,4726 18781,4733 18753,4743 18725,4755 18698,4769 18672,4786 18647,4805 18623,4827 18597,4857 18573,4888 18553,4922 18537,4957 18524,4993 18514,5030 18507,5068 18504,5107 18505,5145 18509,5184 18516,5221 18527,5258 18541,5295 18559,5329 18580,5363 18605,5394 18633,5422 18662,5447 18694,5469 18726,5486 18760,5501 18795,5511 18831,5518 18867,5521 18903,5521 18939,5516 18974,5509 19009,5497 19043,5482 19075,5463 19106,5440 19136,5413 19158,5390 19178,5364 19195,5338 19210,5310 19223,5281 19234,5251 19243,5221 19249,5190 19762,5776 19267,6269 19296,6276 19325,6285 19353,6297 19380,6311 19405,6327 19430,6346 19454,6367 19476,6391 19501,6422 19522,6455 19540,6490 19555,6526 19565,6563 19573,6601 19577,6639 19577,6678 19574,6716 19568,6754 19558,6791 19545,6828 19528,6863 19508,6896 19485,6928 19458,6957 19429,6984 19397,7007 19365,7026 19331,7041 19296,7052 19261,7060 19225,7064 19189,7065 19153,7062 19118,7055 19083,7044 19049,7030 19016,7013 18985,6991 18955,6966 18927,6938 18907,6912 18889,6886 18873,6858 18860,6829 18848,6799 18839,6769 18833,6738 18828,6708 18335,7200 18335,7200 17822,6614 17851,6609 17880,6602 17908,6593 17936,6581 17963,6566 17989,6549 18014,6530 18038,6508 18065,6479 18088,6447 18108,6414 18125,6379 18138,6342 18148,6305 18154,6267 18157,6229 18156,6190 18152,6152 18145,6114 18134,6077 18120,6041 18102,6006 18081,5972 18056,5941 18028,5912 17999,5888 17967,5866 17935,5849 17901,5835 17866,5824 17830,5818 17794,5814 17758,5815 17723,5819 17687,5827 17652,5839 17619,5854 17586,5873 17555,5896 17525,5923 17503,5946 17484,5972 17466,5998 17451,6026 17438,6054 17427,6084 17418,6114 17412,6145 16900,5559 17393,5066 17365,5060 17336,5050 17309,5039 17282,5025 17256,5009 17231,4990 17207,4969 17185,4945 17160,4914 17139,4881 17121,4846 17107,4810 17096,4772 17089,4735 17085,4696 17084,4658 17087,4619 17093,4582 17103,4544 17116,4508 17133,4473 17153,4440 17176,4408 17203,4379 17233,4352 17264,4330 17296,4310 17330,4295 17365,4284 17400,4276 17436,4271 17472,4271 17508,4274 17544,4281 17579,4291 17613,4305 17646,4323 17677,4344 17707,4369 17734,4398 17755,4423 17773,4450 17788,4478 17802,4506 17813,4536 17822,4566 17828,4597 17833,4629 18327,4136 18327,4136 Z"/>
       </g>
      </g>
      <g class="Graphic">
       <g id="id9">
        <rect class="BoundingBox" stroke="none" fill="none" x="-301" y="1900" width="4527" height="4527"/>
        <path fill="rgb(0,0,0)" stroke="none" d="M 1328,4966 C 1270,5022 1202,5061 1130,5083 L 1688,5658 2263,5099 C 2285,5172 2324,5240 2381,5298 2570,5492 2881,5497 3075,5308 3270,5119 3274,4808 3085,4613 3029,4555 2962,4514 2890,4490 L 3465,3931 2906,3356 C 2882,3428 2841,3495 2783,3552 2588,3741 2277,3736 2088,3542 1899,3347 1904,3036 2098,2847 2156,2791 2224,2752 2297,2730 L 1738,2155 -39,3882 520,4457 C 544,4385 585,4318 643,4261 838,4072 1149,4077 1338,4271 1527,4466 1523,4777 1328,4966 L 1328,4966 Z"/>
       </g>
      </g>
      <g class="com.sun.star.drawing.PolyPolygonShape">
       <g id="id10">
        <rect class="BoundingBox" stroke="none" fill="none" x="15150" y="6990" width="3430" height="3562"/>
        <path fill="none" stroke="rgb(0,0,0)" stroke-width="100" stroke-linejoin="miter" d="M 17990,8857 L 18017,8871 18042,8887 18066,8904 18089,8922 18111,8942 18131,8962 18149,8984 18167,9006 18529,8291 17813,7929 17836,7912 17858,7893 17878,7873 17897,7852 17916,7829 17933,7805 17948,7780 17963,7754 17983,7708 17999,7661 18009,7613 18015,7565 18016,7518 18012,7470 18004,7424 17991,7379 17974,7335 17954,7292 17928,7252 17900,7214 17867,7179 17830,7147 17790,7119 17746,7094 17701,7074 17654,7058 17606,7048 17559,7042 17511,7041 17464,7045 17417,7053 17372,7065 17328,7082 17286,7103 17246,7128 17208,7157 17173,7190 17141,7226 17112,7266 17087,7310 17074,7337 17063,7365 17054,7393 17046,7421 17041,7449 17037,7478 17034,7506 17034,7534 16319,7172 15956,7888 15985,7888 16013,7890 16042,7894 16070,7900 16098,7908 16127,7917 16154,7928 16182,7941 16225,7966 16265,7995 16302,8027 16335,8062 16363,8099 16388,8140 16409,8182 16426,8226 16439,8271 16447,8318 16451,8365 16450,8413 16444,8460 16434,8508 16418,8555 16398,8601 16373,8644 16344,8684 16312,8721 16277,8754 16239,8783 16199,8808 16157,8829 16113,8845 16067,8858 16021,8866 15974,8870 15926,8869 15878,8863 15831,8853 15784,8837 15738,8817 15712,8802 15686,8787 15662,8769 15640,8751 15618,8731 15598,8711 15579,8689 15562,8667 15200,9381 17410,10500 17772,9786 17743,9785 17715,9783 17686,9778 17658,9773 17630,9765 17602,9756 17574,9745 17547,9732 17503,9708 17463,9679 17427,9647 17394,9612 17365,9574 17340,9534 17319,9491 17302,9447 17290,9402 17282,9356 17278,9308 17279,9261 17285,9213 17295,9166 17310,9119 17331,9073 17356,9029 17384,8989 17416,8952 17452,8920 17489,8891 17530,8866 17572,8845 17616,8828 17661,8815 17708,8807 17755,8804 17803,8805 17850,8810 17898,8821 17944,8836 17990,8857 Z"/>
       </g>
      </g>
      <g class="com.sun.star.drawing.PolyPolygonShape">
       <g id="id11">
        <rect class="BoundingBox" stroke="none" fill="none" x="534" y="6849" width="8118" height="7818"/>
        <path fill="none" stroke="rgb(0,0,0)" stroke-width="100" stroke-linejoin="miter" d="M 3178,6900 L 3160,6946 3151,6970 3143,6995 3123,7063 3106,7133 3094,7204 3087,7275 3087,7344 3090,7378 3095,7411 3101,7444 3110,7476 3121,7506 3135,7535 3140,7546 3145,7553 3150,7561 3155,7569 3188,7544 3227,7518 3271,7493 3320,7471 3375,7451 3404,7443 3435,7437 3467,7432 3500,7428 3535,7426 3572,7427 3603,7428 3633,7432 3662,7438 3690,7445 3718,7454 3744,7465 3770,7478 3795,7491 3818,7506 3841,7522 3863,7540 3883,7558 3902,7577 3920,7597 3937,7618 3953,7639 3980,7683 4004,7729 4024,7777 4041,7825 4054,7875 4065,7926 4071,7977 4075,8028 4077,8079 4075,8130 4071,8181 4063,8231 4052,8281 4038,8329 4021,8376 4000,8422 3974,8467 3945,8509 3928,8529 3910,8549 3891,8567 3871,8585 3850,8601 3827,8616 3804,8630 3780,8642 3754,8652 3727,8661 3700,8668 3671,8673 3624,8678 3579,8679 3536,8677 3494,8672 3454,8664 3416,8654 3380,8643 3346,8630 3283,8601 3227,8570 3141,8516 3136,8513 3131,8511 3123,8507 3117,8505 3114,8503 3111,8501 3104,8511 3103,8514 3101,8518 3098,8523 3095,8529 3094,8531 3094,8533 3092,8540 3090,8559 3089,8586 3089,8620 3091,8661 3096,8708 3104,8759 3116,8814 3138,8900 3150,8945 3165,8991 3422,8992 3547,8998 3668,9008 3785,9023 3896,9043 4000,9068 4096,9100 4182,9133 4221,9151 4256,9170 4288,9191 4303,9202 4318,9214 4331,9227 4344,9240 4357,9255 4369,9270 4379,9286 4388,9303 4395,9320 4401,9337 4405,9355 4408,9373 4410,9390 4411,9408 4411,9425 4410,9442 4405,9474 4398,9503 4389,9529 4318,9695 4305,9737 4301,9759 4297,9782 4295,9806 4295,9832 4295,9860 4298,9889 4302,9910 4304,9920 4307,9928 4309,9936 4312,9943 4316,9949 4320,9955 4324,9961 4329,9966 4334,9970 4339,9975 4345,9979 4351,9983 4365,9991 4373,9995 4382,9998 4401,10005 4422,10010 4444,10014 4469,10016 4494,10017 4521,10015 4549,10012 4576,10008 4604,10001 4630,9994 4656,9984 4681,9973 4705,9961 4727,9948 4749,9934 4768,9919 4786,9903 4802,9886 4816,9868 4828,9850 4837,9832 4844,9813 4848,9795 4854,9747 4855,9728 4856,9711 4854,9696 4852,9683 4849,9672 4845,9662 4840,9653 4834,9644 4827,9636 4820,9628 4782,9587 4759,9556 4753,9546 4746,9535 4740,9522 4734,9508 4732,9500 4729,9491 4727,9482 4726,9473 4725,9452 4726,9432 4728,9411 4733,9391 4735,9381 4739,9372 4743,9363 4747,9354 4756,9338 4766,9324 4776,9311 4786,9299 4797,9288 4808,9277 4820,9268 4832,9259 4858,9243 4886,9227 4951,9193 4979,9180 5007,9168 5036,9159 5065,9151 5095,9146 5125,9141 5186,9137 5248,9137 5312,9142 5445,9159 5541,9176 5640,9196 5846,9243 5791,9025 5768,8918 5750,8814 5740,8746 5732,8680 5729,8614 5729,8551 5735,8489 5740,8459 5747,8429 5756,8399 5767,8370 5779,8342 5794,8313 5837,8246 5857,8217 5868,8204 5879,8191 5890,8178 5902,8166 5915,8153 5930,8141 5938,8136 5947,8130 5956,8125 5966,8121 5976,8116 5987,8112 5999,8109 6012,8106 6025,8104 6038,8103 6051,8103 6064,8104 6076,8105 6089,8108 6101,8111 6113,8114 6124,8119 6134,8123 6154,8133 6163,8138 6170,8144 6177,8149 6184,8154 6195,8164 6204,8174 6213,8183 6220,8192 6226,8201 6232,8209 6242,8224 6262,8251 6280,8274 6288,8284 6296,8292 6304,8300 6308,8303 6312,8305 6319,8310 6327,8315 6331,8317 6335,8319 6340,8321 6345,8322 6350,8323 6356,8324 6363,8325 6371,8325 6388,8324 6410,8322 6417,8320 6425,8319 6433,8316 6441,8313 6448,8310 6456,8306 6463,8301 6471,8296 6478,8290 6486,8284 6501,8269 6515,8251 6529,8230 6543,8207 6556,8182 6567,8155 6577,8126 6585,8097 6592,8066 6596,8035 6599,8003 6600,7973 6598,7942 6595,7913 6590,7885 6584,7859 6576,7835 6566,7813 6561,7803 6556,7794 6545,7778 6534,7764 6529,7758 6523,7752 6517,7747 6510,7742 6503,7738 6496,7735 6488,7732 6479,7729 6469,7727 6459,7725 6436,7723 6406,7722 6380,7723 6358,7725 6340,7728 6324,7733 6312,7737 6302,7742 6293,7747 6286,7751 6280,7756 6274,7761 6269,7767 6264,7774 6259,7781 6248,7799 6231,7826 6224,7835 6214,7845 6200,7856 6183,7869 6177,7872 6171,7875 6157,7881 6142,7887 6125,7891 6107,7894 6090,7896 6081,7896 6072,7896 6063,7895 6055,7894 6038,7890 6023,7884 6010,7879 5998,7872 5988,7865 5979,7859 5972,7852 5965,7845 5943,7822 5925,7800 5910,7778 5896,7755 5838,7634 5816,7586 5797,7538 5781,7490 5768,7442 5750,7346 5740,7250 5739,7157 5745,7067 5756,6981 5771,6900 3178,6900 Z"/>
        <path fill="none" stroke="rgb(0,0,0)" stroke-width="100" stroke-linejoin="miter" d="M 6093,6900 L 6077,6969 6064,7043 6055,7121 6051,7200 6053,7280 6057,7319 6063,7359 6071,7397 6082,7435 6095,7472 6111,7508 6112,7508 6112,7509 6113,7510 6113,7510 6114,7513 6121,7507 6124,7505 6126,7504 6128,7503 6159,7485 6193,7470 6230,7457 6269,7446 6311,7438 6356,7433 6403,7431 6453,7432 6483,7434 6512,7439 6540,7445 6568,7453 6594,7462 6620,7473 6645,7486 6668,7499 6691,7514 6713,7530 6733,7547 6753,7565 6771,7584 6787,7604 6803,7624 6817,7645 6841,7689 6861,7734 6877,7780 6889,7827 6897,7875 6902,7923 6903,7971 6901,8020 6897,8068 6890,8116 6880,8163 6868,8210 6852,8256 6833,8301 6811,8344 6786,8386 6758,8426 6725,8464 6689,8500 6669,8516 6649,8532 6628,8546 6605,8559 6582,8571 6558,8582 6533,8592 6507,8599 6481,8606 6453,8610 6406,8614 6360,8614 6316,8610 6274,8603 6234,8592 6196,8578 6162,8561 6146,8552 6131,8542 6120,8533 6109,8525 6089,8507 6071,8489 6055,8470 6051,8480 6048,8491 6043,8517 6039,8548 6037,8584 6037,8625 6038,8670 6042,8719 6049,8772 6072,8898 6104,9033 6180,9323 6180,9324 6180,9324 6180,9325 6180,9325 6181,9325 6181,9325 6181,9326 6181,9326 6181,9326 6181,9326 6181,9326 6181,9326 6182,9326 6182,9326 6182,9326 6182,9327 6183,9327 6398,9378 6501,9399 6599,9416 6662,9424 6722,9430 6778,9433 6829,9434 6875,9433 6916,9429 6952,9424 6967,9420 6980,9416 6992,9412 7002,9408 7010,9404 7017,9401 7024,9398 7029,9394 7039,9388 7039,9387 7039,9387 7039,9386 7039,9386 7039,9386 7039,9386 7038,9386 7038,9386 7038,9385 7038,9385 6973,9300 6935,9245 6897,9180 6879,9145 6863,9107 6848,9067 6836,9025 6827,8981 6821,8934 6819,8886 6820,8835 6824,8806 6829,8777 6837,8750 6847,8723 6858,8698 6872,8673 6887,8649 6903,8627 6921,8606 6940,8586 6960,8567 6982,8550 7004,8535 7027,8521 7050,8509 7074,8498 7099,8489 7124,8481 7150,8474 7175,8469 7201,8464 7226,8460 7252,8458 7278,8456 7331,8455 7384,8457 7437,8462 7464,8466 7490,8470 7542,8481 7594,8494 7646,8510 7696,8528 7745,8549 7793,8573 7840,8599 7884,8628 7927,8659 7968,8693 8005,8730 8038,8771 8054,8792 8068,8814 8080,8837 8092,8861 8101,8886 8110,8912 8116,8938 8121,8965 8126,9006 8127,9046 8125,9084 8121,9120 8114,9155 8105,9188 8094,9219 8081,9248 8068,9276 8053,9302 8023,9349 7993,9389 7966,9422 7969,9425 7989,9433 8011,9439 8037,9444 8064,9447 8125,9449 8191,9446 8263,9438 8336,9425 8411,9409 8484,9388 8514,9379 8543,9369 8600,9349 8600,6900 6093,6900 Z"/>
        <path fill="none" stroke="rgb(0,0,0)" stroke-width="100" stroke-linejoin="miter" d="M 7190,8767 L 7173,8775 7159,8782 7153,8786 7148,8789 7143,8793 7139,8798 7136,8802 7133,8808 7130,8813 7128,8820 7126,8827 7125,8835 7123,8854 7122,8883 7123,8910 7126,8936 7131,8960 7138,8984 7146,9007 7156,9029 7167,9050 7193,9092 7222,9132 7285,9216 7301,9238 7317,9262 7325,9275 7332,9288 7339,9302 7346,9316 7352,9333 7358,9351 7362,9371 7364,9391 7365,9413 7364,9434 7361,9456 7359,9467 7356,9478 7347,9500 7338,9520 7326,9538 7314,9555 7301,9571 7286,9585 7270,9599 7253,9611 7235,9623 7216,9634 7175,9654 7131,9672 7085,9689 7054,9699 7023,9708 6960,9720 6896,9727 6830,9729 6762,9728 6693,9722 6550,9704 6409,9679 6337,9664 6265,9647 6295,9783 6309,9850 6320,9917 6330,9987 6338,10055 6342,10122 6343,10188 6338,10252 6328,10315 6321,10346 6312,10376 6301,10406 6288,10435 6254,10511 6238,10543 6222,10572 6213,10586 6203,10599 6193,10611 6182,10624 6169,10636 6155,10647 6140,10659 6123,10670 6114,10675 6103,10680 6092,10684 6081,10687 6069,10690 6056,10692 6031,10695 6005,10696 5993,10695 5981,10694 5969,10692 5958,10689 5948,10686 5938,10683 5922,10675 5907,10667 5895,10659 5885,10651 5876,10643 5868,10636 5854,10621 5808,10573 5786,10553 5775,10544 5762,10536 5749,10529 5734,10523 5717,10518 5698,10515 5676,10512 5652,10510 5594,10511 5573,10513 5563,10514 5555,10516 5547,10519 5540,10521 5533,10524 5527,10528 5522,10532 5517,10537 5512,10542 5507,10548 5498,10562 5488,10579 5484,10588 5479,10598 5472,10621 5465,10645 5461,10672 5457,10701 5456,10731 5456,10763 5458,10794 5463,10827 5469,10860 5477,10892 5487,10922 5498,10951 5510,10978 5523,11003 5537,11025 5551,11045 5564,11060 5570,11066 5576,11072 5582,11077 5588,11081 5593,11084 5598,11087 5603,11090 5608,11091 5613,11093 5617,11094 5622,11094 5626,11094 5647,11094 5668,11092 5687,11090 5706,11086 5724,11081 5741,11075 5775,11061 5919,10986 5942,10975 5967,10964 5996,10955 6011,10951 6026,10948 6042,10946 6059,10944 6076,10944 6093,10944 6111,10946 6129,10949 6147,10954 6165,10960 6183,10967 6199,10976 6215,10985 6230,10995 6243,11006 6256,11017 6269,11030 6281,11043 6303,11071 6323,11101 6342,11134 6361,11169 6389,11234 6414,11304 6434,11379 6452,11460 6465,11544 6476,11633 6490,11819 6496,11818 6502,11818 6514,11816 6538,11811 6677,11792 6744,11786 6810,11784 6875,11785 6939,11792 7001,11804 7032,11812 7062,11822 7108,11839 7149,11856 7168,11865 7186,11875 7204,11884 7221,11895 7238,11907 7254,11920 7271,11935 7286,11952 7300,11970 7306,11980 7312,11990 7317,12001 7322,12012 7326,12024 7329,12037 7331,12049 7333,12062 7333,12074 7333,12086 7332,12097 7330,12109 7328,12120 7326,12130 7319,12151 7311,12169 7303,12185 7294,12200 7285,12213 7276,12226 7267,12237 7257,12247 7221,12284 7154,12348 7125,12379 7112,12394 7100,12409 7090,12425 7081,12442 7073,12459 7068,12477 7064,12496 7062,12516 7062,12538 7064,12561 7066,12570 7068,12578 7071,12587 7074,12595 7078,12603 7083,12611 7088,12619 7095,12628 7102,12635 7109,12643 7118,12651 7127,12659 7149,12674 7174,12689 7202,12705 7233,12719 7267,12731 7302,12743 7339,12752 7378,12760 7417,12766 7457,12770 7496,12772 7535,12773 7573,12771 7610,12767 7645,12762 7677,12755 7707,12746 7734,12737 7757,12726 7775,12716 7783,12712 7790,12707 7796,12702 7802,12697 7806,12692 7810,12687 7814,12681 7817,12676 7819,12670 7821,12665 7823,12659 7824,12652 7826,12631 7827,12610 7825,12591 7822,12572 7817,12553 7811,12536 7804,12518 7795,12501 7773,12467 7748,12432 7687,12356 7654,12311 7637,12286 7621,12258 7615,12243 7608,12227 7603,12211 7599,12194 7596,12176 7594,12158 7593,12138 7594,12118 7597,12097 7602,12077 7608,12058 7616,12039 7625,12021 7636,12004 7648,11987 7662,11971 7676,11956 7692,11941 7727,11913 7765,11887 7806,11863 7853,11840 7901,11821 7950,11805 8000,11794 8050,11786 8100,11781 8150,11780 8200,11781 8298,11789 8395,11806 8487,11828 8574,11853 8578,11854 8581,11855 8584,11856 8587,11857 8594,11859 8597,11860 8600,11861 8600,9658 8597,9660 8594,9661 8588,9663 8583,9664 8577,9666 8491,9692 8402,9715 8309,9733 8215,9745 8167,9748 8119,9748 8071,9746 8023,9741 7976,9733 7928,9721 7882,9705 7835,9686 7800,9669 7768,9651 7752,9642 7738,9632 7723,9621 7710,9610 7696,9597 7682,9583 7670,9568 7658,9552 7648,9534 7639,9515 7632,9495 7629,9484 7626,9473 7625,9463 7625,9452 7624,9442 7625,9431 7627,9412 7631,9393 7637,9375 7643,9359 7650,9345 7657,9332 7672,9309 7687,9289 7714,9255 7765,9200 7786,9175 7795,9162 7803,9149 7810,9135 7816,9121 7821,9106 7824,9089 7826,9071 7826,9052 7825,9031 7822,9007 7820,9000 7819,8992 7816,8984 7812,8976 7808,8967 7803,8958 7798,8949 7791,8940 7776,8922 7757,8903 7735,8884 7710,8865 7681,8847 7650,8830 7617,8814 7582,8799 7546,8786 7509,8775 7472,8765 7434,8758 7407,8753 7380,8750 7353,8748 7327,8748 7306,8748 7287,8749 7268,8751 7250,8753 7233,8756 7217,8759 7203,8763 7190,8767 Z"/>
        <path fill="none" stroke="rgb(0,0,0)" stroke-width="100" stroke-linejoin="miter" d="M 3257,9282 L 3279,9349 3370,9642 3409,9787 3441,9928 3453,9997 3462,10064 3467,10131 3468,10196 3463,10260 3458,10291 3452,10322 3444,10352 3433,10382 3421,10412 3407,10441 3386,10481 3364,10516 3353,10532 3342,10548 3318,10578 3304,10592 3289,10606 3272,10619 3253,10632 3242,10637 3232,10642 3220,10647 3209,10651 3196,10654 3183,10657 3170,10659 3156,10660 3142,10660 3129,10659 3117,10658 3104,10655 3093,10652 3081,10649 3070,10645 3060,10640 3041,10630 3024,10618 3009,10607 2996,10595 2976,10575 2960,10556 2945,10538 2932,10519 2905,10484 2879,10453 2866,10438 2854,10426 2841,10414 2828,10404 2815,10395 2803,10387 2796,10384 2789,10381 2782,10378 2774,10375 2766,10373 2757,10372 2748,10370 2738,10370 2716,10370 2690,10372 2680,10373 2671,10375 2662,10378 2653,10381 2644,10385 2635,10389 2627,10394 2619,10400 2611,10406 2602,10413 2594,10421 2586,10429 2571,10449 2555,10472 2540,10499 2527,10529 2515,10561 2505,10595 2496,10630 2488,10667 2483,10705 2479,10743 2478,10781 2480,10819 2483,10856 2488,10892 2495,10926 2503,10957 2513,10987 2525,11013 2537,11036 2549,11055 2555,11064 2561,11071 2567,11078 2573,11083 2579,11089 2585,11093 2592,11097 2599,11100 2605,11103 2612,11105 2620,11106 2627,11108 2652,11110 2675,11111 2698,11110 2719,11107 2740,11103 2760,11097 2779,11090 2798,11081 2836,11061 2873,11038 2955,10982 3000,10952 3026,10937 3054,10923 3069,10917 3085,10911 3101,10906 3119,10902 3137,10900 3156,10898 3176,10897 3197,10898 3218,10901 3238,10905 3258,10911 3277,10918 3295,10927 3313,10937 3330,10948 3347,10961 3363,10975 3378,10990 3407,11022 3432,11057 3456,11094 3470,11122 3482,11150 3492,11178 3500,11207 3506,11236 3511,11265 3515,11325 3513,11386 3507,11449 3488,11580 3460,11716 3425,11858 3345,12151 3335,12183 3551,12166 3652,12153 3748,12137 3835,12120 3914,12100 3983,12079 4012,12068 4039,12056 4039,12056 4040,12056 4040,12056 4040,12056 4040,12056 4040,12056 4040,12056 4040,12056 4040,12056 4040,12056 4040,12056 4040,12056 4040,12056 4040,12056 4040,12055 4040,12055 4040,12054 4023,12025 4007,11994 3994,11960 3984,11923 3976,11884 3971,11842 3969,11798 3970,11751 3972,11722 3976,11694 3982,11667 3989,11640 3999,11614 4009,11589 4021,11565 4035,11542 4049,11519 4065,11498 4082,11478 4100,11459 4119,11440 4139,11423 4159,11408 4180,11393 4223,11367 4268,11345 4314,11326 4362,11312 4410,11300 4459,11292 4508,11286 4557,11283 4606,11283 4655,11284 4703,11289 4751,11296 4798,11307 4843,11320 4887,11337 4929,11357 4951,11369 4971,11381 4991,11395 5011,11411 5029,11427 5047,11444 5063,11463 5079,11482 5093,11502 5106,11524 5117,11546 5127,11569 5134,11593 5140,11618 5144,11644 5146,11670 5144,11730 5137,11786 5126,11837 5111,11883 5095,11923 5078,11959 5061,11988 5047,12012 5061,12022 5078,12034 5099,12047 5125,12060 5132,12063 5140,12067 5151,12070 5163,12072 5193,12077 5228,12079 5269,12080 5315,12079 5366,12075 5421,12067 5541,12046 5672,12017 5954,11945 6187,11886 6173,11695 6162,11607 6150,11526 6136,11453 6121,11390 6105,11338 6096,11316 6088,11297 6083,11287 6078,11278 6074,11271 6070,11265 6066,11259 6062,11255 6056,11247 5992,11283 5948,11306 5897,11330 5839,11352 5807,11362 5774,11371 5738,11378 5701,11383 5662,11386 5622,11387 5594,11385 5567,11382 5541,11376 5515,11369 5491,11360 5467,11350 5445,11338 5423,11325 5402,11310 5382,11295 5363,11278 5345,11261 5312,11224 5282,11186 5257,11145 5235,11103 5215,11059 5198,11014 5184,10968 5172,10921 5163,10873 5157,10825 5153,10777 5151,10728 5153,10679 5158,10631 5167,10583 5180,10536 5197,10490 5218,10444 5231,10422 5246,10401 5262,10380 5279,10361 5298,10342 5318,10324 5339,10307 5361,10291 5385,10277 5410,10264 5436,10252 5462,10242 5490,10234 5518,10227 5548,10222 5578,10220 5614,10219 5648,10220 5681,10222 5713,10227 5744,10233 5773,10240 5827,10258 5876,10279 5920,10302 5958,10327 5992,10351 5994,10346 5997,10341 5999,10337 6002,10333 6008,10325 6011,10319 6014,10313 6018,10302 6022,10289 6029,10258 6034,10221 6036,10178 6037,10130 6034,10077 6029,10020 6020,9960 6004,9868 5984,9771 5933,9566 5649,9497 5518,9469 5398,9448 5341,9440 5288,9436 5240,9434 5198,9435 5162,9437 5132,9440 5120,9443 5110,9445 5102,9447 5096,9450 5091,9453 5087,9455 5080,9460 5073,9464 5066,9469 5084,9499 5103,9534 5120,9574 5135,9618 5146,9667 5150,9693 5153,9720 5154,9747 5154,9776 5152,9806 5148,9837 5138,9887 5122,9935 5103,9979 5078,10021 5051,10060 5019,10096 4985,10130 4947,10160 4907,10188 4866,10213 4822,10234 4777,10254 4731,10270 4684,10283 4637,10294 4590,10302 4544,10307 4496,10309 4449,10307 4402,10303 4355,10295 4309,10283 4264,10267 4220,10247 4199,10235 4179,10222 4159,10207 4140,10191 4121,10174 4104,10156 4087,10136 4072,10116 4058,10095 4045,10072 4033,10049 4023,10025 4014,10000 4006,9974 4000,9948 3996,9921 3993,9875 3992,9830 3994,9788 3998,9747 4012,9671 4031,9604 4052,9545 4073,9496 4092,9456 4104,9427 4099,9424 4091,9419 4082,9413 4070,9407 4054,9399 4036,9391 3988,9372 3926,9352 3853,9335 3771,9320 3681,9307 3585,9297 3482,9289 3267,9282 3257,9282 Z"/>
        <path fill="none" stroke="rgb(0,0,0)" stroke-width="100" stroke-linejoin="miter" d="M 2219,9445 L 2208,9451 2199,9456 2191,9461 2184,9466 2178,9470 2173,9474 2164,9482 2211,9546 2239,9590 2268,9641 2282,9670 2294,9701 2305,9733 2314,9768 2321,9804 2325,9842 2326,9881 2324,9923 2321,9949 2316,9974 2308,9999 2299,10022 2288,10045 2275,10066 2261,10087 2246,10106 2229,10125 2211,10142 2192,10159 2173,10174 2152,10187 2132,10200 2110,10211 2089,10221 2044,10238 1999,10251 1953,10261 1906,10268 1859,10272 1810,10273 1762,10271 1713,10267 1665,10259 1617,10250 1569,10237 1522,10222 1475,10204 1430,10184 1386,10160 1344,10133 1304,10103 1266,10069 1231,10031 1200,9989 1186,9967 1173,9945 1161,9921 1151,9897 1142,9872 1134,9846 1128,9819 1123,9792 1119,9744 1119,9698 1123,9654 1131,9613 1141,9574 1155,9537 1171,9503 1190,9472 1197,9462 1205,9451 1221,9433 1236,9416 1251,9400 1250,9400 1249,9399 1248,9399 1246,9397 1216,9384 1185,9373 1153,9364 1119,9357 1084,9351 1049,9348 976,9345 901,9349 826,9358 752,9371 680,9388 655,9395 631,9401 608,9408 585,9416 585,12110 608,12118 631,12125 655,12132 680,12138 752,12155 826,12169 901,12178 975,12182 1049,12180 1084,12176 1119,12171 1153,12164 1186,12154 1218,12143 1248,12130 1268,12120 1283,12111 1308,12095 1283,12063 1255,12024 1227,11978 1201,11925 1189,11896 1179,11865 1170,11832 1163,11797 1159,11761 1156,11723 1157,11683 1160,11641 1164,11613 1170,11586 1177,11560 1187,11534 1197,11510 1210,11486 1223,11463 1238,11441 1254,11420 1271,11400 1290,11381 1309,11363 1328,11346 1349,11331 1370,11316 1392,11303 1437,11279 1484,11259 1531,11243 1580,11230 1629,11220 1679,11213 1729,11209 1779,11208 1830,11209 1880,11213 1929,11220 1978,11230 2026,11242 2073,11258 2119,11277 2163,11298 2205,11324 2246,11353 2265,11370 2283,11387 2300,11405 2317,11425 2332,11445 2346,11466 2359,11488 2370,11511 2380,11535 2389,11560 2395,11585 2400,11612 2404,11650 2404,11687 2402,11723 2397,11757 2391,11790 2382,11821 2371,11850 2359,11878 2333,11928 2304,11972 2276,12009 2251,12040 2257,12044 2262,12048 2270,12053 2281,12059 2303,12070 2330,12081 2396,12102 2476,12122 2569,12140 2672,12156 2782,12169 2899,12179 3020,12185 3052,12076 3131,11786 3163,11653 3188,11530 3196,11474 3201,11422 3204,11375 3204,11333 3202,11298 3199,11270 3197,11258 3195,11249 3193,11241 3190,11236 3181,11221 3175,11211 3167,11200 3160,11204 3151,11209 3140,11214 3127,11222 3039,11282 2982,11315 2918,11347 2883,11361 2846,11374 2807,11385 2766,11393 2723,11399 2678,11402 2632,11401 2583,11396 2554,11391 2526,11384 2499,11375 2473,11364 2449,11351 2425,11337 2402,11322 2381,11305 2360,11286 2341,11267 2323,11247 2306,11226 2276,11182 2251,11136 2230,11089 2213,11040 2199,10990 2188,10939 2181,10887 2177,10834 2176,10782 2178,10729 2182,10676 2189,10623 2198,10570 2211,10518 2227,10468 2246,10418 2268,10370 2294,10324 2324,10280 2359,10238 2378,10218 2399,10199 2420,10181 2443,10164 2466,10149 2491,10134 2516,10122 2543,10110 2570,10101 2599,10093 2628,10086 2658,10082 2711,10079 2761,10081 2810,10087 2856,10097 2899,10111 2940,10128 2977,10148 3010,10170 3032,10186 3052,10203 3070,10219 3086,10236 3102,10253 3116,10269 3141,10301 3145,10291 3148,10279 3154,10251 3158,10218 3160,10179 3160,10135 3157,10088 3151,10035 3141,9979 3114,9855 3078,9721 2990,9436 2943,9296 2825,9307 2712,9321 2605,9338 2505,9357 2414,9378 2335,9400 2270,9422 2242,9433 2219,9445 Z"/>
        <path fill="none" stroke="rgb(0,0,0)" stroke-width="100" stroke-linejoin="miter" d="M 1548,11552 L 1529,11564 1512,11576 1505,11583 1498,11589 1492,11596 1486,11603 1481,11610 1476,11617 1473,11625 1469,11634 1466,11642 1464,11652 1462,11662 1460,11672 1458,11700 1457,11725 1458,11748 1461,11769 1465,11788 1470,11805 1476,11821 1483,11836 1492,11850 1501,11864 1523,11890 1574,11949 1588,11967 1595,11977 1602,11987 1609,11998 1617,12011 1623,12025 1630,12040 1633,12048 1635,12056 1639,12075 1642,12095 1643,12116 1641,12138 1638,12159 1636,12169 1633,12180 1629,12190 1625,12200 1616,12218 1606,12235 1595,12251 1583,12265 1571,12279 1558,12291 1544,12303 1530,12314 1498,12334 1463,12353 1384,12393 1333,12414 1283,12433 1231,12447 1180,12459 1129,12467 1077,12472 975,12476 875,12471 778,12459 686,12441 599,12420 597,12420 596,12419 592,12418 589,12417 585,12415 585,14615 2880,14615 2865,14542 2855,14465 2851,14385 2853,14303 2864,14219 2873,14177 2884,14135 2897,14093 2914,14052 2933,14010 2956,13969 2993,13906 3009,13879 3026,13855 3043,13832 3062,13811 3084,13791 3109,13772 3116,13768 3124,13763 3141,13754 3160,13747 3181,13741 3203,13737 3214,13735 3225,13734 3236,13734 3246,13735 3257,13736 3267,13738 3286,13743 3303,13749 3317,13755 3330,13762 3341,13769 3350,13776 3358,13783 3365,13789 3402,13821 3408,13826 3414,13830 3420,13834 3427,13837 3434,13840 3443,13843 3453,13846 3464,13848 3478,13849 3495,13849 3515,13848 3539,13846 3544,13845 3550,13844 3555,13842 3561,13840 3568,13837 3574,13833 3581,13828 3588,13823 3595,13817 3602,13810 3617,13794 3632,13774 3648,13750 3663,13722 3677,13692 3690,13660 3702,13626 3712,13591 3720,13554 3727,13516 3731,13479 3733,13442 3732,13406 3730,13371 3726,13337 3720,13305 3713,13276 3704,13249 3694,13226 3683,13207 3673,13190 3668,13183 3662,13177 3657,13172 3651,13167 3645,13163 3638,13159 3631,13156 3623,13154 3615,13152 3606,13150 3586,13148 3559,13147 3535,13149 3525,13150 3515,13152 3506,13154 3497,13156 3489,13159 3481,13162 3474,13166 3467,13170 3454,13178 3441,13187 3428,13198 3416,13209 3405,13222 3394,13236 3383,13251 3372,13267 3351,13300 3329,13334 3316,13353 3308,13362 3299,13373 3294,13379 3289,13385 3283,13391 3277,13397 3269,13404 3260,13410 3251,13416 3239,13422 3233,13425 3227,13428 3212,13434 3197,13438 3180,13441 3163,13443 3145,13443 3137,13443 3128,13442 3120,13441 3111,13439 3095,13434 3081,13429 3068,13424 3056,13418 3045,13411 3035,13404 3027,13397 3019,13389 3012,13382 3006,13374 2995,13358 2978,13328 2962,13298 2946,13265 2931,13229 2914,13188 2903,13159 2895,13129 2882,13067 2875,13004 2873,12940 2876,12874 2882,12806 2903,12667 2944,12476 2825,12470 2710,12461 2599,12448 2492,12431 2392,12409 2298,12383 2211,12351 2171,12334 2132,12315 2095,12294 2061,12274 2029,12253 2001,12230 1988,12218 1975,12205 1964,12191 1954,12176 1945,12161 1936,12144 1929,12126 1923,12106 1921,12096 1919,12086 1917,12066 1918,12046 1919,12026 1923,12007 1928,11989 1934,11973 1940,11958 1947,11945 1954,11933 1961,11922 1968,11912 1996,11877 2045,11824 2065,11801 2073,11790 2081,11778 2087,11766 2093,11753 2097,11739 2100,11724 2102,11708 2102,11690 2102,11670 2099,11648 2098,11642 2097,11636 2095,11630 2092,11624 2089,11618 2086,11612 2082,11606 2077,11600 2072,11594 2066,11588 2059,11582 2052,11576 2035,11565 2015,11553 1985,11541 1954,11530 1924,11521 1894,11514 1864,11508 1835,11503 1806,11501 1778,11500 1745,11501 1713,11503 1681,11508 1650,11514 1622,11521 1595,11530 1570,11540 1548,11552 Z"/>
        <path fill="none" stroke="rgb(0,0,0)" stroke-width="100" stroke-linejoin="miter" d="M 8155,12077 L 8126,12077 8098,12079 8071,12082 8045,12087 8020,12092 7996,12099 7974,12108 7954,12118 7936,12128 7923,12136 7915,12142 7908,12146 7910,12150 7912,12153 7916,12161 7921,12170 7925,12176 7929,12182 7994,12264 8031,12316 8067,12377 8083,12410 8097,12445 8109,12482 8119,12521 8126,12561 8129,12604 8128,12648 8123,12694 8118,12722 8111,12749 8101,12775 8090,12799 8077,12823 8062,12845 8046,12867 8028,12887 8009,12906 7989,12924 7968,12941 7946,12956 7923,12970 7900,12983 7852,13006 7803,13023 7752,13038 7701,13049 7648,13057 7594,13062 7540,13064 7486,13064 7431,13061 7377,13055 7323,13047 7270,13037 7217,13023 7165,13007 7114,12988 7065,12966 7017,12941 6972,12912 6929,12879 6889,12842 6870,12822 6852,12801 6836,12779 6821,12756 6807,12732 6795,12708 6785,12682 6776,12656 6770,12628 6765,12600 6760,12555 6760,12512 6764,12470 6770,12431 6780,12393 6793,12358 6808,12324 6824,12292 6842,12263 6861,12235 6902,12184 6941,12141 6978,12104 6973,12102 6969,12101 6958,12096 6945,12092 6930,12089 6896,12083 6856,12080 6811,12079 6761,12080 6707,12084 6649,12090 6588,12099 6494,12116 6481,12378 6469,12507 6453,12632 6433,12751 6408,12865 6378,12971 6344,13067 6307,13152 6288,13189 6267,13224 6256,13240 6244,13255 6231,13269 6217,13282 6203,13295 6187,13307 6170,13318 6152,13328 6132,13337 6111,13344 6090,13349 6069,13353 6048,13355 6027,13356 6007,13355 5988,13352 5971,13348 5955,13344 5940,13339 5926,13334 5912,13328 5899,13322 5874,13310 5785,13262 5742,13239 5699,13218 5653,13201 5629,13194 5604,13188 5577,13183 5548,13180 5518,13179 5486,13179 5465,13180 5457,13181 5449,13182 5443,13184 5437,13186 5431,13188 5427,13191 5423,13194 5419,13198 5416,13203 5412,13208 5406,13220 5399,13235 5395,13244 5392,13254 5387,13277 5383,13302 5381,13330 5380,13361 5381,13392 5385,13426 5390,13459 5398,13494 5407,13528 5418,13561 5431,13594 5445,13625 5461,13654 5477,13681 5495,13706 5512,13727 5528,13744 5544,13758 5558,13768 5565,13773 5571,13776 5577,13779 5583,13782 5588,13784 5593,13785 5597,13786 5601,13787 5621,13787 5639,13786 5655,13784 5669,13781 5682,13777 5693,13773 5704,13767 5714,13761 5724,13754 5733,13746 5754,13728 5777,13707 5805,13683 5822,13669 5831,13662 5842,13654 5854,13647 5867,13640 5882,13633 5899,13628 5908,13625 5917,13623 5927,13621 5937,13620 5958,13620 5980,13621 6001,13624 6022,13628 6031,13631 6041,13635 6050,13639 6059,13643 6076,13652 6091,13661 6105,13671 6119,13681 6131,13692 6143,13703 6164,13728 6184,13755 6204,13785 6244,13853 6269,13898 6289,13944 6306,13991 6319,14038 6329,14085 6336,14133 6343,14228 6340,14322 6331,14414 6316,14503 6298,14587 6297,14591 6297,14595 6295,14601 6293,14608 6291,14615 8600,14615 8600,12171 8543,12151 8514,12141 8484,12132 8443,12120 8401,12109 8360,12100 8318,12092 8276,12086 8235,12081 8194,12078 8155,12077 Z"/>
       </g>
      </g>
      <g class="Group">
       <g class="com.sun.star.drawing.PolyPolygonShape">
        <g id="id12">
         <rect class="BoundingBox" stroke="none" fill="none" x="15634" y="350" width="3018" height="3401"/>
         <path fill="none" stroke="rgb(0,0,0)" stroke-width="100" stroke-linejoin="miter" d="M 18493,2606 L 18328,2607 18317,2608 18307,2609 18296,2612 18286,2615 18281,2618 18277,2620 18272,2623 18268,2625 18263,2629 18259,2632 18255,2636 18251,2639 18242,2649 18232,2658 18222,2666 18211,2674 18200,2681 18189,2687 18178,2693 18166,2699 18154,2704 18142,2708 18129,2711 18116,2714 18091,2718 18064,2719 18038,2718 18012,2714 17987,2708 17963,2699 17941,2688 17919,2675 17899,2660 17881,2643 17864,2625 17849,2605 17836,2583 17825,2561 17816,2537 17810,2512 17806,2486 17804,2459 17806,2433 17810,2407 17816,2382 17825,2358 17836,2336 17849,2314 17864,2294 17880,2276 17899,2259 17919,2244 17940,2231 17963,2220 17987,2211 18012,2205 18038,2201 18064,2199 18090,2201 18116,2205 18141,2211 18165,2220 18177,2225 18188,2231 18199,2238 18210,2245 18221,2252 18231,2260 18241,2269 18250,2278 18258,2286 18267,2292 18276,2297 18286,2302 18296,2306 18307,2308 18317,2310 18323,2310 18328,2310 18492,2310 18503,2310 18513,2308 18523,2306 18533,2302 18538,2300 18543,2298 18547,2295 18552,2292 18556,2289 18560,2286 18564,2282 18568,2278 18575,2271 18581,2262 18587,2253 18591,2244 18595,2234 18597,2224 18599,2214 18599,2203 18599,2202 18598,1344 18598,1338 18598,1333 18597,1328 18596,1323 18593,1313 18590,1303 18585,1293 18580,1284 18573,1276 18566,1268 18558,1261 18550,1254 18541,1249 18531,1245 18522,1241 18511,1239 18501,1237 18490,1237 17548,1239 17350,1239 17350,1137 17350,1137 17351,1122 17353,1107 17357,1092 17362,1078 17365,1071 17369,1064 17372,1058 17377,1051 17381,1045 17386,1039 17391,1033 17396,1028 17422,1001 17444,972 17463,941 17479,909 17485,892 17491,875 17496,858 17500,841 17503,823 17506,805 17507,786 17507,768 17507,766 17505,729 17500,692 17491,657 17478,624 17463,592 17444,562 17423,534 17400,508 17374,484 17346,463 17316,445 17284,429 17251,417 17216,408 17180,402 17143,400 17105,402 17069,408 17034,417 17001,429 16969,445 16939,463 16911,484 16885,508 16862,534 16841,562 16822,592 16807,624 16794,657 16785,692 16780,729 16778,766 16778,768 16778,786 16779,805 16782,823 16785,841 16789,858 16794,875 16800,892 16806,909 16822,941 16841,972 16863,1001 16889,1028 16894,1033 16899,1039 16904,1045 16908,1051 16913,1058 16916,1064 16920,1071 16923,1078 16928,1092 16932,1107 16934,1122 16935,1137 16935,1137 16935,1239 16737,1239 15795,1237 15784,1237 15774,1239 15763,1241 15754,1245 15744,1249 15735,1254 15727,1261 15719,1268 15712,1276 15705,1284 15700,1293 15695,1303 15692,1313 15689,1323 15688,1328 15687,1333 15687,1338 15687,1344 15686,2202 15686,2203 15686,2214 15688,2224 15690,2234 15694,2244 15698,2253 15704,2262 15710,2271 15717,2278 15721,2282 15725,2286 15729,2289 15733,2292 15738,2295 15742,2298 15747,2300 15752,2302 15762,2306 15772,2308 15782,2310 15793,2310 15957,2310 15968,2310 15979,2308 15989,2306 15999,2302 16009,2297 16018,2292 16027,2286 16035,2278 16044,2269 16054,2260 16064,2252 16075,2245 16086,2238 16097,2231 16108,2225 16120,2220 16144,2211 16170,2205 16195,2201 16222,2199 16248,2201 16274,2205 16299,2211 16323,2220 16345,2231 16367,2244 16386,2259 16405,2276 16422,2294 16436,2314 16449,2336 16460,2358 16469,2382 16475,2407 16479,2433 16481,2459 16479,2486 16475,2512 16469,2537 16460,2561 16449,2583 16436,2605 16421,2625 16404,2643 16386,2660 16366,2675 16344,2688 16322,2699 16298,2708 16273,2714 16247,2718 16221,2719 16194,2718 16169,2714 16156,2711 16143,2708 16131,2704 16119,2699 16107,2693 16096,2687 16085,2681 16074,2674 16063,2666 16053,2658 16043,2649 16034,2639 16030,2636 16026,2632 16022,2629 16017,2625 16013,2623 16008,2620 16004,2618 15999,2615 15989,2612 15978,2609 15968,2608 15957,2607 15792,2606 15781,2607 15770,2609 15760,2611 15750,2615 15741,2619 15732,2625 15724,2631 15716,2638 15709,2645 15703,2654 15698,2662 15693,2672 15690,2682 15687,2692 15685,2702 15685,2713 15686,3591 15686,3591 15686,3602 15688,3613 15691,3623 15694,3633 15699,3642 15704,3651 15710,3659 15717,3667 15725,3674 15733,3680 15742,3685 15751,3690 15761,3693 15771,3696 15782,3697 15793,3698 16888,3699 16898,3698 16908,3697 16919,3694 16929,3691 16938,3687 16947,3681 16952,3678 16956,3675 16960,3672 16964,3668 16967,3664 16971,3660 16974,3656 16977,3652 16982,3643 16987,3633 16990,3623 16993,3613 16994,3603 16995,3592 16995,3501 16995,3501 16994,3490 16992,3480 16990,3469 16986,3459 16984,3454 16982,3450 16979,3445 16976,3440 16973,3436 16970,3432 16966,3428 16963,3424 16945,3405 16929,3384 16915,3362 16909,3351 16904,3339 16899,3327 16895,3315 16892,3303 16889,3290 16886,3277 16885,3264 16884,3238 16884,3237 16885,3211 16889,3185 16895,3160 16904,3136 16915,3114 16928,3092 16943,3072 16959,3054 16978,3037 16998,3022 17019,3009 17042,2998 17066,2989 17090,2983 17116,2979 17143,2977 17169,2979 17195,2983 17219,2989 17243,2998 17266,3009 17287,3022 17307,3037 17326,3054 17342,3072 17357,3092 17370,3114 17381,3136 17390,3160 17396,3185 17400,3211 17401,3237 17401,3238 17400,3264 17399,3277 17396,3290 17393,3303 17390,3315 17386,3327 17381,3339 17376,3351 17370,3362 17356,3384 17340,3405 17322,3424 17319,3428 17315,3432 17312,3436 17309,3440 17306,3445 17303,3450 17301,3454 17299,3459 17295,3469 17293,3480 17291,3490 17290,3501 17290,3501 17290,3592 17291,3603 17292,3613 17295,3623 17298,3633 17303,3643 17308,3652 17311,3656 17314,3660 17318,3664 17321,3668 17325,3672 17329,3675 17333,3678 17338,3681 17347,3687 17356,3691 17366,3694 17377,3697 17387,3698 17397,3699 18492,3698 18503,3697 18514,3696 18524,3693 18534,3690 18543,3685 18552,3680 18560,3674 18568,3667 18575,3659 18581,3651 18586,3642 18591,3633 18594,3623 18597,3613 18599,3602 18599,3591 18599,3591 18600,2713 18600,2702 18598,2692 18595,2682 18592,2672 18587,2662 18582,2654 18576,2645 18569,2638 18561,2631 18553,2625 18544,2619 18535,2615 18525,2611 18515,2609 18504,2607 18493,2606 Z"/>
        </g>
       </g>
      </g>
      <g class="Group">
       <g class="Graphic">
        <g id="id13">
         <rect class="BoundingBox" stroke="none" fill="none" x="4322" y="-200" width="3210" height="3209"/>
         <path fill="rgb(0,0,0)" stroke="none" d="M 6699,1834 C 6738,1852 6772,1879 6797,1914 6822,1949 6863,1968 6905,1965 6948,1962 6985,1938 7004,1900 L 7257,1419 C 7269,1396 7261,1368 7238,1355 L 6756,1102 C 6745,1096 6742,1086 6742,1080 6742,1076 6742,1064 6754,1055 6802,1021 6840,974 6865,920 6937,763 6875,572 6726,485 6644,438 6551,427 6461,453 6371,479 6298,539 6255,621 6230,668 6217,719 6216,773 6216,787 6206,794 6202,796 6197,799 6187,803 6175,797 L 5694,544 C 5671,532 5643,541 5631,564 L 5378,1045 C 5372,1057 5361,1059 5356,1060 5351,1060 5339,1059 5330,1047 5296,1000 5249,961 5195,937 5038,865 4847,926 4760,1076 4714,1157 4702,1251 4728,1340 4754,1430 4814,1503 4896,1547 4944,1572 4995,1585 5048,1586 5062,1586 5069,1595 5072,1599 5074,1604 5078,1614 5072,1626 L 4819,2107 C 4807,2130 4816,2159 4839,2171 L 5320,2424 C 5358,2444 5402,2443 5438,2421 5476,2399 5498,2360 5499,2317 5500,2275 5512,2233 5534,2196 5598,2089 5737,2047 5850,2101 5911,2130 5956,2181 5977,2245 5998,2309 5993,2377 5961,2437 5943,2471 5919,2499 5887,2522 5853,2547 5833,2587 5836,2630 5839,2672 5864,2709 5901,2729 L 6382,2982 C 6405,2994 6434,2985 6446,2962 L 6699,2481 C 6719,2444 6718,2399 6696,2363 6674,2326 6636,2303 6593,2302 6554,2302 6518,2292 6483,2274 6424,2243 6381,2190 6362,2125 6343,2061 6352,1993 6385,1934 6448,1826 6586,1782 6699,1834 L 6699,1834 Z M 6271,2152 C 6297,2241 6357,2314 6440,2358 6487,2383 6538,2396 6591,2397 6605,2397 6612,2407 6615,2411 6618,2416 6622,2426 6615,2437 L 6384,2877 5945,2646 C 5933,2639 5931,2629 5931,2623 5930,2619 5931,2607 5942,2598 5986,2568 6020,2528 6045,2481 6088,2398 6096,2304 6067,2215 6039,2131 5981,2063 5903,2022 5899,2020 5894,2018 5890,2016 5734,1941 5542,1999 5453,2147 5423,2198 5406,2256 5405,2315 5404,2330 5395,2337 5391,2340 5386,2343 5376,2346 5364,2340 L 4925,2109 5156,1670 C 5176,1632 5175,1588 5153,1551 5131,1514 5092,1492 5049,1491 5011,1490 4974,1481 4940,1463 4881,1432 4838,1379 4819,1314 4800,1249 4808,1182 4842,1123 4904,1015 5042,971 5156,1023 5195,1040 5229,1068 5253,1102 5279,1137 5319,1157 5362,1154 5404,1151 5441,1127 5461,1089 L 5692,650 6131,881 C 6169,900 6214,899 6250,878 6287,856 6309,817 6310,774 6311,736 6320,699 6338,665 6370,605 6423,562 6487,544 6552,525 6620,533 6678,567 6787,629 6831,767 6779,881 6761,920 6733,953 6699,978 6664,1003 6645,1044 6648,1087 6651,1129 6675,1166 6713,1186 L 7152,1417 6921,1856 C 6915,1868 6904,1870 6899,1871 6894,1871 6882,1871 6873,1858 6839,1811 6792,1773 6738,1748 6581,1676 6390,1737 6303,1887 6257,1968 6245,2062 6271,2152 L 6271,2152 Z"/>
         <path fill="rgb(0,0,0)" stroke="none" d="M 5934,868 L 5768,781 C 5745,769 5716,778 5704,801 5692,824 5701,853 5724,865 L 5890,952 C 5913,964 5941,955 5954,932 5966,909 5957,880 5934,868 L 5934,868 Z"/>
         <path fill="rgb(0,0,0)" stroke="none" d="M 6136,974 L 6089,950 C 6066,938 6037,947 6025,970 6013,993 6022,1021 6045,1034 L 6092,1058 C 6115,1070 6143,1061 6156,1038 6168,1015 6159,987 6136,974 L 6136,974 Z"/>
        </g>
       </g>
       <g class="Graphic">
        <g id="id14">
         <rect class="BoundingBox" stroke="none" fill="none" x="5862" y="616" width="3209" height="3211"/>
         <path fill="rgb(0,0,0)" stroke="none" d="M 8238,2652 C 8277,2669 8311,2697 8336,2732 8361,2767 8402,2786 8445,2783 8487,2780 8524,2756 8544,2718 L 8797,2237 C 8809,2214 8800,2185 8777,2173 L 8296,1920 C 8284,1914 8282,1904 8281,1898 8281,1893 8281,1881 8293,1872 8341,1838 8379,1791 8404,1737 8476,1580 8415,1389 8265,1302 8184,1255 8090,1244 8000,1270 7911,1296 7837,1356 7794,1438 7769,1485 7756,1536 7755,1589 7755,1604 7745,1611 7741,1613 7736,1616 7726,1620 7715,1614 L 7233,1361 C 7210,1349 7182,1357 7170,1380 L 6917,1862 C 6911,1873 6900,1876 6895,1876 6890,1876 6878,1876 6869,1864 6835,1816 6788,1778 6734,1753 6577,1681 6386,1742 6299,1892 6253,1973 6241,2067 6267,2157 6293,2246 6353,2320 6436,2363 6483,2388 6534,2401 6587,2402 6601,2402 6608,2412 6611,2416 6614,2421 6618,2431 6612,2443 L 6359,2924 C 6347,2947 6355,2975 6379,2988 L 6860,3241 C 6897,3261 6941,3260 6978,3238 7015,3216 7038,3177 7038,3134 7039,3092 7051,3050 7073,3013 7138,2906 7276,2864 7389,2918 7450,2947 7495,2999 7516,3063 7538,3126 7532,3195 7501,3254 7483,3288 7458,3317 7427,3339 7392,3364 7373,3405 7376,3447 7379,3490 7403,3527 7441,3547 L 7922,3800 C 7945,3812 7973,3804 7986,3780 L 8238,3299 C 8258,3262 8257,3217 8235,3181 8214,3144 8175,3121 8132,3120 8094,3120 8057,3110 8023,3092 7963,3061 7920,3008 7901,2943 7883,2878 7891,2810 7925,2752 7987,2644 8125,2600 8238,2652 L 8238,2652 Z M 7811,2969 C 7837,3059 7896,3132 7979,3176 8026,3201 8077,3214 8130,3215 8145,3215 8152,3225 8154,3229 8157,3234 8161,3244 8155,3255 L 7924,3695 7485,3463 C 7473,3457 7470,3447 7470,3441 7470,3436 7470,3424 7482,3416 7525,3385 7560,3345 7584,3298 7628,3216 7636,3121 7606,3033 7578,2949 7520,2880 7442,2839 7438,2837 7434,2835 7430,2833 7273,2758 7081,2816 6992,2965 6962,3015 6945,3073 6944,3132 6944,3147 6934,3154 6930,3157 6925,3160 6915,3163 6904,3157 L 6464,2926 6695,2487 C 6715,2449 6714,2405 6692,2368 6670,2331 6632,2309 6589,2308 6550,2307 6514,2297 6480,2279 6420,2248 6377,2195 6358,2130 6339,2066 6348,1998 6381,1939 6444,1831 6582,1787 6695,1839 6734,1857 6768,1884 6793,1919 6818,1954 6859,1973 6901,1970 6944,1967 6981,1943 7000,1906 L 7231,1466 7671,1698 C 7708,1717 7753,1716 7789,1695 7826,1673 7849,1634 7849,1591 7850,1553 7860,1516 7878,1482 7909,1422 7962,1379 8026,1361 8091,1342 8159,1350 8217,1384 8326,1447 8370,1585 8318,1698 8300,1737 8273,1771 8238,1796 8203,1821 8184,1862 8187,1904 8190,1947 8214,1984 8252,2004 L 8691,2235 8460,2674 C 8454,2686 8444,2688 8438,2689 8433,2689 8421,2688 8413,2676 8378,2629 8332,2590 8278,2566 8120,2494 7929,2555 7843,2705 7796,2786 7785,2880 7811,2969 L 7811,2969 Z"/>
         <path fill="rgb(0,0,0)" stroke="none" d="M 7473,1685 L 7307,1598 C 7284,1586 7256,1595 7243,1618 7231,1641 7240,1669 7263,1681 L 7429,1769 C 7452,1781 7481,1772 7493,1749 7505,1726 7496,1697 7473,1685 L 7473,1685 Z"/>
         <path fill="rgb(0,0,0)" stroke="none" d="M 7675,1791 L 7628,1767 C 7605,1755 7577,1764 7564,1787 7552,1810 7561,1838 7584,1851 L 7631,1875 C 7654,1887 7683,1878 7695,1855 7707,1832 7698,1804 7675,1791 L 7675,1791 Z"/>
        </g>
       </g>
       <g class="Graphic">
        <g id="id15">
         <rect class="BoundingBox" stroke="none" fill="none" x="3500" y="1380" width="3209" height="3208"/>
         <path fill="rgb(0,0,0)" stroke="none" d="M 5876,3413 C 5915,3431 5949,3459 5974,3493 5999,3528 6040,3547 6083,3544 6125,3542 6162,3517 6182,3480 L 6434,2999 C 6447,2976 6438,2947 6415,2935 L 5934,2682 C 5922,2676 5919,2666 5919,2660 5919,2655 5919,2643 5931,2635 5979,2600 6017,2554 6042,2500 6114,2342 6052,2152 5903,2065 5821,2018 5728,2007 5638,2033 5549,2059 5475,2119 5432,2201 5407,2248 5394,2299 5393,2352 5393,2367 5383,2374 5379,2376 5374,2379 5364,2383 5352,2377 L 4871,2124 C 4848,2112 4820,2121 4808,2144 L 4555,2625 C 4549,2636 4538,2639 4533,2639 4528,2639 4516,2639 4507,2627 4473,2579 4426,2541 4372,2516 4215,2444 4024,2506 3938,2655 3891,2736 3879,2830 3905,2920 3931,3009 3991,3083 4074,3126 4121,3151 4172,3164 4225,3165 4239,3165 4247,3175 4249,3179 4252,3184 4256,3194 4250,3205 L 3997,3686 C 3985,3709 3994,3738 4017,3750 L 4498,4003 C 4535,4023 4579,4022 4616,4000 4653,3978 4676,3939 4676,3896 4677,3854 4689,3812 4711,3775 4776,3668 4914,3626 5027,3680 5088,3709 5133,3760 5154,3824 5176,3888 5170,3956 5139,4016 5121,4050 5096,4079 5065,4101 5030,4126 5011,4166 5014,4209 5017,4251 5041,4289 5079,4308 L 5560,4561 C 5583,4573 5611,4565 5624,4541 L 5876,4061 C 5896,4023 5895,3979 5873,3942 5852,3905 5813,3883 5770,3882 5732,3881 5695,3872 5661,3854 5601,3822 5558,3769 5539,3705 5521,3640 5529,3572 5563,3514 5625,3406 5763,3361 5876,3413 L 5876,3413 Z M 5449,3731 C 5475,3821 5534,3894 5617,3937 5664,3962 5715,3975 5768,3976 5783,3976 5790,3986 5792,3990 5795,3995 5799,4005 5793,4017 L 5562,4456 5123,4225 C 5111,4219 5108,4208 5108,4203 5108,4198 5108,4186 5120,4178 5163,4147 5198,4107 5222,4060 5266,3977 5274,3883 5244,3795 5216,3710 5158,3642 5080,3601 5076,3599 5072,3597 5068,3595 4911,3520 4719,3578 4630,3727 4600,3778 4583,3836 4582,3894 4582,3909 4572,3916 4568,3919 4563,3922 4553,3926 4542,3919 L 4102,3688 4333,3249 C 4353,3212 4352,3167 4330,3131 4308,3094 4270,3071 4227,3071 4189,3070 4152,3060 4118,3042 4058,3011 4015,2958 3996,2894 3977,2829 3986,2761 4019,2703 4082,2594 4220,2550 4333,2602 4372,2620 4406,2648 4431,2682 4456,2717 4497,2736 4539,2733 4582,2730 4619,2706 4638,2669 L 4869,2229 5309,2460 C 5346,2480 5391,2479 5427,2457 5464,2436 5487,2397 5487,2354 5488,2316 5498,2279 5515,2245 5547,2185 5600,2142 5664,2124 5729,2105 5797,2113 5855,2147 5964,2209 6008,2347 5956,2461 5938,2500 5911,2533 5876,2558 5841,2583 5822,2624 5825,2667 5828,2709 5852,2746 5890,2766 L 6329,2997 6098,3436 C 6092,3448 6082,3450 6076,3450 6071,3451 6059,3450 6050,3438 6016,3390 5970,3352 5916,3327 5758,3256 5567,3317 5481,3467 5434,3548 5423,3641 5449,3731 L 5449,3731 Z"/>
         <path fill="rgb(0,0,0)" stroke="none" d="M 5111,2448 L 4945,2361 C 4922,2349 4894,2358 4881,2381 4869,2404 4878,2432 4901,2444 L 5067,2532 C 5090,2544 5119,2535 5131,2512 5143,2489 5134,2460 5111,2448 L 5111,2448 Z"/>
         <path fill="rgb(0,0,0)" stroke="none" d="M 5313,2554 L 5266,2530 C 5243,2518 5215,2526 5202,2549 5190,2573 5199,2601 5222,2613 L 5269,2638 C 5292,2650 5321,2641 5333,2618 5345,2595 5336,2566 5313,2554 L 5313,2554 Z"/>
        </g>
       </g>
      </g>
      <g class="Graphic">
       <g id="id16">
        <rect class="BoundingBox" stroke="none" fill="none" x="10800" y="10930" width="4671" height="4672"/>
        <path fill="rgb(35,31,32)" stroke="none" d="M 14418,14242 L 14210,13542 C 14201,13513 14213,13481 14238,13464 14263,13446 14297,13448 14321,13467 14402,13530 14508,13551 14606,13521 14773,13472 14869,13296 14819,13129 14769,12963 14594,12867 14427,12917 14328,12946 14251,13021 14218,13119 14208,13147 14180,13167 14150,13166 14119,13166 14092,13145 14083,13116 L 13875,12416 13176,12624 C 13146,12633 13115,12622 13097,12597 13080,12571 13081,12537 13100,12513 13164,12433 13184,12326 13155,12228 13105,12062 12929,11966 12762,12016 12596,12065 12500,12241 12550,12408 12579,12506 12654,12584 12752,12617 12781,12627 12801,12654 12800,12685 12799,12716 12779,12743 12749,12751 L 12051,12959 12259,13659 C 12268,13688 12257,13720 12231,13737 12206,13755 12172,13753 12148,13734 12067,13671 11961,13650 11863,13679 11697,13729 11601,13905 11651,14072 11700,14238 11876,14334 12043,14284 12141,14255 12219,14180 12252,14082 12261,14053 12289,14034 12320,14035 12351,14035 12377,14056 12386,14085 L 12594,14785 13137,14623 C 13072,14567 13024,14493 12999,14409 12927,14168 13065,13914 13306,13842 13547,13770 13801,13908 13873,14149 13899,14232 13898,14321 13875,14403 L 14418,14242 Z M 13759,14585 C 13730,14593 13698,14582 13680,14557 13663,14531 13664,14497 13683,14474 13747,14393 13767,14287 13738,14188 13689,14022 13513,13926 13346,13976 13179,14025 13084,14201 13133,14368 13163,14467 13238,14544 13335,14577 13364,14587 13384,14615 13383,14645 13382,14676 13362,14703 13332,14712 L 12567,14939 C 12530,14950 12491,14929 12480,14892 L 12298,14281 C 12242,14346 12168,14394 12084,14419 11843,14491 11588,14353 11517,14112 11445,13871 11583,13617 11824,13545 11908,13520 11997,13521 12079,13544 L 11897,12933 C 11886,12896 11907,12857 11944,12846 L 12555,12664 C 12490,12608 12442,12534 12417,12450 12345,12209 12483,11955 12724,11883 12965,11811 13219,11949 13291,12190 13316,12274 13316,12363 13292,12445 L 13903,12263 C 13940,12252 13979,12273 13990,12310 L 14172,12921 C 14228,12857 14302,12808 14386,12783 14627,12711 14882,12849 14953,13090 15025,13331 14887,13585 14646,13657 14562,13682 14473,13682 14391,13658 L 14573,14269 C 14584,14306 14563,14345 14526,14356 L 13759,14585 Z"/>
       </g>
      </g>
     </g>
    </g>
   </g>
  </g>
 </g>
</svg>