<?xml version="1.0" encoding="UTF-8"?>
<!DOCTYPE svg PUBLIC "-//W3C//DTD SVG 1.1//EN" "http://www.w3.org/Graphics/SVG/1.1/DTD/svg11.dtd">
<svg version="1.2" width="128.11mm" height="128.11mm" viewBox="0 0 12811 12811" preserveAspectRatio="xMidYMid" fill-rule="evenodd" stroke-width="28.222" stroke-linejoin="round" xmlns="http://www.w3.org/2000/svg" xmlns:ooo="http://xml.openoffice.org/svg/export" xmlns:xlink="http://www.w3.org/1999/xlink" xmlns:presentation="http://sun.com/xmlns/staroffice/presentation" xmlns:smil="http://www.w3.org/2001/SMIL20/" xmlns:anim="urn:oasis:names:tc:opendocument:xmlns:animation:1.0" xml:space="preserve">
 <defs class="ClipPathGroup">
  <clipPath id="presentation_clip_path" clipPathUnits="userSpaceOnUse">
   <rect x="0" y="0" width="12811" height="12811"/>
  </clipPath>
  <clipPath id="presentation_clip_path_shrink" clipPathUnits="userSpaceOnUse">
   <rect x="12" y="12" width="12786" height="12786"/>
  </clipPath>
 </defs>
 <defs class="TextShapeIndex">
  <g ooo:slide="id1" ooo:id-list="id3 id4 id5 id6 id7"/>
 </defs>
 <defs class="EmbeddedBulletChars">
  <g id="bullet-char-template-57356" transform="scale(0.00048828125,-0.00048828125)">
   <path d="M 580,1141 L 1163,571 580,0 -4,571 580,1141 Z"/>
  </g>
  <g id="bullet-char-template-57354" transform="scale(0.00048828125,-0.00048828125)">
   <path d="M 8,1128 L 1137,1128 1137,0 8,0 8,1128 Z"/>
  </g>
  <g id="bullet-char-template-10146" transform="scale(0.00048828125,-0.00048828125)">
   <path d="M 174,0 L 602,739 174,1481 1456,739 174,0 Z M 1358,739 L 309,1346 659,739 1358,739 Z"/>
  </g>
  <g id="bullet-char-template-10132" transform="scale(0.00048828125,-0.00048828125)">
   <path d="M 2015,739 L 1276,0 717,0 1260,543 174,543 174,936 1260,936 717,1481 1274,1481 2015,739 Z"/>
  </g>
  <g id="bullet-char-template-10007" transform="scale(0.00048828125,-0.00048828125)">
   <path d="M 0,-2 C -7,14 -16,27 -25,37 L 356,567 C 262,823 215,952 215,954 215,979 228,992 255,992 264,992 276,990 289,987 310,991 331,999 354,1012 L 381,999 492,748 772,1049 836,1024 860,1049 C 881,1039 901,1025 922,1006 886,937 835,863 770,784 769,783 710,716 594,584 L 774,223 C 774,196 753,168 711,139 L 727,119 C 717,90 699,76 672,76 641,76 570,178 457,381 L 164,-76 C 142,-110 111,-127 72,-127 30,-127 9,-110 8,-76 1,-67 -2,-52 -2,-32 -2,-23 -1,-13 0,-2 Z"/>
  </g>
  <g id="bullet-char-template-10004" transform="scale(0.00048828125,-0.00048828125)">
   <path d="M 285,-33 C 182,-33 111,30 74,156 52,228 41,333 41,471 41,549 55,616 82,672 116,743 169,778 240,778 293,778 328,747 346,684 L 369,508 C 377,444 397,411 428,410 L 1163,1116 C 1174,1127 1196,1133 1229,1133 1271,1133 1292,1118 1292,1087 L 1292,965 C 1292,929 1282,901 1262,881 L 442,47 C 390,-6 338,-33 285,-33 Z"/>
  </g>
  <g id="bullet-char-template-9679" transform="scale(0.00048828125,-0.00048828125)">
   <path d="M 813,0 C 632,0 489,54 383,161 276,268 223,411 223,592 223,773 276,916 383,1023 489,1130 632,1184 813,1184 992,1184 1136,1130 1245,1023 1353,916 1407,772 1407,592 1407,412 1353,268 1245,161 1136,54 992,0 813,0 Z"/>
  </g>
  <g id="bullet-char-template-8226" transform="scale(0.00048828125,-0.00048828125)">
   <path d="M 346,457 C 273,457 209,483 155,535 101,586 74,649 74,723 74,796 101,859 155,911 209,963 273,989 346,989 419,989 480,963 531,910 582,859 608,796 608,723 608,648 583,586 532,535 482,483 420,457 346,457 Z"/>
  </g>
  <g id="bullet-char-template-8211" transform="scale(0.00048828125,-0.00048828125)">
   <path d="M -4,459 L 1135,459 1135,606 -4,606 -4,459 Z"/>
  </g>
  <g id="bullet-char-template-61548" transform="scale(0.00048828125,-0.00048828125)">
   <path d="M 173,740 C 173,903 231,1043 346,1159 462,1274 601,1332 765,1332 928,1332 1067,1274 1183,1159 1299,1043 1357,903 1357,740 1357,577 1299,437 1183,322 1067,206 928,148 765,148 601,148 462,206 346,322 231,437 173,577 173,740 Z"/>
  </g>
 </defs>
 <defs class="TextEmbeddedBitmaps"/>
 <g>
  <g id="id2" class="Master_Slide">
   <g id="bg-id2" class="Background"/>
   <g id="bo-id2" class="BackgroundObjects"/>
  </g>
 </g>
 <g class="SlideGroup">
  <g>
   <g id="container-id1">
    <g id="id1" class="Slide" clip-path="url(#presentation_clip_path)">
     <g class="Page">
      <g class="Graphic">
       <g id="id3">
        <rect class="BoundingBox" stroke="none" fill="none" x="0" y="0" width="12811" height="12811"/>
        <path fill="rgb(255,255,255)" stroke="none" d="M 902,13 L 902,9326 4331,12712 11908,12712 11908,13 902,13 Z"/>
        <path fill="rgb(233,244,243)" stroke="none" d="M 11908,12712 L 11908,13 902,13 Z"/>
        <path fill="rgb(212,232,229)" stroke="none" d="M 11908,5939 L 11908,13 902,13 Z"/>
        <path fill="rgb(214,229,227)" stroke="none" d="M 7675,12733 L 7654,12712 7675,12712 7675,12733 Z M 4289,9326 L 4289,12712 7654,12712 4289,9326 Z"/>
        <path fill="rgb(138,196,189)" stroke="none" d="M 902,9326 L 4289,12797 4289,9326 902,9326 Z"/>
        <path fill="rgb(103,165,156)" stroke="none" d="M 2193,10659 L 4289,12797 4289,9326 2532,10955 2193,10659 Z"/>
        <path fill="rgb(21,137,173)" stroke="none" d="M 10194,8924 L 8035,9093 5897,8924 8035,4691 10194,8924 Z"/>
        <path fill="rgb(3,86,112)" stroke="none" d="M 8035,4691 L 10194,8924 8035,9093 Z"/>
        <path fill="rgb(30,164,196)" stroke="none" d="M 8035,8331 L 9262,7103 8585,5749 8035,5199 7506,5749 6807,7103 8035,8331 Z"/>
        <path fill="rgb(6,107,147)" stroke="none" d="M 8035,8331 L 9262,7103 8585,5749 8035,5199 Z"/>
        <path fill="rgb(21,137,173)" stroke="none" d="M 8966,8818 L 5791,9093 2616,8818 5791,2595 8966,8818 Z"/>
        <path fill="rgb(5,112,145)" stroke="none" d="M 5791,2595 L 8966,8818 5791,9093 Z"/>
        <path fill="rgb(30,164,196)" stroke="none" d="M 5791,7971 L 7590,6172 6574,4162 5791,3357 5008,4162 3971,6172 5791,7971 Z"/>
        <path fill="rgb(18,144,173)" stroke="none" d="M 5791,7971 L 7590,6172 6574,4162 5791,3357 Z"/>
        <path fill="rgb(154,223,239)" stroke="none" d="M 6299,5685 L 6828,6215 7357,5685 5791,2595 4225,5685 4754,6215 5283,5685 5791,6215 6299,5685 Z"/>
        <path fill="rgb(125,212,226)" stroke="none" d="M 5791,6215 L 6299,5685 6828,6215 7357,5685 5791,2595 Z"/>
        <path fill="rgb(5,112,145)" stroke="none" d="M 6405,9114 L 2595,9114 2595,8691 10215,8691 10215,9114 6405,9114 Z"/>
        <path fill="rgb(249,141,43)" stroke="none" d="M 10257,3611 C 10257,3794 10215,3950 10124,4109 10032,4267 9918,4381 9760,4473 9601,4564 9445,4606 9262,4606 9079,4606 8923,4564 8765,4473 8606,4381 8492,4267 8401,4109 8309,3950 8268,3794 8268,3611 8268,3428 8309,3272 8401,3114 8492,2955 8606,2841 8765,2750 8923,2658 9079,2616 9262,2616 9445,2616 9601,2658 9760,2750 9918,2841 10032,2955 10124,3114 10215,3272 10257,3428 10257,3611 L 10257,3611 Z"/>
        <path fill="rgb(221,110,18)" stroke="none" d="M 9982,2892 C 10363,3273 10363,3908 9982,4310 9601,4712 8966,4691 8564,4310 Z"/>
       </g>
      </g>
      <g class="Group">
       <g class="com.sun.star.drawing.PolyPolygonShape">
        <g id="id4">
         <rect class="BoundingBox" stroke="none" fill="none" x="7763" y="8420" width="2216" height="3067"/>
         <path fill="rgb(0,0,0)" stroke="none" d="M 9920,9333 L 9008,8475 9005,8472 9002,8469 8998,8466 8996,8464 8994,8463 8993,8462 8993,8462 8991,8461 8989,8459 8989,8459 8988,8458 8979,8452 8971,8447 8970,8447 8969,8446 8968,8446 8967,8445 8965,8444 8963,8443 8962,8443 8961,8442 8958,8441 8956,8440 8955,8439 8954,8439 8953,8438 8952,8438 8950,8437 8948,8436 8947,8436 8946,8435 8943,8435 8942,8434 8941,8434 8940,8434 8939,8433 8938,8433 8937,8432 8927,8429 8923,8428 8921,8428 8918,8427 8916,8426 8913,8426 8912,8425 8911,8425 8910,8425 8909,8425 8906,8425 8904,8424 8902,8424 8901,8424 8900,8424 8898,8424 8897,8423 8896,8423 8895,8423 8894,8423 8892,8423 8890,8423 8880,8422 8875,8421 8871,8421 8866,8421 8861,8422 8851,8423 8849,8423 8847,8423 8846,8423 8845,8423 8844,8423 8843,8424 8841,8424 8840,8424 8839,8424 8837,8424 8835,8425 8832,8425 8831,8425 8830,8425 8829,8425 8828,8426 8825,8426 8823,8427 8820,8428 8818,8428 8814,8429 8812,8430 8809,8431 8805,8432 8803,8433 8801,8434 8800,8434 8798,8435 8795,8435 8794,8436 8793,8436 8791,8437 8789,8438 8788,8438 8787,8439 8786,8439 8785,8440 8783,8441 8780,8442 8779,8442 8778,8443 8774,8445 8773,8446 8772,8447 8771,8447 8769,8448 8766,8450 8762,8452 8761,8453 8760,8454 8758,8455 8756,8457 8755,8457 8754,8458 8752,8459 8750,8461 8748,8462 8748,8462 8747,8463 8745,8464 8743,8466 8739,8469 8736,8472 8733,8475 8733,8475 7821,9333 7807,9347 7796,9362 7786,9378 7778,9394 7771,9411 7767,9428 7764,9446 7763,9463 7764,9481 7767,9498 7771,9516 7778,9532 7786,9549 7796,9564 7807,9579 7821,9593 7836,9606 7851,9617 7868,9626 7885,9633 7903,9639 7921,9643 7940,9646 7959,9647 7977,9646 7996,9643 8014,9639 8032,9633 8049,9626 8066,9617 8082,9606 8097,9593 8675,9049 8675,11302 8676,11320 8679,11339 8684,11356 8691,11373 8699,11389 8709,11404 8720,11418 8733,11432 8746,11443 8761,11454 8778,11463 8795,11471 8813,11477 8831,11482 8851,11484 8871,11485 8890,11484 8910,11482 8928,11477 8946,11471 8963,11463 8980,11454 8995,11443 9008,11432 9021,11418 9032,11404 9042,11389 9050,11373 9057,11356 9062,11339 9065,11320 9066,11302 9066,9049 9644,9593 9652,9600 9659,9606 9667,9611 9675,9617 9683,9622 9691,9626 9700,9630 9709,9634 9726,9639 9745,9644 9763,9646 9782,9647 9801,9646 9820,9644 9838,9639 9856,9633 9873,9626 9890,9617 9905,9606 9920,9593 9934,9579 9945,9564 9955,9548 9963,9532 9970,9515 9974,9498 9977,9481 9978,9463 9977,9446 9974,9428 9970,9411 9963,9394 9955,9378 9945,9362 9934,9347 9920,9333 Z"/>
        </g>
       </g>
       <g class="com.sun.star.drawing.PolyPolygonShape">
        <g id="id5">
         <rect class="BoundingBox" stroke="none" fill="none" x="6720" y="10259" width="4302" height="1964"/>
         <path fill="rgb(0,0,0)" stroke="none" d="M 10825,10259 L 10805,10260 10785,10263 10766,10268 10749,10274 10731,10282 10715,10291 10700,10302 10686,10313 10674,10326 10663,10341 10653,10356 10645,10372 10638,10389 10633,10406 10631,10424 10630,10443 10630,11853 7111,11853 7111,10443 7110,10424 7108,10406 7103,10389 7096,10372 7088,10356 7078,10341 7067,10326 7054,10313 7040,10302 7025,10291 7009,10282 6992,10274 6974,10268 6956,10263 6936,10260 6916,10259 6896,10260 6877,10263 6858,10268 6840,10274 6823,10282 6807,10291 6792,10302 6778,10313 6766,10326 6754,10341 6745,10356 6736,10372 6730,10389 6725,10406 6722,10424 6721,10443 6721,12036 6722,12055 6725,12074 6730,12091 6736,12108 6745,12124 6754,12140 6766,12154 6778,12167 6792,12179 6807,12190 6823,12199 6840,12207 6858,12213 6877,12217 6896,12220 6916,12221 10825,12221 10845,12220 10864,12217 10883,12213 10901,12207 10918,12199 10934,12190 10949,12179 10963,12167 10975,12154 10987,12140 10996,12124 11005,12108 11011,12091 11016,12074 11019,12055 11020,12036 11020,10443 11019,10424 11016,10406 11011,10389 11005,10372 10996,10356 10987,10341 10975,10326 10963,10313 10949,10302 10934,10291 10918,10282 10901,10274 10883,10268 10864,10263 10845,10260 10825,10259 Z"/>
        </g>
       </g>
      </g>
      <g class="Group">
       <g class="Graphic">
        <g id="id6">
         <rect class="BoundingBox" stroke="none" fill="none" x="983" y="2032" width="5590" height="5591"/>
         <defs>
          <clipPath id="clip_path_1" clipPathUnits="userSpaceOnUse">
           <path d="M 983,6594 L 2010,2032 6572,3059 5545,7621 983,6594 Z"/>
          </clipPath>
         </defs>
         <g clip-path="url(#clip_path_1)">
          <path fill="rgb(0,0,0)" stroke="none" d="M 1989,2128 L 1005,6499 C 993,6551 1026,6604 1078,6616 L 1898,6800 C 1951,6812 2003,6779 2015,6726 L 2077,6453 C 2099,6355 2196,6293 2294,6315 2392,6337 2454,6435 2432,6533 L 2370,6806 C 2358,6859 2392,6911 2444,6923 L 4083,7292 C 4136,7304 4189,7271 4200,7218 L 4262,6945 C 4284,6847 4382,6785 4480,6807 4578,6829 4639,6927 4617,7025 L 4556,7298 C 4544,7351 4577,7403 4630,7415 L 5449,7600 C 5502,7612 5554,7578 5566,7526 L 6058,5340 C 6070,5288 6037,5235 5984,5223 L 5165,5039 C 5112,5027 5060,5060 5048,5113 L 4986,5386 C 4964,5484 4867,5546 4769,5524 4671,5502 4609,5404 4631,5306 L 4692,5033 C 4704,4980 4671,4928 4619,4916 L 3894,4753 4036,4124 4214,4164 C 4417,4210 4620,4082 4665,3879 4711,3675 4583,3473 4380,3427 L 4202,3387 4365,2663 C 4377,2610 4344,2558 4291,2546 L 2106,2054 C 2053,2042 2001,2075 1989,2128 L 1989,2128 Z M 4480,5085 L 4440,5263 C 4394,5466 4522,5669 4726,5715 4929,5760 5132,5632 5177,5429 L 5217,5251 5846,5393 5397,7387 4768,7246 4808,7068 C 4854,6865 4726,6662 4523,6616 4319,6571 4117,6699 4071,6902 L 4031,7080 3402,6938 3565,6214 C 3577,6161 3544,6109 3491,6097 L 3218,6036 C 3120,6014 3059,5916 3081,5818 3103,5720 3200,5658 3298,5680 L 3571,5742 C 3624,5754 3677,5720 3688,5668 L 3851,4944 4480,5085 4480,5085 Z M 2862,4621 C 2851,4673 2884,4726 2936,4738 L 3661,4901 3519,5529 3341,5489 C 3138,5443 2935,5572 2890,5775 2844,5978 2972,6181 3175,6227 L 3353,6267 3211,6895 2583,6754 2623,6576 C 2669,6373 2540,6170 2337,6124 2134,6078 1931,6207 1886,6410 L 1846,6588 1217,6446 1666,4452 2390,4615 C 2443,4627 2495,4593 2507,4541 L 2569,4267 C 2591,4169 2688,4108 2786,4130 2884,4152 2946,4250 2924,4347 L 2862,4621 2862,4621 Z M 4153,2715 L 3990,3439 C 3978,3492 4011,3544 4064,3556 L 4337,3618 C 4435,3640 4496,3738 4474,3836 4452,3934 4355,3995 4257,3973 L 3984,3912 C 3931,3900 3878,3933 3867,3986 L 3704,4710 3075,4568 3115,4390 C 3161,4187 3033,3985 2829,3939 2626,3893 2423,4021 2378,4224 L 2338,4402 1709,4261 2158,2266 4153,2715 4153,2715 Z"/>
         </g>
        </g>
       </g>
       <g class="Graphic">
        <g id="id7">
         <rect class="BoundingBox" stroke="none" fill="none" x="3672" y="341" width="5551" height="5550"/>
         <defs>
          <clipPath id="clip_path_2" clipPathUnits="userSpaceOnUse">
           <path d="M 9221,1316 L 4648,341 3673,4914 8246,5890 9221,1316 Z"/>
          </clipPath>
         </defs>
         <g clip-path="url(#clip_path_2)">
          <path fill="rgb(0,0,0)" stroke="none" d="M 4744,361 L 9125,1296 C 9178,1307 9212,1359 9201,1412 L 9025,2234 C 9014,2287 8962,2320 8909,2309 L 8635,2251 C 8537,2230 8440,2292 8419,2391 8398,2489 8461,2586 8560,2607 L 8833,2665 C 8886,2677 8920,2729 8909,2781 L 8558,4425 C 8547,4477 8495,4511 8442,4500 L 8168,4441 C 8070,4420 7973,4483 7952,4582 7931,4680 7994,4777 8092,4798 L 8366,4856 C 8419,4867 8453,4919 8441,4972 L 8266,5794 C 8255,5847 8203,5880 8150,5869 L 5959,5402 C 5906,5391 5873,5339 5884,5286 L 6059,4464 C 6070,4411 6122,4378 6175,4389 L 6449,4447 C 6547,4468 6644,4405 6665,4307 6686,4209 6623,4112 6525,4091 L 6251,4033 C 6198,4021 6165,3969 6176,3916 L 6331,3191 5701,3056 5663,3234 C 5619,3438 5418,3569 5214,3525 5010,3482 4880,3280 4923,3077 L 4961,2899 4236,2744 C 4183,2732 4149,2680 4160,2628 L 4628,437 C 4639,384 4691,350 4744,361 L 4744,361 Z M 6388,3862 L 6566,3900 C 6770,3943 6900,4144 6857,4348 6813,4552 6612,4682 6408,4639 L 6230,4601 6096,5231 8095,5657 8230,5027 8051,4989 C 7848,4946 7717,4744 7761,4541 7804,4337 8005,4207 8209,4250 L 8387,4288 8522,3658 7796,3503 C 7743,3492 7709,3440 7720,3387 L 7779,3113 C 7800,3015 7737,2918 7639,2897 7540,2876 7444,2939 7423,3037 L 7364,3311 C 7353,3364 7301,3397 7248,3386 L 6522,3231 6388,3862 6388,3862 Z M 6643,2198 C 6695,2209 6729,2261 6718,2314 L 6563,3040 7193,3174 7231,2996 C 7275,2792 7476,2662 7680,2705 7883,2749 8014,2950 7970,3154 L 7932,3332 8562,3466 8697,2836 8519,2798 C 8315,2755 8184,2554 8228,2350 8271,2146 8473,2016 8676,2059 L 8854,2097 8989,1467 6989,1041 6835,1766 C 6823,1819 6771,1853 6719,1842 L 6445,1783 C 6346,1762 6249,1825 6229,1923 6208,2022 6270,2119 6369,2140 L 6643,2198 6643,2198 Z M 4372,2573 L 5098,2727 C 5151,2739 5185,2791 5173,2844 L 5115,3117 C 5094,3216 5157,3313 5255,3334 5353,3355 5450,3292 5471,3193 L 5530,2920 C 5541,2867 5593,2833 5646,2844 L 6372,2999 6506,2369 6328,2331 C 6124,2288 5994,2086 6037,1883 6081,1679 6282,1548 6485,1592 L 6664,1630 6798,1000 4799,573 4372,2573 4372,2573 Z"/>
         </g>
        </g>
       </g>
      </g>
     </g>
    </g>
   </g>
  </g>
 </g>
</svg>