<?xml version="1.0" encoding="UTF-8"?>
<!DOCTYPE svg PUBLIC "-//W3C//DTD SVG 1.1//EN" "http://www.w3.org/Graphics/SVG/1.1/DTD/svg11.dtd">
<svg version="1.2" width="26.98mm" height="26.98mm" viewBox="0 0 2698 2698" preserveAspectRatio="xMidYMid" fill-rule="evenodd" stroke-width="28.222" stroke-linejoin="round" xmlns="http://www.w3.org/2000/svg" xmlns:ooo="http://xml.openoffice.org/svg/export" xmlns:xlink="http://www.w3.org/1999/xlink" xmlns:presentation="http://sun.com/xmlns/staroffice/presentation" xmlns:smil="http://www.w3.org/2001/SMIL20/" xmlns:anim="urn:oasis:names:tc:opendocument:xmlns:animation:1.0" xml:space="preserve">
 <defs class="ClipPathGroup">
  <clipPath id="presentation_clip_path" clipPathUnits="userSpaceOnUse">
   <rect x="0" y="0" width="2698" height="2698"/>
  </clipPath>
  <clipPath id="presentation_clip_path_shrink" clipPathUnits="userSpaceOnUse">
   <rect x="2" y="2" width="2693" height="2693"/>
  </clipPath>
 </defs>
 <defs class="TextShapeIndex">
  <g ooo:slide="id1" ooo:id-list="id3 id4"/>
 </defs>
 <defs class="EmbeddedBulletChars">
  <g id="bullet-char-template-57356" transform="scale(0.00048828125,-0.00048828125)">
   <path d="M 580,1141 L 1163,571 580,0 -4,571 580,1141 Z"/>
  </g>
  <g id="bullet-char-template-57354" transform="scale(0.00048828125,-0.00048828125)">
   <path d="M 8,1128 L 1137,1128 1137,0 8,0 8,1128 Z"/>
  </g>
  <g id="bullet-char-template-10146" transform="scale(0.00048828125,-0.00048828125)">
   <path d="M 174,0 L 602,739 174,1481 1456,739 174,0 Z M 1358,739 L 309,1346 659,739 1358,739 Z"/>
  </g>
  <g id="bullet-char-template-10132" transform="scale(0.00048828125,-0.00048828125)">
   <path d="M 2015,739 L 1276,0 717,0 1260,543 174,543 174,936 1260,936 717,1481 1274,1481 2015,739 Z"/>
  </g>
  <g id="bullet-char-template-10007" transform="scale(0.00048828125,-0.00048828125)">
   <path d="M 0,-2 C -7,14 -16,27 -25,37 L 356,567 C 262,823 215,952 215,954 215,979 228,992 255,992 264,992 276,990 289,987 310,991 331,999 354,1012 L 381,999 492,748 772,1049 836,1024 860,1049 C 881,1039 901,1025 922,1006 886,937 835,863 770,784 769,783 710,716 594,584 L 774,223 C 774,196 753,168 711,139 L 727,119 C 717,90 699,76 672,76 641,76 570,178 457,381 L 164,-76 C 142,-110 111,-127 72,-127 30,-127 9,-110 8,-76 1,-67 -2,-52 -2,-32 -2,-23 -1,-13 0,-2 Z"/>
  </g>
  <g id="bullet-char-template-10004" transform="scale(0.00048828125,-0.00048828125)">
   <path d="M 285,-33 C 182,-33 111,30 74,156 52,228 41,333 41,471 41,549 55,616 82,672 116,743 169,778 240,778 293,778 328,747 346,684 L 369,508 C 377,444 397,411 428,410 L 1163,1116 C 1174,1127 1196,1133 1229,1133 1271,1133 1292,1118 1292,1087 L 1292,965 C 1292,929 1282,901 1262,881 L 442,47 C 390,-6 338,-33 285,-33 Z"/>
  </g>
  <g id="bullet-char-template-9679" transform="scale(0.00048828125,-0.00048828125)">
   <path d="M 813,0 C 632,0 489,54 383,161 276,268 223,411 223,592 223,773 276,916 383,1023 489,1130 632,1184 813,1184 992,1184 1136,1130 1245,1023 1353,916 1407,772 1407,592 1407,412 1353,268 1245,161 1136,54 992,0 813,0 Z"/>
  </g>
  <g id="bullet-char-template-8226" transform="scale(0.00048828125,-0.00048828125)">
   <path d="M 346,457 C 273,457 209,483 155,535 101,586 74,649 74,723 74,796 101,859 155,911 209,963 273,989 346,989 419,989 480,963 531,910 582,859 608,796 608,723 608,648 583,586 532,535 482,483 420,457 346,457 Z"/>
  </g>
  <g id="bullet-char-template-8211" transform="scale(0.00048828125,-0.00048828125)">
   <path d="M -4,459 L 1135,459 1135,606 -4,606 -4,459 Z"/>
  </g>
  <g id="bullet-char-template-61548" transform="scale(0.00048828125,-0.00048828125)">
   <path d="M 173,740 C 173,903 231,1043 346,1159 462,1274 601,1332 765,1332 928,1332 1067,1274 1183,1159 1299,1043 1357,903 1357,740 1357,577 1299,437 1183,322 1067,206 928,148 765,148 601,148 462,206 346,322 231,437 173,577 173,740 Z"/>
  </g>
 </defs>
 <defs class="TextEmbeddedBitmaps"/>
 <g>
  <g id="id2" class="Master_Slide">
   <g id="bg-id2" class="Background"/>
   <g id="bo-id2" class="BackgroundObjects"/>
  </g>
 </g>
 <g class="SlideGroup">
  <g>
   <g id="container-id1">
    <g id="id1" class="Slide" clip-path="url(#presentation_clip_path)">
     <g class="Page">
      <g class="Graphic">
       <g id="id3">
        <rect class="BoundingBox" stroke="none" fill="none" x="-2" y="-2" width="2701" height="2701"/>
        <path fill="rgb(255,198,27)" stroke="none" d="M 1348,2695 C 988,2695 650,2555 395,2301 365,2271 365,2223 395,2193 425,2163 473,2163 503,2193 729,2418 1029,2543 1348,2543 1667,2543 1967,2418 2193,2193 2418,1967 2543,1667 2543,1348 2543,1029 2418,729 2193,503 1967,278 1667,153 1348,153 1029,153 729,278 503,503 202,805 84,1248 195,1660 206,1701 181,1742 141,1753 100,1764 58,1740 47,1700 -13,1475 -15,1237 43,1011 103,779 225,566 395,395 650,141 988,1 1348,1 1708,1 2046,141 2301,395 2555,650 2695,988 2695,1348 2695,1708 2555,2046 2301,2301 2046,2555 1708,2695 1348,2695 L 1348,2695 Z"/>
        <path fill="rgb(255,198,27)" stroke="none" d="M 1348,2351 C 795,2351 345,1901 345,1348 345,795 795,345 1348,345 1706,345 2039,538 2218,848 2239,885 2226,932 2189,953 2153,974 2106,961 2085,925 1934,662 1651,498 1348,498 879,498 498,879 498,1348 498,1817 879,2198 1348,2198 1817,2198 2198,1817 2198,1348 2198,1306 2232,1272 2274,1272 2316,1272 2351,1306 2351,1348 2351,1901 1901,2351 1348,2351 L 1348,2351 Z"/>
        <path fill="rgb(254,225,135)" stroke="none" d="M 1906,1348 C 1906,1451 1882,1538 1831,1627 1780,1716 1716,1780 1627,1831 1538,1882 1451,1906 1348,1906 1245,1906 1158,1882 1069,1831 980,1780 916,1716 865,1627 814,1538 790,1451 790,1348 790,1245 814,1158 865,1069 916,980 980,916 1069,865 1158,814 1245,790 1348,790 1451,790 1538,814 1627,865 1716,916 1780,980 1831,1069 1882,1158 1906,1245 1906,1348 L 1906,1348 Z"/>
        <path fill="rgb(255,198,27)" stroke="none" d="M 1348,1982 C 998,1982 714,1698 714,1348 714,998 998,714 1348,714 1698,714 1982,998 1982,1348 1982,1698 1698,1982 1348,1982 L 1348,1982 Z M 1348,867 C 1083,867 867,1083 867,1348 867,1613 1083,1829 1348,1829 1613,1829 1829,1613 1829,1348 1829,1083 1613,867 1348,867 L 1348,867 Z"/>
       </g>
      </g>
      <g class="Graphic">
       <g id="id4">
        <rect class="BoundingBox" stroke="none" fill="none" x="210" y="210" width="2251" height="2251"/>
        <path fill="rgb(33,33,33)" stroke="none" d="M 1515,1763 C 1515,1626 1626,1515 1763,1515 L 2078,1515 C 2214,1515 2325,1626 2325,1763 L 2325,2078 C 2325,2214 2214,2325 2078,2325 L 1763,2325 C 1626,2325 1515,2214 1515,2078 L 1515,1763 1515,1763 Z M 1763,1650 C 1700,1650 1650,1700 1650,1763 L 1650,2078 C 1650,2140 1700,2190 1763,2190 L 2078,2190 C 2140,2190 2190,2140 2190,2078 L 2190,1763 C 2190,1700 2140,1650 2078,1650 L 1763,1650 1763,1650 Z"/>
        <path fill="rgb(33,33,33)" stroke="none" d="M 795,1245 L 795,1583 C 795,1744 926,1875 1088,1875 L 1425,1875 1425,1763 C 1425,1755 1425,1747 1426,1740 L 1397,1740 1430,1707 C 1453,1565 1565,1453 1707,1430 L 1740,1397 1740,1426 C 1747,1425 1755,1425 1763,1425 L 1875,1425 1875,1088 C 1875,926 1744,795 1583,795 L 1245,795 1245,908 C 1245,915 1245,923 1244,930 L 1296,930 1235,991 C 1204,1110 1110,1204 991,1235 L 930,1296 930,1244 C 923,1245 915,1245 908,1245 L 795,1245 795,1245 Z M 1487,930 L 1583,930 C 1604,930 1625,934 1643,942 L 942,1643 C 934,1625 930,1604 930,1583 L 930,1487 1487,930 1487,930 Z M 1088,1740 C 1072,1740 1057,1738 1043,1734 L 1734,1043 C 1738,1057 1740,1072 1740,1088 L 1740,1206 1206,1740 1088,1740 1088,1740 Z"/>
        <path fill="rgb(33,33,33)" stroke="none" d="M 345,593 C 345,456 456,345 593,345 L 908,345 C 1044,345 1155,456 1155,593 L 1155,908 C 1155,1044 1044,1155 908,1155 L 593,1155 C 456,1155 345,1044 345,908 L 345,593 345,593 Z M 593,480 C 530,480 480,530 480,593 L 480,908 C 480,970 530,1020 593,1020 L 908,1020 C 970,1020 1020,970 1020,908 L 1020,593 C 1020,530 970,480 908,480 L 593,480 593,480 Z"/>
       </g>
      </g>
     </g>
    </g>
   </g>
  </g>
 </g>
</svg>