<?xml version="1.0" encoding="UTF-8"?>
<!DOCTYPE svg PUBLIC "-//W3C//DTD SVG 1.1//EN" "http://www.w3.org/Graphics/SVG/1.1/DTD/svg11.dtd">
<svg version="1.2" width="26.98mm" height="26.98mm" viewBox="0 0 2698 2698" preserveAspectRatio="xMidYMid" fill-rule="evenodd" stroke-width="28.222" stroke-linejoin="round" xmlns="http://www.w3.org/2000/svg" xmlns:ooo="http://xml.openoffice.org/svg/export" xmlns:xlink="http://www.w3.org/1999/xlink" xmlns:presentation="http://sun.com/xmlns/staroffice/presentation" xmlns:smil="http://www.w3.org/2001/SMIL20/" xmlns:anim="urn:oasis:names:tc:opendocument:xmlns:animation:1.0" xml:space="preserve">
 <defs class="ClipPathGroup">
  <clipPath id="presentation_clip_path" clipPathUnits="userSpaceOnUse">
   <rect x="0" y="0" width="2698" height="2698"/>
  </clipPath>
  <clipPath id="presentation_clip_path_shrink" clipPathUnits="userSpaceOnUse">
   <rect x="2" y="2" width="2693" height="2693"/>
  </clipPath>
 </defs>
 <defs class="TextShapeIndex">
  <g ooo:slide="id1" ooo:id-list="id3 id4 id5 id6 id7"/>
 </defs>
 <defs class="EmbeddedBulletChars">
  <g id="bullet-char-template-57356" transform="scale(0.00048828125,-0.00048828125)">
   <path d="M 580,1141 L 1163,571 580,0 -4,571 580,1141 Z"/>
  </g>
  <g id="bullet-char-template-57354" transform="scale(0.00048828125,-0.00048828125)">
   <path d="M 8,1128 L 1137,1128 1137,0 8,0 8,1128 Z"/>
  </g>
  <g id="bullet-char-template-10146" transform="scale(0.00048828125,-0.00048828125)">
   <path d="M 174,0 L 602,739 174,1481 1456,739 174,0 Z M 1358,739 L 309,1346 659,739 1358,739 Z"/>
  </g>
  <g id="bullet-char-template-10132" transform="scale(0.00048828125,-0.00048828125)">
   <path d="M 2015,739 L 1276,0 717,0 1260,543 174,543 174,936 1260,936 717,1481 1274,1481 2015,739 Z"/>
  </g>
  <g id="bullet-char-template-10007" transform="scale(0.00048828125,-0.00048828125)">
   <path d="M 0,-2 C -7,14 -16,27 -25,37 L 356,567 C 262,823 215,952 215,954 215,979 228,992 255,992 264,992 276,990 289,987 310,991 331,999 354,1012 L 381,999 492,748 772,1049 836,1024 860,1049 C 881,1039 901,1025 922,1006 886,937 835,863 770,784 769,783 710,716 594,584 L 774,223 C 774,196 753,168 711,139 L 727,119 C 717,90 699,76 672,76 641,76 570,178 457,381 L 164,-76 C 142,-110 111,-127 72,-127 30,-127 9,-110 8,-76 1,-67 -2,-52 -2,-32 -2,-23 -1,-13 0,-2 Z"/>
  </g>
  <g id="bullet-char-template-10004" transform="scale(0.00048828125,-0.00048828125)">
   <path d="M 285,-33 C 182,-33 111,30 74,156 52,228 41,333 41,471 41,549 55,616 82,672 116,743 169,778 240,778 293,778 328,747 346,684 L 369,508 C 377,444 397,411 428,410 L 1163,1116 C 1174,1127 1196,1133 1229,1133 1271,1133 1292,1118 1292,1087 L 1292,965 C 1292,929 1282,901 1262,881 L 442,47 C 390,-6 338,-33 285,-33 Z"/>
  </g>
  <g id="bullet-char-template-9679" transform="scale(0.00048828125,-0.00048828125)">
   <path d="M 813,0 C 632,0 489,54 383,161 276,268 223,411 223,592 223,773 276,916 383,1023 489,1130 632,1184 813,1184 992,1184 1136,1130 1245,1023 1353,916 1407,772 1407,592 1407,412 1353,268 1245,161 1136,54 992,0 813,0 Z"/>
  </g>
  <g id="bullet-char-template-8226" transform="scale(0.00048828125,-0.00048828125)">
   <path d="M 346,457 C 273,457 209,483 155,535 101,586 74,649 74,723 74,796 101,859 155,911 209,963 273,989 346,989 419,989 480,963 531,910 582,859 608,796 608,723 608,648 583,586 532,535 482,483 420,457 346,457 Z"/>
  </g>
  <g id="bullet-char-template-8211" transform="scale(0.00048828125,-0.00048828125)">
   <path d="M -4,459 L 1135,459 1135,606 -4,606 -4,459 Z"/>
  </g>
  <g id="bullet-char-template-61548" transform="scale(0.00048828125,-0.00048828125)">
   <path d="M 173,740 C 173,903 231,1043 346,1159 462,1274 601,1332 765,1332 928,1332 1067,1274 1183,1159 1299,1043 1357,903 1357,740 1357,577 1299,437 1183,322 1067,206 928,148 765,148 601,148 462,206 346,322 231,437 173,577 173,740 Z"/>
  </g>
 </defs>
 <defs class="TextEmbeddedBitmaps"/>
 <g>
  <g id="id2" class="Master_Slide">
   <g id="bg-id2" class="Background"/>
   <g id="bo-id2" class="BackgroundObjects"/>
  </g>
 </g>
 <g class="SlideGroup">
  <g>
   <g id="container-id1">
    <g id="id1" class="Slide" clip-path="url(#presentation_clip_path)">
     <g class="Page">
      <g class="Group">
       <g class="com.sun.star.drawing.PolyPolygonShape">
        <g id="id3">
         <rect class="BoundingBox" stroke="none" fill="none" x="0" y="-3" width="2702" height="2703"/>
         <path fill="rgb(179,64,74)" fill-opacity="0.698" stroke="rgb(255,255,255)" stroke-opacity="0.698" d="M 1350,2698 L 1216,2691 1085,2672 957,2640 833,2596 714,2540 601,2472 495,2393 395,2303 390,2297 386,2291 382,2284 379,2277 376,2270 374,2263 373,2256 373,2248 373,2241 374,2234 376,2227 379,2220 382,2213 386,2206 390,2200 395,2194 401,2189 407,2185 414,2181 421,2177 428,2175 435,2173 442,2172 450,2172 457,2172 464,2173 471,2175 478,2177 485,2181 492,2185 498,2189 504,2194 592,2274 686,2344 786,2405 892,2454 1001,2494 1115,2522 1231,2539 1350,2545 1469,2539 1585,2522 1699,2494 1808,2454 1914,2405 2014,2344 2108,2274 2196,2194 2276,2106 2346,2012 2407,1912 2456,1806 2495,1697 2524,1583 2541,1467 2547,1348 2541,1229 2524,1113 2495,999 2456,890 2407,784 2346,684 2276,590 2196,502 2108,422 2014,352 1914,291 1808,242 1699,202 1585,174 1469,157 1350,151 1231,157 1115,174 1001,202 892,242 786,291 686,352 592,422 504,502 449,560 399,621 353,685 312,752 276,821 244,892 217,965 194,1039 177,1115 164,1192 156,1270 153,1348 156,1426 163,1504 176,1583 194,1660 196,1668 197,1676 197,1683 196,1691 195,1698 193,1705 190,1712 187,1718 183,1725 178,1730 173,1736 168,1741 161,1745 155,1749 148,1752 140,1754 133,1756 125,1757 118,1757 110,1756 103,1755 96,1753 89,1750 82,1747 76,1743 70,1738 65,1733 60,1727 56,1721 52,1715 49,1708 47,1700 27,1615 12,1529 3,1443 0,1356 2,1269 10,1182 24,1096 43,1011 68,924 99,840 136,758 177,679 225,602 277,529 334,459 395,393 495,303 601,224 714,156 833,100 957,56 1085,24 1216,5 1350,-2 1484,5 1615,24 1743,56 1867,100 1986,156 2099,224 2205,303 2305,393 2395,493 2474,599 2542,712 2598,831 2642,955 2674,1083 2693,1214 2700,1348 2693,1482 2674,1613 2642,1741 2598,1865 2542,1984 2474,2097 2395,2203 2305,2303 2205,2393 2099,2472 1986,2540 1867,2596 1743,2640 1615,2672 1484,2691 1350,2698 Z"/>
        </g>
       </g>
       <g class="com.sun.star.drawing.PolyPolygonShape">
        <g id="id4">
         <rect class="BoundingBox" stroke="none" fill="none" x="345" y="343" width="2011" height="2011"/>
         <path fill="rgb(179,64,74)" fill-opacity="0.698" stroke="rgb(255,255,255)" stroke-opacity="0.698" d="M 1350,2353 L 1247,2347 1148,2332 1052,2307 959,2274 872,2231 789,2181 711,2123 640,2058 575,1987 517,1909 467,1826 424,1739 391,1646 366,1550 351,1451 345,1348 351,1245 366,1146 391,1050 424,957 467,870 517,787 575,709 640,638 711,573 789,515 872,465 959,422 1052,389 1148,364 1247,349 1350,343 1417,346 1483,352 1548,363 1612,378 1675,398 1736,421 1795,448 1853,479 1908,513 1961,551 2012,593 2060,638 2105,686 2147,737 2186,791 2221,848 2225,854 2228,862 2230,869 2231,876 2231,884 2231,891 2230,898 2229,905 2227,912 2224,919 2220,926 2216,932 2211,938 2206,943 2200,948 2193,952 2186,956 2179,958 2172,960 2164,962 2157,962 2149,962 2142,961 2135,960 2128,957 2121,954 2115,951 2109,947 2103,942 2098,936 2093,930 2088,924 2059,876 2026,830 1990,786 1952,746 1911,708 1868,673 1823,641 1776,611 1728,585 1677,562 1625,543 1572,526 1518,513 1463,504 1407,498 1350,497 1263,501 1179,514 1097,535 1019,564 944,599 874,642 809,691 748,746 693,807 644,872 601,942 566,1017 537,1095 516,1177 503,1261 499,1348 503,1435 516,1519 537,1601 566,1679 601,1754 644,1824 693,1889 748,1950 809,2005 874,2054 944,2097 1019,2132 1097,2161 1179,2182 1263,2195 1350,2199 1437,2195 1521,2182 1603,2161 1681,2132 1756,2097 1826,2054 1891,2005 1952,1950 2007,1889 2056,1824 2099,1754 2134,1679 2163,1601 2184,1519 2197,1435 2201,1348 2202,1340 2203,1333 2205,1325 2208,1318 2211,1312 2215,1305 2219,1299 2224,1294 2229,1289 2235,1285 2242,1281 2248,1277 2255,1275 2263,1273 2270,1272 2278,1271 2286,1272 2293,1273 2301,1275 2308,1277 2315,1281 2321,1285 2327,1289 2332,1294 2337,1299 2342,1305 2345,1312 2349,1318 2351,1325 2353,1333 2354,1340 2355,1348 2349,1451 2334,1550 2309,1646 2276,1739 2233,1826 2183,1909 2125,1987 2060,2058 1989,2123 1911,2181 1828,2231 1741,2274 1648,2307 1552,2332 1453,2347 1350,2353 Z"/>
        </g>
       </g>
       <g class="com.sun.star.drawing.PolyPolygonShape">
        <g id="id5">
         <rect class="BoundingBox" stroke="none" fill="none" x="791" y="789" width="1119" height="1119"/>
         <path fill="rgb(244,178,176)" fill-opacity="0.698" stroke="rgb(255,255,255)" stroke-opacity="0.698" d="M 1909,1348 L 1908,1386 1904,1423 1899,1458 1891,1493 1880,1527 1867,1561 1852,1594 1834,1627 1814,1660 1793,1690 1770,1718 1746,1744 1720,1768 1692,1791 1662,1812 1629,1832 1596,1850 1563,1865 1529,1878 1495,1889 1460,1897 1425,1902 1388,1906 1350,1907 1312,1906 1275,1902 1240,1897 1205,1889 1171,1878 1137,1865 1104,1850 1071,1832 1038,1812 1008,1791 980,1768 954,1744 930,1718 907,1690 886,1660 866,1627 848,1594 833,1561 820,1527 809,1493 801,1458 796,1423 792,1386 791,1348 792,1310 796,1273 801,1238 809,1203 820,1169 833,1135 848,1102 866,1069 886,1036 907,1006 930,978 954,952 980,928 1008,905 1038,884 1071,864 1104,846 1137,831 1171,818 1205,807 1240,799 1275,794 1312,790 1350,789 1388,790 1425,794 1460,799 1495,807 1529,818 1563,831 1596,846 1629,864 1662,884 1692,905 1720,928 1746,952 1770,978 1793,1006 1814,1036 1834,1069 1852,1102 1867,1135 1880,1169 1891,1203 1899,1238 1904,1273 1908,1310 1909,1348 Z"/>
        </g>
       </g>
       <g class="com.sun.star.drawing.PolyPolygonShape">
        <g id="id6">
         <rect class="BoundingBox" stroke="none" fill="none" x="714" y="712" width="1273" height="1273"/>
         <path fill="rgb(179,64,74)" fill-opacity="0.698" stroke="rgb(255,255,255)" stroke-opacity="0.698" d="M 1350,1983 L 1285,1980 1222,1971 1161,1955 1103,1933 1047,1907 995,1875 946,1838 901,1797 860,1752 823,1703 791,1651 765,1595 743,1537 727,1476 718,1413 715,1348 718,1283 727,1220 743,1159 765,1101 791,1045 823,993 860,944 901,899 946,858 995,821 1047,789 1103,763 1161,741 1222,725 1285,716 1350,713 1415,716 1478,725 1539,741 1597,763 1653,789 1705,821 1754,858 1799,899 1840,944 1877,993 1909,1045 1935,1101 1957,1159 1973,1220 1982,1283 1985,1348 1982,1413 1973,1476 1957,1537 1935,1595 1909,1651 1877,1703 1840,1752 1799,1797 1754,1838 1705,1875 1653,1907 1597,1933 1539,1955 1478,1971 1415,1980 1350,1983 Z M 1350,866 L 1301,868 1253,875 1207,887 1162,904 1120,924 1081,948 1043,976 1009,1007 978,1041 950,1079 926,1118 906,1160 889,1205 877,1251 870,1299 868,1348 870,1397 877,1445 889,1491 906,1536 926,1578 950,1617 978,1655 1009,1689 1043,1720 1081,1748 1120,1772 1162,1792 1207,1809 1253,1821 1301,1828 1350,1830 1399,1828 1447,1821 1493,1809 1538,1792 1580,1772 1619,1748 1657,1720 1691,1689 1722,1655 1750,1617 1774,1578 1794,1536 1811,1491 1823,1445 1830,1397 1832,1348 1830,1299 1823,1251 1811,1205 1794,1160 1774,1118 1750,1079 1722,1041 1691,1007 1657,976 1619,948 1580,924 1538,904 1493,887 1447,875 1399,868 1350,866 Z"/>
        </g>
       </g>
      </g>
      <g class="Graphic">
       <g id="id7">
        <rect class="BoundingBox" stroke="none" fill="none" x="267" y="185" width="2154" height="2154"/>
        <defs>
         <clipPath id="clip_path_1" clipPathUnits="userSpaceOnUse">
          <path d="M 267,185 L 2420,185 2420,2338 267,2338 267,185 Z"/>
         </clipPath>
        </defs>
        <g clip-path="url(#clip_path_1)">
         <path fill="rgb(0,0,0)" stroke="none" d="M 1863,915 L 588,915 849,654 C 886,617 886,558 849,521 812,485 753,485 716,521 L 295,943 C 258,979 258,1039 295,1076 L 716,1497 C 734,1515 758,1524 782,1524 806,1524 830,1515 849,1497 886,1460 886,1401 849,1364 L 588,1103 1863,1103 C 2066,1103 2232,1269 2232,1472 2232,1676 2066,1841 1863,1841 L 1087,1841 C 1035,1841 993,1883 993,1935 993,1987 1035,2029 1087,2029 L 1863,2029 C 2170,2029 2420,1779 2420,1472 2420,1165 2170,915 1863,915 L 1863,915 Z"/>
        </g>
       </g>
      </g>
     </g>
    </g>
   </g>
  </g>
 </g>
</svg>