<?xml version="1.0" encoding="UTF-8"?>
<!DOCTYPE svg PUBLIC "-//W3C//DTD SVG 1.1//EN" "http://www.w3.org/Graphics/SVG/1.1/DTD/svg11.dtd">
<svg version="1.2" width="26.98mm" height="26.98mm" viewBox="0 0 2698 2698" preserveAspectRatio="xMidYMid" fill-rule="evenodd" stroke-width="28.222" stroke-linejoin="round" xmlns="http://www.w3.org/2000/svg" xmlns:ooo="http://xml.openoffice.org/svg/export" xmlns:xlink="http://www.w3.org/1999/xlink" xmlns:presentation="http://sun.com/xmlns/staroffice/presentation" xmlns:smil="http://www.w3.org/2001/SMIL20/" xmlns:anim="urn:oasis:names:tc:opendocument:xmlns:animation:1.0" xml:space="preserve">
 <defs class="ClipPathGroup">
  <clipPath id="presentation_clip_path" clipPathUnits="userSpaceOnUse">
   <rect x="0" y="0" width="2698" height="2698"/>
  </clipPath>
  <clipPath id="presentation_clip_path_shrink" clipPathUnits="userSpaceOnUse">
   <rect x="2" y="2" width="2693" height="2693"/>
  </clipPath>
 </defs>
 <defs class="TextShapeIndex">
  <g ooo:slide="id1" ooo:id-list="id3 id4 id5 id6 id7"/>
 </defs>
 <defs class="EmbeddedBulletChars">
  <g id="bullet-char-template-57356" transform="scale(0.00048828125,-0.00048828125)">
   <path d="M 580,1141 L 1163,571 580,0 -4,571 580,1141 Z"/>
  </g>
  <g id="bullet-char-template-57354" transform="scale(0.00048828125,-0.00048828125)">
   <path d="M 8,1128 L 1137,1128 1137,0 8,0 8,1128 Z"/>
  </g>
  <g id="bullet-char-template-10146" transform="scale(0.00048828125,-0.00048828125)">
   <path d="M 174,0 L 602,739 174,1481 1456,739 174,0 Z M 1358,739 L 309,1346 659,739 1358,739 Z"/>
  </g>
  <g id="bullet-char-template-10132" transform="scale(0.00048828125,-0.00048828125)">
   <path d="M 2015,739 L 1276,0 717,0 1260,543 174,543 174,936 1260,936 717,1481 1274,1481 2015,739 Z"/>
  </g>
  <g id="bullet-char-template-10007" transform="scale(0.00048828125,-0.00048828125)">
   <path d="M 0,-2 C -7,14 -16,27 -25,37 L 356,567 C 262,823 215,952 215,954 215,979 228,992 255,992 264,992 276,990 289,987 310,991 331,999 354,1012 L 381,999 492,748 772,1049 836,1024 860,1049 C 881,1039 901,1025 922,1006 886,937 835,863 770,784 769,783 710,716 594,584 L 774,223 C 774,196 753,168 711,139 L 727,119 C 717,90 699,76 672,76 641,76 570,178 457,381 L 164,-76 C 142,-110 111,-127 72,-127 30,-127 9,-110 8,-76 1,-67 -2,-52 -2,-32 -2,-23 -1,-13 0,-2 Z"/>
  </g>
  <g id="bullet-char-template-10004" transform="scale(0.00048828125,-0.00048828125)">
   <path d="M 285,-33 C 182,-33 111,30 74,156 52,228 41,333 41,471 41,549 55,616 82,672 116,743 169,778 240,778 293,778 328,747 346,684 L 369,508 C 377,444 397,411 428,410 L 1163,1116 C 1174,1127 1196,1133 1229,1133 1271,1133 1292,1118 1292,1087 L 1292,965 C 1292,929 1282,901 1262,881 L 442,47 C 390,-6 338,-33 285,-33 Z"/>
  </g>
  <g id="bullet-char-template-9679" transform="scale(0.00048828125,-0.00048828125)">
   <path d="M 813,0 C 632,0 489,54 383,161 276,268 223,411 223,592 223,773 276,916 383,1023 489,1130 632,1184 813,1184 992,1184 1136,1130 1245,1023 1353,916 1407,772 1407,592 1407,412 1353,268 1245,161 1136,54 992,0 813,0 Z"/>
  </g>
  <g id="bullet-char-template-8226" transform="scale(0.00048828125,-0.00048828125)">
   <path d="M 346,457 C 273,457 209,483 155,535 101,586 74,649 74,723 74,796 101,859 155,911 209,963 273,989 346,989 419,989 480,963 531,910 582,859 608,796 608,723 608,648 583,586 532,535 482,483 420,457 346,457 Z"/>
  </g>
  <g id="bullet-char-template-8211" transform="scale(0.00048828125,-0.00048828125)">
   <path d="M -4,459 L 1135,459 1135,606 -4,606 -4,459 Z"/>
  </g>
  <g id="bullet-char-template-61548" transform="scale(0.00048828125,-0.00048828125)">
   <path d="M 173,740 C 173,903 231,1043 346,1159 462,1274 601,1332 765,1332 928,1332 1067,1274 1183,1159 1299,1043 1357,903 1357,740 1357,577 1299,437 1183,322 1067,206 928,148 765,148 601,148 462,206 346,322 231,437 173,577 173,740 Z"/>
  </g>
 </defs>
 <defs class="TextEmbeddedBitmaps"/>
 <g>
  <g id="id2" class="Master_Slide">
   <g id="bg-id2" class="Background"/>
   <g id="bo-id2" class="BackgroundObjects"/>
  </g>
 </g>
 <g class="SlideGroup">
  <g>
   <g id="container-id1">
    <g id="id1" class="Slide" clip-path="url(#presentation_clip_path)">
     <g class="Page">
      <g class="Group">
       <g class="com.sun.star.drawing.PolyPolygonShape">
        <g id="id3">
         <rect class="BoundingBox" stroke="none" fill="none" x="-2" y="-3" width="2702" height="2703"/>
         <path fill="rgb(45,82,124)" fill-opacity="0.698" stroke="rgb(255,255,255)" stroke-opacity="0.698" d="M 1348,2698 L 1214,2691 1083,2672 955,2640 831,2596 712,2540 599,2472 493,2393 393,2303 388,2297 384,2291 380,2284 377,2277 374,2270 372,2263 371,2256 371,2248 371,2241 372,2234 374,2227 377,2220 380,2213 384,2206 388,2200 393,2194 399,2189 405,2185 412,2181 419,2177 426,2175 433,2173 440,2172 448,2172 455,2172 462,2173 469,2175 476,2177 483,2181 490,2185 496,2189 502,2194 590,2274 684,2344 784,2405 890,2454 999,2494 1113,2522 1229,2539 1348,2545 1467,2539 1583,2522 1697,2494 1806,2454 1912,2405 2012,2344 2106,2274 2194,2194 2274,2106 2344,2012 2405,1912 2454,1806 2493,1697 2522,1583 2539,1467 2545,1348 2539,1229 2522,1113 2493,999 2454,890 2405,784 2344,684 2274,590 2194,502 2106,422 2012,352 1912,291 1806,242 1697,202 1583,174 1467,157 1348,151 1229,157 1113,174 999,202 890,242 784,291 684,352 590,422 502,502 447,560 397,621 351,685 310,752 274,821 242,892 215,965 192,1039 175,1115 162,1192 154,1270 151,1348 154,1426 161,1504 174,1583 192,1660 194,1668 195,1676 195,1683 194,1691 193,1698 191,1705 188,1712 185,1718 181,1725 176,1730 171,1736 166,1741 159,1745 153,1749 146,1752 138,1754 131,1756 123,1757 116,1757 108,1756 101,1755 94,1753 87,1750 80,1747 74,1743 68,1738 63,1733 58,1727 54,1721 50,1715 47,1708 45,1700 25,1615 10,1529 1,1443 -2,1356 0,1269 8,1182 22,1096 41,1011 66,924 97,840 134,758 175,679 223,602 275,529 332,459 393,393 493,303 599,224 712,156 831,100 955,56 1083,24 1214,5 1348,-2 1482,5 1613,24 1741,56 1865,100 1984,156 2097,224 2203,303 2303,393 2393,493 2472,599 2540,712 2596,831 2640,955 2672,1083 2691,1214 2698,1348 2691,1482 2672,1613 2640,1741 2596,1865 2540,1984 2472,2097 2393,2203 2303,2303 2203,2393 2097,2472 1984,2540 1865,2596 1741,2640 1613,2672 1482,2691 1348,2698 Z"/>
        </g>
       </g>
       <g class="com.sun.star.drawing.PolyPolygonShape">
        <g id="id4">
         <rect class="BoundingBox" stroke="none" fill="none" x="343" y="343" width="2011" height="2011"/>
         <path fill="rgb(45,82,124)" fill-opacity="0.698" stroke="rgb(255,255,255)" stroke-opacity="0.698" d="M 1348,2353 L 1245,2347 1146,2332 1050,2307 957,2274 870,2231 787,2181 709,2123 638,2058 573,1987 515,1909 465,1826 422,1739 389,1646 364,1550 349,1451 343,1348 349,1245 364,1146 389,1050 422,957 465,870 515,787 573,709 638,638 709,573 787,515 870,465 957,422 1050,389 1146,364 1245,349 1348,343 1415,346 1481,352 1546,363 1610,378 1673,398 1734,421 1793,448 1851,479 1906,513 1959,551 2010,593 2058,638 2103,686 2145,737 2184,791 2219,848 2223,854 2226,862 2228,869 2229,876 2229,884 2229,891 2228,898 2227,905 2225,912 2222,919 2218,926 2214,932 2209,938 2204,943 2198,948 2191,952 2184,956 2177,958 2170,960 2162,962 2155,962 2147,962 2140,961 2133,960 2126,957 2119,954 2113,951 2107,947 2101,942 2096,936 2091,930 2086,924 2057,876 2024,830 1988,786 1950,746 1909,708 1866,673 1821,641 1774,611 1726,585 1675,562 1623,543 1570,526 1516,513 1461,504 1405,498 1348,497 1261,501 1177,514 1095,535 1017,564 942,599 872,642 807,691 746,746 691,807 642,872 599,942 564,1017 535,1095 514,1177 501,1261 497,1348 501,1435 514,1519 535,1601 564,1679 599,1754 642,1824 691,1889 746,1950 807,2005 872,2054 942,2097 1017,2132 1095,2161 1177,2182 1261,2195 1348,2199 1435,2195 1519,2182 1601,2161 1679,2132 1754,2097 1824,2054 1889,2005 1950,1950 2005,1889 2054,1824 2097,1754 2132,1679 2161,1601 2182,1519 2195,1435 2199,1348 2200,1340 2201,1333 2203,1325 2206,1318 2209,1312 2213,1305 2217,1299 2222,1294 2227,1289 2233,1285 2240,1281 2246,1277 2253,1275 2261,1273 2268,1272 2276,1271 2284,1272 2291,1273 2299,1275 2306,1277 2313,1281 2319,1285 2325,1289 2330,1294 2335,1299 2340,1305 2343,1312 2347,1318 2349,1325 2351,1333 2352,1340 2353,1348 2347,1451 2332,1550 2307,1646 2274,1739 2231,1826 2181,1909 2123,1987 2058,2058 1987,2123 1909,2181 1826,2231 1739,2274 1646,2307 1550,2332 1451,2347 1348,2353 Z"/>
        </g>
       </g>
       <g class="com.sun.star.drawing.PolyPolygonShape">
        <g id="id5">
         <rect class="BoundingBox" stroke="none" fill="none" x="789" y="789" width="1119" height="1119"/>
         <path fill="rgb(206,232,250)" fill-opacity="0.698" stroke="rgb(255,255,255)" stroke-opacity="0.698" d="M 1907,1348 L 1906,1386 1902,1423 1897,1458 1889,1493 1878,1527 1865,1561 1850,1594 1832,1627 1812,1660 1791,1690 1768,1718 1744,1744 1718,1768 1690,1791 1660,1812 1627,1832 1594,1850 1561,1865 1527,1878 1493,1889 1458,1897 1423,1902 1386,1906 1348,1907 1310,1906 1273,1902 1238,1897 1203,1889 1169,1878 1135,1865 1102,1850 1069,1832 1036,1812 1006,1791 978,1768 952,1744 928,1718 905,1690 884,1660 864,1627 846,1594 831,1561 818,1527 807,1493 799,1458 794,1423 790,1386 789,1348 790,1310 794,1273 799,1238 807,1203 818,1169 831,1135 846,1102 864,1069 884,1036 905,1006 928,978 952,952 978,928 1006,905 1036,884 1069,864 1102,846 1135,831 1169,818 1203,807 1238,799 1273,794 1310,790 1348,789 1386,790 1423,794 1458,799 1493,807 1527,818 1561,831 1594,846 1627,864 1660,884 1690,905 1718,928 1744,952 1768,978 1791,1006 1812,1036 1832,1069 1850,1102 1865,1135 1878,1169 1889,1203 1897,1238 1902,1273 1906,1310 1907,1348 Z"/>
        </g>
       </g>
       <g class="com.sun.star.drawing.PolyPolygonShape">
        <g id="id6">
         <rect class="BoundingBox" stroke="none" fill="none" x="712" y="712" width="1273" height="1273"/>
         <path fill="rgb(45,82,124)" fill-opacity="0.698" stroke="rgb(255,255,255)" stroke-opacity="0.698" d="M 1348,1983 L 1283,1980 1220,1971 1159,1955 1101,1933 1045,1907 993,1875 944,1838 899,1797 858,1752 821,1703 789,1651 763,1595 741,1537 725,1476 716,1413 713,1348 716,1283 725,1220 741,1159 763,1101 789,1045 821,993 858,944 899,899 944,858 993,821 1045,789 1101,763 1159,741 1220,725 1283,716 1348,713 1413,716 1476,725 1537,741 1595,763 1651,789 1703,821 1752,858 1797,899 1838,944 1875,993 1907,1045 1933,1101 1955,1159 1971,1220 1980,1283 1983,1348 1980,1413 1971,1476 1955,1537 1933,1595 1907,1651 1875,1703 1838,1752 1797,1797 1752,1838 1703,1875 1651,1907 1595,1933 1537,1955 1476,1971 1413,1980 1348,1983 Z M 1348,866 L 1299,868 1251,875 1205,887 1160,904 1118,924 1079,948 1041,976 1007,1007 976,1041 948,1079 924,1118 904,1160 887,1205 875,1251 868,1299 866,1348 868,1397 875,1445 887,1491 904,1536 924,1578 948,1617 976,1655 1007,1689 1041,1720 1079,1748 1118,1772 1160,1792 1205,1809 1251,1821 1299,1828 1348,1830 1397,1828 1445,1821 1491,1809 1536,1792 1578,1772 1617,1748 1655,1720 1689,1689 1720,1655 1748,1617 1772,1578 1792,1536 1809,1491 1821,1445 1828,1397 1830,1348 1828,1299 1821,1251 1809,1205 1792,1160 1772,1118 1748,1079 1720,1041 1689,1007 1655,976 1617,948 1578,924 1536,904 1491,887 1445,875 1397,868 1348,866 Z"/>
        </g>
       </g>
      </g>
      <g class="Graphic">
       <g id="id7">
        <rect class="BoundingBox" stroke="none" fill="none" x="295" y="305" width="2094" height="2094"/>
        <path fill="rgb(0,0,0)" stroke="none" d="M 1277,386 C 1277,421 1306,450 1342,450 1582,450 1809,544 1979,714 2149,884 2243,1111 2243,1352 2243,1589 2152,1813 1986,1982 L 1986,1802 C 1986,1767 1957,1738 1921,1738 1886,1738 1857,1767 1857,1802 L 1857,2189 2243,2189 C 2279,2189 2307,2160 2307,2124 2307,2089 2279,2060 2243,2060 L 2089,2060 C 2272,1868 2372,1617 2372,1352 2372,1076 2265,818 2070,623 1875,428 1617,321 1342,321 1306,321 1277,350 1277,386 L 1277,386 Z"/>
        <path fill="rgb(0,0,0)" stroke="none" d="M 613,2080 C 808,2275 1066,2382 1342,2382 1377,2382 1406,2353 1406,2317 1406,2282 1377,2253 1342,2253 1101,2253 874,2159 704,1989 534,1819 440,1592 440,1352 440,1114 531,890 698,721 L 698,901 C 698,936 726,965 762,965 797,965 826,936 826,901 L 826,514 440,514 C 404,514 376,543 376,579 376,614 404,643 440,643 L 594,643 C 411,835 311,1086 311,1352 311,1627 418,1885 613,2080 L 613,2080 Z"/>
       </g>
      </g>
     </g>
    </g>
   </g>
  </g>
 </g>
</svg>