<?xml version="1.0" encoding="UTF-8"?>
<!DOCTYPE svg PUBLIC "-//W3C//DTD SVG 1.1//EN" "http://www.w3.org/Graphics/SVG/1.1/DTD/svg11.dtd">
<svg version="1.2" width="26.98mm" height="26.98mm" viewBox="0 0 2698 2698" preserveAspectRatio="xMidYMid" fill-rule="evenodd" stroke-width="28.222" stroke-linejoin="round" xmlns="http://www.w3.org/2000/svg" xmlns:ooo="http://xml.openoffice.org/svg/export" xmlns:xlink="http://www.w3.org/1999/xlink" xmlns:presentation="http://sun.com/xmlns/staroffice/presentation" xmlns:smil="http://www.w3.org/2001/SMIL20/" xmlns:anim="urn:oasis:names:tc:opendocument:xmlns:animation:1.0" xml:space="preserve">
 <defs class="ClipPathGroup">
  <clipPath id="presentation_clip_path" clipPathUnits="userSpaceOnUse">
   <rect x="0" y="0" width="2698" height="2698"/>
  </clipPath>
  <clipPath id="presentation_clip_path_shrink" clipPathUnits="userSpaceOnUse">
   <rect x="2" y="2" width="2693" height="2693"/>
  </clipPath>
 </defs>
 <defs class="TextShapeIndex">
  <g ooo:slide="id1" ooo:id-list="id3 id4 id5 id6 id7"/>
 </defs>
 <defs class="EmbeddedBulletChars">
  <g id="bullet-char-template-57356" transform="scale(0.00048828125,-0.00048828125)">
   <path d="M 580,1141 L 1163,571 580,0 -4,571 580,1141 Z"/>
  </g>
  <g id="bullet-char-template-57354" transform="scale(0.00048828125,-0.00048828125)">
   <path d="M 8,1128 L 1137,1128 1137,0 8,0 8,1128 Z"/>
  </g>
  <g id="bullet-char-template-10146" transform="scale(0.00048828125,-0.00048828125)">
   <path d="M 174,0 L 602,739 174,1481 1456,739 174,0 Z M 1358,739 L 309,1346 659,739 1358,739 Z"/>
  </g>
  <g id="bullet-char-template-10132" transform="scale(0.00048828125,-0.00048828125)">
   <path d="M 2015,739 L 1276,0 717,0 1260,543 174,543 174,936 1260,936 717,1481 1274,1481 2015,739 Z"/>
  </g>
  <g id="bullet-char-template-10007" transform="scale(0.00048828125,-0.00048828125)">
   <path d="M 0,-2 C -7,14 -16,27 -25,37 L 356,567 C 262,823 215,952 215,954 215,979 228,992 255,992 264,992 276,990 289,987 310,991 331,999 354,1012 L 381,999 492,748 772,1049 836,1024 860,1049 C 881,1039 901,1025 922,1006 886,937 835,863 770,784 769,783 710,716 594,584 L 774,223 C 774,196 753,168 711,139 L 727,119 C 717,90 699,76 672,76 641,76 570,178 457,381 L 164,-76 C 142,-110 111,-127 72,-127 30,-127 9,-110 8,-76 1,-67 -2,-52 -2,-32 -2,-23 -1,-13 0,-2 Z"/>
  </g>
  <g id="bullet-char-template-10004" transform="scale(0.00048828125,-0.00048828125)">
   <path d="M 285,-33 C 182,-33 111,30 74,156 52,228 41,333 41,471 41,549 55,616 82,672 116,743 169,778 240,778 293,778 328,747 346,684 L 369,508 C 377,444 397,411 428,410 L 1163,1116 C 1174,1127 1196,1133 1229,1133 1271,1133 1292,1118 1292,1087 L 1292,965 C 1292,929 1282,901 1262,881 L 442,47 C 390,-6 338,-33 285,-33 Z"/>
  </g>
  <g id="bullet-char-template-9679" transform="scale(0.00048828125,-0.00048828125)">
   <path d="M 813,0 C 632,0 489,54 383,161 276,268 223,411 223,592 223,773 276,916 383,1023 489,1130 632,1184 813,1184 992,1184 1136,1130 1245,1023 1353,916 1407,772 1407,592 1407,412 1353,268 1245,161 1136,54 992,0 813,0 Z"/>
  </g>
  <g id="bullet-char-template-8226" transform="scale(0.00048828125,-0.00048828125)">
   <path d="M 346,457 C 273,457 209,483 155,535 101,586 74,649 74,723 74,796 101,859 155,911 209,963 273,989 346,989 419,989 480,963 531,910 582,859 608,796 608,723 608,648 583,586 532,535 482,483 420,457 346,457 Z"/>
  </g>
  <g id="bullet-char-template-8211" transform="scale(0.00048828125,-0.00048828125)">
   <path d="M -4,459 L 1135,459 1135,606 -4,606 -4,459 Z"/>
  </g>
  <g id="bullet-char-template-61548" transform="scale(0.00048828125,-0.00048828125)">
   <path d="M 173,740 C 173,903 231,1043 346,1159 462,1274 601,1332 765,1332 928,1332 1067,1274 1183,1159 1299,1043 1357,903 1357,740 1357,577 1299,437 1183,322 1067,206 928,148 765,148 601,148 462,206 346,322 231,437 173,577 173,740 Z"/>
  </g>
 </defs>
 <defs class="TextEmbeddedBitmaps"/>
 <g>
  <g id="id2" class="Master_Slide">
   <g id="bg-id2" class="Background"/>
   <g id="bo-id2" class="BackgroundObjects"/>
  </g>
 </g>
 <g class="SlideGroup">
  <g>
   <g id="container-id1">
    <g id="id1" class="Slide" clip-path="url(#presentation_clip_path)">
     <g class="Page">
      <g class="Group">
       <g class="com.sun.star.drawing.PolyPolygonShape">
        <g id="id3">
         <rect class="BoundingBox" stroke="none" fill="none" x="-2" y="-1" width="2702" height="2703"/>
         <path fill="rgb(45,82,124)" fill-opacity="0.698" stroke="rgb(255,255,255)" stroke-opacity="0.698" d="M 1348,2700 L 1214,2693 1083,2674 955,2642 831,2598 712,2542 599,2474 493,2395 393,2305 388,2299 384,2293 380,2286 377,2279 374,2272 372,2265 371,2258 371,2250 371,2243 372,2236 374,2229 377,2222 380,2215 384,2208 388,2202 393,2196 399,2191 405,2187 412,2183 419,2179 426,2177 433,2175 440,2174 448,2174 455,2174 462,2175 469,2177 476,2179 483,2183 490,2187 496,2191 502,2196 590,2276 684,2346 784,2407 890,2456 999,2496 1113,2524 1229,2541 1348,2547 1467,2541 1583,2524 1697,2496 1806,2456 1912,2407 2012,2346 2106,2276 2194,2196 2274,2108 2344,2014 2405,1914 2454,1808 2493,1699 2522,1585 2539,1469 2545,1350 2539,1231 2522,1115 2493,1001 2454,892 2405,786 2344,686 2274,592 2194,504 2106,424 2012,354 1912,293 1806,244 1697,204 1583,176 1467,159 1348,153 1229,159 1113,176 999,204 890,244 784,293 684,354 590,424 502,504 447,562 397,623 351,687 310,754 274,823 242,894 215,967 192,1041 175,1117 162,1194 154,1272 151,1350 154,1428 161,1506 174,1585 192,1662 194,1670 195,1678 195,1685 194,1693 193,1700 191,1707 188,1714 185,1720 181,1727 176,1732 171,1738 166,1743 159,1747 153,1751 146,1754 138,1756 131,1758 123,1759 116,1759 108,1758 101,1757 94,1755 87,1752 80,1749 74,1745 68,1740 63,1735 58,1729 54,1723 50,1717 47,1710 45,1702 25,1617 10,1531 1,1445 -2,1358 0,1271 8,1184 22,1098 41,1013 66,926 97,842 134,760 175,681 223,604 275,531 332,461 393,395 493,305 599,226 712,158 831,102 955,58 1083,26 1214,7 1348,0 1482,7 1613,26 1741,58 1865,102 1984,158 2097,226 2203,305 2303,395 2393,495 2472,601 2540,714 2596,833 2640,957 2672,1085 2691,1216 2698,1350 2691,1484 2672,1615 2640,1743 2596,1867 2540,1986 2472,2099 2393,2205 2303,2305 2203,2395 2097,2474 1984,2542 1865,2598 1741,2642 1613,2674 1482,2693 1348,2700 Z"/>
        </g>
       </g>
       <g class="com.sun.star.drawing.PolyPolygonShape">
        <g id="id4">
         <rect class="BoundingBox" stroke="none" fill="none" x="343" y="345" width="2011" height="2011"/>
         <path fill="rgb(45,82,124)" fill-opacity="0.698" stroke="rgb(255,255,255)" stroke-opacity="0.698" d="M 1348,2355 L 1245,2349 1146,2334 1050,2309 957,2276 870,2233 787,2183 709,2125 638,2060 573,1989 515,1911 465,1828 422,1741 389,1648 364,1552 349,1453 343,1350 349,1247 364,1148 389,1052 422,959 465,872 515,789 573,711 638,640 709,575 787,517 870,467 957,424 1050,391 1146,366 1245,351 1348,345 1415,348 1481,354 1546,365 1610,380 1673,400 1734,423 1793,450 1851,481 1906,515 1959,553 2010,595 2058,640 2103,688 2145,739 2184,793 2219,850 2223,856 2226,864 2228,871 2229,878 2229,886 2229,893 2228,900 2227,907 2225,914 2222,921 2218,928 2214,934 2209,940 2204,945 2198,950 2191,954 2184,958 2177,960 2170,962 2162,964 2155,964 2147,964 2140,963 2133,962 2126,959 2119,956 2113,953 2107,949 2101,944 2096,938 2091,932 2086,926 2057,878 2024,832 1988,788 1950,748 1909,710 1866,675 1821,643 1774,613 1726,587 1675,564 1623,545 1570,528 1516,515 1461,506 1405,500 1348,499 1261,503 1177,516 1095,537 1017,566 942,601 872,644 807,693 746,748 691,809 642,874 599,944 564,1019 535,1097 514,1179 501,1263 497,1350 501,1437 514,1521 535,1603 564,1681 599,1756 642,1826 691,1891 746,1952 807,2007 872,2056 942,2099 1017,2134 1095,2163 1177,2184 1261,2197 1348,2201 1435,2197 1519,2184 1601,2163 1679,2134 1754,2099 1824,2056 1889,2007 1950,1952 2005,1891 2054,1826 2097,1756 2132,1681 2161,1603 2182,1521 2195,1437 2199,1350 2200,1342 2201,1335 2203,1327 2206,1320 2209,1314 2213,1307 2217,1301 2222,1296 2227,1291 2233,1287 2240,1283 2246,1279 2253,1277 2261,1275 2268,1274 2276,1273 2284,1274 2291,1275 2299,1277 2306,1279 2313,1283 2319,1287 2325,1291 2330,1296 2335,1301 2340,1307 2343,1314 2347,1320 2349,1327 2351,1335 2352,1342 2353,1350 2347,1453 2332,1552 2307,1648 2274,1741 2231,1828 2181,1911 2123,1989 2058,2060 1987,2125 1909,2183 1826,2233 1739,2276 1646,2309 1550,2334 1451,2349 1348,2355 Z"/>
        </g>
       </g>
       <g class="com.sun.star.drawing.PolyPolygonShape">
        <g id="id5">
         <rect class="BoundingBox" stroke="none" fill="none" x="789" y="791" width="1119" height="1119"/>
         <path fill="rgb(206,232,250)" fill-opacity="0.698" stroke="rgb(255,255,255)" stroke-opacity="0.698" d="M 1907,1350 L 1906,1388 1902,1425 1897,1460 1889,1495 1878,1529 1865,1563 1850,1596 1832,1629 1812,1662 1791,1692 1768,1720 1744,1746 1718,1770 1690,1793 1660,1814 1627,1834 1594,1852 1561,1867 1527,1880 1493,1891 1458,1899 1423,1904 1386,1908 1348,1909 1310,1908 1273,1904 1238,1899 1203,1891 1169,1880 1135,1867 1102,1852 1069,1834 1036,1814 1006,1793 978,1770 952,1746 928,1720 905,1692 884,1662 864,1629 846,1596 831,1563 818,1529 807,1495 799,1460 794,1425 790,1388 789,1350 790,1312 794,1275 799,1240 807,1205 818,1171 831,1137 846,1104 864,1071 884,1038 905,1008 928,980 952,954 978,930 1006,907 1036,886 1069,866 1102,848 1135,833 1169,820 1203,809 1238,801 1273,796 1310,792 1348,791 1386,792 1423,796 1458,801 1493,809 1527,820 1561,833 1594,848 1627,866 1660,886 1690,907 1718,930 1744,954 1768,980 1791,1008 1812,1038 1832,1071 1850,1104 1865,1137 1878,1171 1889,1205 1897,1240 1902,1275 1906,1312 1907,1350 Z"/>
        </g>
       </g>
       <g class="com.sun.star.drawing.PolyPolygonShape">
        <g id="id6">
         <rect class="BoundingBox" stroke="none" fill="none" x="712" y="714" width="1273" height="1273"/>
         <path fill="rgb(45,82,124)" fill-opacity="0.698" stroke="rgb(255,255,255)" stroke-opacity="0.698" d="M 1348,1985 L 1283,1982 1220,1973 1159,1957 1101,1935 1045,1909 993,1877 944,1840 899,1799 858,1754 821,1705 789,1653 763,1597 741,1539 725,1478 716,1415 713,1350 716,1285 725,1222 741,1161 763,1103 789,1047 821,995 858,946 899,901 944,860 993,823 1045,791 1101,765 1159,743 1220,727 1283,718 1348,715 1413,718 1476,727 1537,743 1595,765 1651,791 1703,823 1752,860 1797,901 1838,946 1875,995 1907,1047 1933,1103 1955,1161 1971,1222 1980,1285 1983,1350 1980,1415 1971,1478 1955,1539 1933,1597 1907,1653 1875,1705 1838,1754 1797,1799 1752,1840 1703,1877 1651,1909 1595,1935 1537,1957 1476,1973 1413,1982 1348,1985 Z M 1348,868 L 1299,870 1251,877 1205,889 1160,906 1118,926 1079,950 1041,978 1007,1009 976,1043 948,1081 924,1120 904,1162 887,1207 875,1253 868,1301 866,1350 868,1399 875,1447 887,1493 904,1538 924,1580 948,1619 976,1657 1007,1691 1041,1722 1079,1750 1118,1774 1160,1794 1205,1811 1251,1823 1299,1830 1348,1832 1397,1830 1445,1823 1491,1811 1536,1794 1578,1774 1617,1750 1655,1722 1689,1691 1720,1657 1748,1619 1772,1580 1792,1538 1809,1493 1821,1447 1828,1399 1830,1350 1828,1301 1821,1253 1809,1207 1792,1162 1772,1120 1748,1081 1720,1043 1689,1009 1655,978 1617,950 1578,926 1536,906 1491,889 1445,877 1397,870 1348,868 Z"/>
        </g>
       </g>
      </g>
      <g class="Graphic">
       <g id="id7">
        <rect class="BoundingBox" stroke="none" fill="none" x="185" y="147" width="2214" height="2214"/>
        <defs>
         <clipPath id="clip_path_1" clipPathUnits="userSpaceOnUse">
          <path d="M 185,147 L 2398,147 2398,2360 185,2360 185,147 Z"/>
         </clipPath>
        </defs>
        <g clip-path="url(#clip_path_1)">
         <path fill="rgb(0,0,0)" stroke="none" d="M 1825,897 L 515,897 783,629 C 821,592 821,530 783,493 745,455 684,455 646,493 L 213,926 C 176,963 176,1025 213,1062 L 646,1495 C 665,1514 690,1524 715,1524 739,1524 764,1514 783,1495 821,1458 821,1396 783,1359 L 515,1091 1825,1091 C 2035,1091 2205,1261 2205,1470 2205,1679 2035,1849 1825,1849 L 1028,1849 C 975,1849 932,1893 932,1946 932,1999 975,2043 1028,2043 L 1825,2043 C 2141,2043 2398,1786 2398,1470 2398,1154 2141,897 1825,897 L 1825,897 Z"/>
        </g>
       </g>
      </g>
     </g>
    </g>
   </g>
  </g>
 </g>
</svg>